<svg width="18" height="18" viewBox="0 0 18 18" fill="none" xmlns="http://www.w3.org/2000/svg">
<path d="M13.7812 0H4.21875C1.8888 0 0 1.8888 0 4.21875V13.7812C0 16.1112 1.8888 18 4.21875 18H13.7812C16.1112 18 18 16.1112 18 13.7812V4.21875C18 1.8888 16.1112 0 13.7812 0Z" fill="none"/>
<path d="M2.92753 14.2763H5.16473V8.843L1.96875 6.44604V13.3175C1.96875 13.848 2.39864 14.2763 2.92753 14.2763Z" fill="#4285F4"/>
<path d="M12.8352 14.2761H15.0725C15.603 14.2761 16.0313 13.8462 16.0313 13.3173V6.4458L12.8352 8.84282" fill="#34A853"/>
<path d="M12.8352 4.68814V8.84298L16.0313 6.44602V5.16746C16.0313 3.98178 14.6777 3.3058 13.7301 4.01694" fill="#FBBC04"/>
<path d="M5.16479 8.84289V4.68813L8.99999 7.5644L12.8352 4.68799V8.84282L8.99999 11.7193" fill="#EA4335"/>
<path d="M1.96875 5.16746V6.44588L5.16473 8.84291V4.68814L4.26987 4.01694C3.32065 3.3058 1.96875 3.98178 1.96875 5.16746Z" fill="#C5221F"/>
</svg>
