<svg width="18" height="18" viewBox="0 0 18 18" fill="none" xmlns="http://www.w3.org/2000/svg">
<path d="M14.625 9V11.0002C14.625 12.63 14.625 13.4452 14.3768 14.094C14.1892 14.5839 13.9009 15.0291 13.5305 15.4006C13.1601 15.7722 12.7159 16.0619 12.2265 16.251C11.58 16.5 10.767 16.5 9.14252 16.5C8.28977 16.5 7.86377 16.5 7.46777 16.4122C6.8626 16.2783 6.30008 15.9964 5.83052 15.5917C5.52302 15.3255 5.26802 14.9842 4.75577 14.3002L2.50277 11.2867C2.33436 11.0614 2.24544 10.7865 2.24992 10.5052C2.2544 10.2238 2.35202 9.95192 2.52752 9.732C2.63835 9.59262 2.77741 9.47826 2.93558 9.39645C3.09374 9.31463 3.26743 9.26721 3.44522 9.25729C3.62302 9.24737 3.8009 9.27519 3.96718 9.33891C4.13346 9.40263 4.28438 9.50081 4.41002 9.627L5.62502 10.8465V3.375C5.62502 3.07663 5.74355 2.79048 5.95453 2.5795C6.1655 2.36853 6.45165 2.25 6.75002 2.25C7.04839 2.25 7.33454 2.36853 7.54552 2.5795C7.7565 2.79048 7.87502 3.07663 7.87502 3.375V6M7.87502 6H8.62502C9.02285 6 9.40438 6.15804 9.68568 6.43934C9.96699 6.72064 10.125 7.10218 10.125 7.5M7.87502 6V8.25M10.125 7.5V8.25M10.125 7.5V6.75H10.875C11.2728 6.75 11.6544 6.90804 11.9357 7.18934C12.217 7.47064 12.375 7.85218 12.375 8.25M12.375 8.25V9M12.375 8.25V7.5L13.3718 7.6665C13.7219 7.72489 14.04 7.90554 14.2694 8.17635C14.4989 8.44715 14.6249 8.79055 14.625 9.1455V9.75M15.75 3.375H11.25M15.75 3.375C15.75 2.85 14.2545 1.869 13.875 1.5M15.75 3.375C15.75 3.9 14.2545 4.881 13.875 5.25" stroke="white" stroke-width="1.125" stroke-linecap="round" stroke-linejoin="round"/>
</svg>
