<svg width="18" height="18" viewBox="0 0 18 18" fill="none" xmlns="http://www.w3.org/2000/svg">
<rect width="18" height="18" rx="9" fill="#242938"/>
<path d="M3 10.896V7.87204C3 6.66604 3.774 6.018 4.944 6.018C6.096 6 6.816 6.75604 6.78 8.03404H5.448C5.484 7.54804 5.268 7.18804 4.908 7.20604C4.458 7.20604 4.332 7.51204 4.332 8.08804V10.716C4.332 11.274 4.512 11.544 4.908 11.562C5.322 11.562 5.484 11.148 5.448 10.68H6.78C6.852 11.994 6.024 12.768 4.854 12.75C3.72 12.75 3 12.12 3 10.896ZM7.266 10.68H8.50798C8.52598 11.256 8.70598 11.616 9.10198 11.616C9.49798 11.616 9.64198 11.382 9.64198 10.842C9.64198 10.392 9.44398 10.14 8.95798 9.90604L8.48998 9.69004C7.662 9.29404 7.32 8.80804 7.32 7.83604C7.32 6.75604 8.004 6 9.11998 6C10.236 6 10.83 6.77404 10.848 8.03404H9.64198C9.64198 7.51204 9.53398 7.15204 9.13798 7.15204C8.77798 7.15204 8.59798 7.33204 8.59798 7.78204C8.59798 8.23204 8.75998 8.41204 9.19198 8.59204L9.62398 8.79004C10.542 9.22204 10.938 9.78004 10.938 10.824C10.938 12.066 10.236 12.75 9.08398 12.75C7.932 12.75 7.284 11.958 7.266 10.68ZM11.334 10.68H12.594C12.594 11.256 12.792 11.616 13.17 11.616C13.548 11.616 13.71 11.382 13.71 10.842C13.71 10.392 13.53 10.14 13.026 9.90604L12.558 9.69004C11.73 9.29404 11.406 8.80804 11.406 7.83604C11.406 6.75604 12.072 6 13.206 6C14.34 6 14.898 6.77404 14.934 8.03404H13.728C13.71 7.51204 13.602 7.15204 13.206 7.15204C12.846 7.15204 12.684 7.33204 12.684 7.78204C12.684 8.23204 12.828 8.41204 13.26 8.59204L13.71 8.79004C14.61 9.22204 15.006 9.78004 15.006 10.824C15.006 12.066 14.304 12.75 13.152 12.75C12 12.75 11.352 11.958 11.334 10.68Z" fill="#663399"/>
</svg>
