<svg width="18" height="18" viewBox="0 0 18 18" fill="none" xmlns="http://www.w3.org/2000/svg">
<rect width="18" height="18" rx="9" fill="#242938"/>
<path d="M14.1988 13.3278C13.7915 13.4314 13.5396 13.3322 13.3136 12.9928C12.8062 12.2326 12.2461 11.5073 11.7057 10.7686C11.636 10.673 11.5637 10.5792 11.4735 10.4604C10.8339 11.3233 10.1952 12.1451 9.59582 12.9999C9.38144 13.3054 9.15634 13.4385 8.75616 13.3304L11.1608 10.1031L8.92231 7.1884C9.3073 7.11336 9.57349 7.15177 9.80931 7.49657C10.3301 8.25763 10.9044 8.98206 11.477 9.74848C12.0532 8.98474 12.6204 8.25941 13.1564 7.5055C13.3716 7.20001 13.603 7.08388 13.9898 7.19644C13.6968 7.585 13.41 7.96732 13.1215 8.34695C12.7321 8.85879 12.3497 9.37688 11.946 9.878C11.8022 10.0567 11.8254 10.1728 11.954 10.3416C12.7008 11.3233 13.4386 12.3148 14.1988 13.3278ZM3.00268 10.0495C3.06699 9.72704 3.10987 9.39832 3.1992 9.0821C3.73515 7.16785 5.93257 6.37196 7.44218 7.5582C8.3265 8.25405 8.54624 9.23485 8.50247 10.3407H3.51809C3.44306 12.3246 4.87138 13.5225 6.69184 12.9115C7.33052 12.6971 7.70658 12.1969 7.89506 11.5716C7.99064 11.2581 8.14874 11.209 8.44352 11.2983C8.29256 12.0808 7.95044 12.7346 7.23583 13.1438C6.16392 13.7565 4.63377 13.5582 3.82894 12.7069C3.35373 12.2067 3.15185 11.5841 3.06253 10.9115C3.04913 10.8043 3.02144 10.6989 3 10.5926C3.00179 10.4116 3.00268 10.2305 3.00268 10.0495ZM3.52702 9.91641H8.03173C8.00225 8.48183 7.10899 7.46263 5.88791 7.45369C4.54802 7.44297 3.58508 8.43807 3.52702 9.91641Z" fill="#81CD39"/>
<path d="M11.6541 3.04267C11.7535 2.98591 11.8829 2.98565 11.9822 3.04267C12.4816 3.32439 12.9812 3.60564 13.4806 3.88752C13.5745 3.94033 13.6373 4.04467 13.6364 4.15269V5.84751C13.6371 5.96002 13.568 6.06686 13.4689 6.11845C12.9712 6.39863 12.4736 6.67912 11.9759 6.95927C11.8745 7.01714 11.7424 7.0127 11.6442 6.95006C11.495 6.8637 11.3455 6.77775 11.1962 6.69148C11.1657 6.67335 11.1313 6.6589 11.1098 6.62939C11.1288 6.60378 11.1629 6.60059 11.1905 6.58938C11.2528 6.56962 11.31 6.53787 11.3673 6.50707C11.3817 6.4972 11.3994 6.50099 11.4133 6.50982C11.5409 6.58287 11.6674 6.65804 11.7954 6.73037C11.8228 6.74612 11.8504 6.72521 11.8738 6.71222C12.3623 6.43663 12.8513 6.16207 13.3398 5.8864C13.3579 5.87771 13.3679 5.85852 13.3664 5.83874C13.3667 5.27965 13.3665 4.72048 13.3666 4.16136C13.3686 4.13894 13.3556 4.11829 13.3353 4.1091C12.8392 3.83022 12.3434 3.55095 11.8474 3.27202C11.8388 3.26612 11.8286 3.26296 11.8182 3.26294C11.8078 3.26292 11.7976 3.26605 11.789 3.27192C11.293 3.55095 10.7972 3.83051 10.3012 4.10934C10.281 4.11855 10.2674 4.13886 10.2698 4.16136C10.2699 4.72048 10.2698 5.27965 10.2698 5.83882C10.2689 5.84849 10.271 5.85818 10.2759 5.86658C10.2807 5.87502 10.288 5.88176 10.2968 5.88589C10.4291 5.9608 10.5617 6.03519 10.6941 6.10988C10.7687 6.14994 10.8603 6.17378 10.9425 6.14306C11.0151 6.1171 11.0659 6.0432 11.0645 5.9663C11.0652 5.41048 11.0642 4.85458 11.065 4.29881C11.0632 4.27415 11.0867 4.25376 11.1107 4.2561C11.1743 4.25566 11.238 4.25523 11.3016 4.25626C11.3281 4.25566 11.3464 4.28224 11.3431 4.30708C11.3429 4.86644 11.3438 5.4258 11.3427 5.98512C11.3429 6.13423 11.2815 6.29641 11.1434 6.36937C10.9732 6.45734 10.7629 6.43869 10.5947 6.35432C10.4492 6.28181 10.3103 6.19623 10.1673 6.11854C10.068 6.06723 9.99931 5.95997 10 5.84754V4.15269C9.99896 4.04243 10.0643 3.93619 10.1611 3.88415C10.6588 3.60378 11.1565 3.32318 11.6541 3.04267Z" fill="#81CD39"/>
<path d="M12.0883 4.21671C12.3053 4.20276 12.5377 4.20844 12.7331 4.3152C12.8843 4.39699 12.9681 4.56868 12.9708 4.7364C12.9666 4.75901 12.9429 4.77149 12.9213 4.76994C12.8583 4.76985 12.7953 4.7708 12.7323 4.76951C12.7056 4.77054 12.69 4.74596 12.6867 4.72238C12.6686 4.64212 12.6247 4.56265 12.5491 4.52393C12.4329 4.4659 12.2983 4.46882 12.1716 4.47003C12.0791 4.47491 11.9797 4.48292 11.9013 4.53718C11.8412 4.5783 11.8229 4.6613 11.8444 4.72815C11.8646 4.77615 11.9201 4.79163 11.9655 4.80591C12.2272 4.87421 12.5044 4.8674 12.761 4.95727C12.8672 4.99392 12.9712 5.06516 13.0075 5.17619C13.0551 5.32503 13.0342 5.50287 12.9281 5.62232C12.8421 5.72064 12.7169 5.77416 12.5919 5.80321C12.4257 5.84024 12.2532 5.84118 12.0844 5.82475C11.9256 5.80668 11.7605 5.76504 11.6379 5.65711C11.5331 5.56628 11.482 5.42475 11.487 5.2882C11.4883 5.26512 11.5113 5.24903 11.5334 5.25093C11.5968 5.25042 11.6603 5.25024 11.7237 5.25103C11.749 5.24921 11.7678 5.27107 11.7691 5.29491C11.7808 5.37135 11.8096 5.45162 11.8764 5.49694C12.0053 5.57994 12.167 5.57426 12.3146 5.57658C12.4369 5.57119 12.5741 5.56955 12.674 5.48885C12.7266 5.44285 12.7422 5.36584 12.728 5.29962C12.7126 5.24371 12.654 5.21765 12.6036 5.20061C12.3454 5.11908 12.0651 5.14867 11.8093 5.05645C11.7055 5.01983 11.6051 4.95058 11.5652 4.8441C11.5095 4.69341 11.535 4.50699 11.6522 4.39159C11.7665 4.27674 11.9314 4.23252 12.0883 4.21671Z" fill="#81CD39"/>
</svg>
