<svg width="18" height="18" viewBox="0 0 18 18" fill="none" xmlns="http://www.w3.org/2000/svg">
<rect width="18" height="18" rx="9" fill="#242938"/>
<path d="M8.54878 3.11735C8.82207 2.96124 9.17796 2.96052 9.45096 3.11735C10.8244 3.89207 12.1983 4.66551 13.5716 5.44067C13.8299 5.5859 14.0026 5.87283 14 6.1699V10.8307C14.0019 11.1401 13.8121 11.4339 13.5396 11.5757C12.1707 12.3462 10.8024 13.1176 9.43363 13.888C9.15479 14.0471 8.79173 14.0349 8.52151 13.8627C8.11112 13.6252 7.7 13.3888 7.28955 13.1516C7.20567 13.1017 7.11111 13.062 7.05188 12.9808C7.10428 12.9104 7.19789 12.9016 7.27394 12.8708C7.44523 12.8165 7.60261 12.7291 7.75995 12.6444C7.79978 12.6173 7.84834 12.6277 7.88651 12.652C8.23745 12.8529 8.58534 13.0596 8.93746 13.2585C9.01257 13.3018 9.08862 13.2443 9.15285 13.2086C10.4962 12.4507 11.8412 11.6957 13.1844 10.9376C13.2342 10.9137 13.2617 10.8609 13.2576 10.8065C13.2585 9.26904 13.2578 7.73131 13.2581 6.19375C13.2637 6.13208 13.228 6.0753 13.1721 6.05001C11.8078 5.28312 10.4443 4.51511 9.08034 3.74805C9.05672 3.73184 9.02873 3.72314 9.00006 3.7231C8.97138 3.72304 8.94337 3.73165 8.91968 3.74778C7.55567 4.51511 6.19244 5.28389 4.82843 6.05067C4.7727 6.07602 4.73531 6.13186 4.74193 6.19375C4.7422 7.73131 4.74193 9.26904 4.74193 10.8068C4.73955 10.8333 4.74539 10.86 4.75865 10.8831C4.77193 10.9063 4.792 10.9248 4.81615 10.9362C5.1801 11.1422 5.54455 11.3468 5.90877 11.5522C6.11399 11.6623 6.36589 11.7279 6.592 11.6434C6.79144 11.572 6.93128 11.3688 6.9275 11.1573C6.92939 9.62883 6.92655 8.10009 6.92888 6.57174C6.92389 6.50392 6.98839 6.44785 7.0545 6.45428C7.22939 6.45306 7.4045 6.45189 7.57939 6.45473C7.65239 6.45306 7.70262 6.52615 7.69361 6.59448C7.69289 8.13271 7.69551 9.67095 7.69245 11.2091C7.69289 11.6191 7.52417 12.0651 7.14427 12.2658C6.67633 12.5077 6.09788 12.4564 5.63555 12.2244C5.23532 12.025 4.85332 11.7896 4.46021 11.576C4.18698 11.4349 3.99809 11.1399 4.00003 10.8307V6.1699C3.99714 5.86668 4.17681 5.57453 4.44309 5.4314C5.81182 4.66041 7.18034 3.88874 8.54878 3.11735Z" fill="white"/>
<path d="M9.74291 6.34601C10.3399 6.30764 10.9789 6.32327 11.5161 6.61686C11.9321 6.84179 12.1626 7.31394 12.17 7.77516C12.1583 7.83733 12.0932 7.87165 12.0337 7.86739C11.8605 7.86716 11.6872 7.86977 11.5141 7.86622C11.4405 7.86904 11.3978 7.80144 11.3887 7.73662C11.3389 7.5159 11.2182 7.29735 11.0102 7.19088C10.6908 7.03127 10.3204 7.03932 9.97206 7.04265C9.7178 7.05606 9.44435 7.07808 9.22891 7.22731C9.06352 7.34039 9.0133 7.56864 9.0723 7.75248C9.12796 7.88446 9.28058 7.92705 9.40546 7.96631C10.1249 8.15414 10.8873 8.1354 11.5928 8.38257C11.8851 8.48333 12.1709 8.67925 12.2709 8.98459C12.4017 9.39389 12.3443 9.88296 12.0526 10.2115C11.8161 10.4818 11.4716 10.629 11.128 10.7089C10.6708 10.8107 10.1965 10.8133 9.73225 10.7681C9.29575 10.7184 8.84146 10.6039 8.50451 10.3071C8.21634 10.0573 8.07562 9.66812 8.08957 9.29262C8.0929 9.22915 8.15618 9.1849 8.21707 9.19011C8.39146 9.18872 8.5659 9.18822 8.74029 9.19039C8.80996 9.18539 8.86163 9.24551 8.86518 9.31107C8.89735 9.52126 8.97652 9.74202 9.16018 9.86663C9.51469 10.0949 9.95949 10.0793 10.3654 10.0857C10.7017 10.0708 11.0791 10.0663 11.3536 9.84439C11.4983 9.71789 11.5413 9.50612 11.5021 9.32401C11.4598 9.17026 11.2986 9.0986 11.1602 9.05175C10.45 8.82754 9.67913 8.90889 8.97585 8.6553C8.69029 8.55459 8.41418 8.36415 8.30451 8.07134C8.15146 7.65693 8.22157 7.1443 8.54385 6.82692C8.85807 6.5111 9.31163 6.38949 9.74291 6.34601Z" fill="white"/>
</svg>
