<svg width="18" height="18" viewBox="0 0 18 18" fill="none" xmlns="http://www.w3.org/2000/svg">
<rect width="18" height="18" rx="9" fill="#d4d4d8"/>
<path d="M11.6381 11.4094C11.7079 10.8488 11.687 10.7665 12.1199 10.8574L12.2298 10.8667C12.5627 10.8813 12.9982 10.815 13.254 10.7004C13.8048 10.4539 14.1313 10.0424 13.5884 10.1505C12.3496 10.397 12.2645 9.99242 12.2645 9.99242C13.5725 8.12059 14.1193 5.7444 13.6473 5.16274C12.3599 3.57629 10.1316 4.32648 10.0943 4.34588L10.0824 4.34802C9.83767 4.29903 9.56374 4.26977 9.25601 4.26496C8.69544 4.25604 8.2701 4.40671 7.94742 4.64267C7.94742 4.64267 3.97218 3.0631 4.15714 6.62914C4.19646 7.38773 5.28451 12.3693 6.58234 10.8646C7.0567 10.3144 7.51505 9.84921 7.51505 9.84921C7.74262 9.99499 8.01521 10.0695 8.30097 10.0427L8.32312 10.0245C8.31618 10.0928 8.31921 10.1596 8.33193 10.2388C7.99769 10.5991 8.0959 10.6623 7.42751 10.7949C6.75119 10.9293 7.14851 11.1686 7.40785 11.2312C7.72234 11.307 8.44981 11.4145 8.94143 10.7508L8.92186 10.8265C9.05299 10.9278 9.04419 11.5539 9.06269 12.0012C9.08128 12.4486 9.11233 12.866 9.2069 13.1122C9.30147 13.3584 9.41304 13.9922 10.2915 13.8106C11.0256 13.6593 11.5869 13.4409 11.6381 11.4094Z" fill="#336791"/>
<path d="M10.0499 14C9.31754 14 9.08552 13.4406 8.99059 13.2119C8.85163 12.8766 8.82165 11.5757 8.85261 10.5088C8.85307 10.4908 8.85721 10.4731 8.86481 10.4566C8.8724 10.4402 8.88329 10.4254 8.89685 10.413C8.91042 10.4006 8.92638 10.391 8.94383 10.3846C8.96127 10.3782 8.97986 10.3752 8.99851 10.3758C9.01714 10.3763 9.03549 10.3803 9.05251 10.3876C9.06953 10.395 9.08488 10.4055 9.09769 10.4185C9.11049 10.4316 9.12051 10.447 9.12715 10.4638C9.13379 10.4806 9.13694 10.4985 9.13641 10.5164C9.10073 11.7469 9.15135 12.8621 9.2542 13.1102C9.41469 13.4971 9.6581 13.8355 10.3462 13.6933C10.9995 13.5582 11.2442 13.3193 11.3532 12.71C11.4368 12.2425 11.6022 10.9123 11.6225 10.6498C11.6239 10.6319 11.6289 10.6144 11.6373 10.5983C11.6457 10.5823 11.6573 10.568 11.6714 10.5562C11.6856 10.5445 11.702 10.5356 11.7197 10.53C11.7374 10.5244 11.7561 10.5222 11.7747 10.5235C11.8122 10.5263 11.8471 10.5433 11.8716 10.5708C11.8962 10.5983 11.9084 10.6341 11.9056 10.6703C11.8844 10.9436 11.7198 12.2711 11.633 12.7566C11.5043 13.4762 11.1717 13.8026 10.4058 13.961C10.2756 13.9879 10.1574 13.9999 10.0499 14ZM6.07884 11.2679C6.01483 11.2677 5.95126 11.2576 5.89059 11.2379C5.41489 11.0848 4.96179 10.3376 4.54383 9.01681C4.22569 8.01144 4.0241 6.96205 4.00639 6.62098C3.95399 5.60986 4.22391 4.89451 4.80886 4.49491C5.96603 3.70414 7.91269 4.45716 7.99498 4.48959C8.02984 4.50333 8.05762 4.52986 8.0722 4.56334C8.08678 4.59683 8.08697 4.63453 8.07273 4.66815C8.0585 4.70178 8.03099 4.72857 7.99627 4.74263C7.96155 4.75669 7.92246 4.75688 7.8876 4.74315C7.86883 4.73577 6.00215 4.01449 4.97238 4.71869C4.47222 5.06071 4.2426 5.69618 4.28984 6.60734C4.30469 6.8947 4.49303 7.91886 4.81527 8.93684C5.18839 10.116 5.61302 10.86 5.98036 10.9781C6.03801 10.9967 6.21345 11.053 6.46424 10.7622C6.7567 10.4234 7.06013 10.0936 7.37409 9.77318C7.40036 9.74791 7.43584 9.73356 7.47294 9.7332C7.51004 9.73284 7.54582 9.74651 7.5726 9.77127C7.59939 9.79603 7.61507 9.82992 7.61628 9.86568C7.61748 9.90145 7.60413 9.93625 7.57907 9.96264C7.5748 9.96693 7.14785 10.3974 6.68256 10.9373C6.46219 11.1929 6.25099 11.2679 6.07884 11.2679ZM12.2556 10.1143C12.2299 10.1142 12.2046 10.1074 12.1826 10.0946C12.1605 10.0818 12.1425 10.0635 12.1304 10.0416C12.1184 10.0197 12.1127 9.995 12.114 9.97021C12.1153 9.94542 12.1236 9.92145 12.138 9.90086C13.4603 8.00844 13.9244 5.72183 13.5269 5.23189C13.0266 4.6153 12.3201 4.29327 11.427 4.27465C10.7657 4.26092 10.2401 4.42378 10.1542 4.45218L10.1326 4.46068C10.0462 4.48685 9.97989 4.4412 9.95489 4.38783C9.94063 4.35725 9.93847 4.3227 9.94881 4.29069C9.95916 4.25868 9.98128 4.23143 10.011 4.21407C10.0151 4.21176 10.0281 4.20644 10.0492 4.19897C10.1952 4.1474 10.7288 3.99296 11.3897 4.00025C12.3779 4.01037 13.1943 4.37788 13.7503 5.0632C14.0134 5.38745 14.014 6.13447 13.752 7.11281C13.4849 8.11029 12.9824 9.18225 12.3733 10.0539C12.3461 10.0931 12.3013 10.1143 12.2556 10.1143ZM12.3232 10.9903C12.0974 10.9903 11.895 10.9596 11.7739 10.8896C11.6493 10.8176 11.6256 10.7198 11.6225 10.6679C11.5885 10.0921 11.9178 9.9919 12.0858 9.94616C12.0624 9.91201 12.0291 9.87186 11.9947 9.83041C11.8967 9.71235 11.7626 9.55069 11.6592 9.30889C11.643 9.27114 11.5923 9.18336 11.5336 9.08168C11.2152 8.53099 10.5526 7.38507 10.9783 6.79825C11.1752 6.52668 11.5675 6.41977 12.1454 6.4794C11.9754 5.97985 11.1658 4.41717 9.24476 4.3868C8.66702 4.37753 8.19319 4.54888 7.83715 4.89562C7.04002 5.67207 7.06885 7.07694 7.06929 7.09102C7.06978 7.10899 7.0666 7.12688 7.05992 7.14366C7.05324 7.16045 7.0432 7.1758 7.03037 7.18884C7.01754 7.20189 7.00218 7.21237 6.98515 7.21968C6.96812 7.227 6.94977 7.231 6.93113 7.23148C6.9125 7.23195 6.89395 7.22888 6.87654 7.22244C6.85914 7.216 6.84322 7.20632 6.8297 7.19394C6.81617 7.18157 6.80531 7.16675 6.79773 7.15032C6.79014 7.1339 6.78598 7.1162 6.78549 7.09822C6.78372 7.03584 6.754 5.56155 7.63547 4.7029C8.048 4.30108 8.59105 4.1027 9.24948 4.11308C10.4784 4.13256 11.2695 4.73517 11.7167 5.23721C12.2041 5.78438 12.4431 6.38793 12.4627 6.5894C12.4774 6.73922 12.3659 6.76916 12.3434 6.77363L12.2922 6.77474C11.725 6.68713 11.3612 6.74797 11.2107 6.95527C10.887 7.40154 11.5137 8.48551 11.7813 8.94843C11.8497 9.06649 11.899 9.15187 11.9216 9.20455C12.0095 9.41014 12.1241 9.54829 12.2162 9.65932C12.2973 9.75696 12.3675 9.84165 12.3925 9.94102C12.4042 9.96075 12.5696 10.1967 13.551 10.0013C13.7969 9.95243 13.9445 9.99421 13.9896 10.1258C14.0783 10.3845 13.5806 10.6862 13.3051 10.8096C13.0582 10.9203 12.6642 10.9903 12.3232 10.9903ZM11.9055 10.6453C11.9366 10.6756 12.0924 10.7278 12.415 10.7145C12.7018 10.7026 13.0043 10.6425 13.1858 10.5612C13.4179 10.4572 13.5728 10.341 13.6531 10.2616L13.6086 10.2695C12.9811 10.3944 12.5373 10.3778 12.2894 10.22C12.2728 10.2094 12.2567 10.1979 12.2414 10.1856C12.2145 10.1958 12.1897 10.2025 12.172 10.2073C12.0314 10.2453 11.8861 10.2847 11.9055 10.6453ZM7.85201 11.4102C7.69614 11.4102 7.53209 11.3897 7.36457 11.3493C7.191 11.3075 6.89839 11.1814 6.90284 10.9744C6.90791 10.7421 7.25817 10.6724 7.39001 10.6462C7.86633 10.5516 7.89738 10.5137 8.04622 10.3313C8.08964 10.2782 8.14364 10.2121 8.2173 10.1328C8.32664 10.0147 8.44612 9.95492 8.57245 9.95492C8.66044 9.95492 8.73259 9.98366 8.78028 10.0028C8.93223 10.0635 9.059 10.2104 9.11114 10.3861C9.1582 10.5446 9.13569 10.6971 9.04797 10.8156C8.75999 11.2046 8.34639 11.4102 7.85201 11.4102ZM7.2095 10.9861C7.2523 11.018 7.33806 11.0607 7.43352 11.0837C7.57862 11.1187 7.71936 11.1364 7.8521 11.1364C8.25654 11.1364 8.58126 10.975 8.81711 10.6565C8.86631 10.59 8.85154 10.5057 8.83837 10.4613C8.81079 10.3684 8.74229 10.2839 8.67174 10.2557C8.63348 10.2404 8.60172 10.2287 8.57254 10.2287C8.55688 10.2287 8.5092 10.2287 8.42895 10.3153C8.37357 10.3754 8.32034 10.4372 8.26935 10.5008C8.08394 10.7278 7.99898 10.8049 7.4474 10.9145C7.31279 10.9411 7.24375 10.9682 7.2095 10.9861ZM8.30102 10.3546C8.26713 10.3545 8.23438 10.3428 8.20868 10.3215C8.18299 10.3002 8.16604 10.2707 8.1609 10.2384C8.15734 10.2157 8.15496 10.1928 8.15378 10.1699C7.79223 10.1633 7.44339 10.0137 7.17854 9.74718C6.84368 9.41023 6.69128 8.94337 6.7605 8.46638C6.83567 7.94838 6.80756 7.49112 6.79243 7.24546C6.78825 7.17716 6.78523 7.12783 6.78541 7.09368C6.78567 7.05034 6.78656 6.93545 7.18477 6.74076C7.3264 6.67152 7.61038 6.55071 7.9206 6.51973C8.43456 6.4685 8.77334 6.68928 8.87476 7.14147C9.1485 8.3623 8.89647 8.90226 8.7124 9.29662C8.67814 9.37007 8.64576 9.4394 8.61987 9.50659L8.59701 9.56579C8.49977 9.81728 8.4157 10.0345 8.4415 10.1968C8.44433 10.2146 8.4435 10.2327 8.43907 10.2502C8.43463 10.2676 8.42667 10.2841 8.41564 10.2986C8.40461 10.3131 8.39073 10.3253 8.37479 10.3346C8.35884 10.344 8.34115 10.3502 8.32273 10.3529L8.30102 10.3546ZM7.07018 7.1316L7.0757 7.22933C7.09136 7.48452 7.12054 7.95936 7.04154 8.50439C6.98451 8.8978 7.10906 9.28178 7.38343 9.55773C7.60024 9.77584 7.88555 9.89623 8.17878 9.89623H8.18483C8.21766 9.7628 8.27219 9.62191 8.33091 9.47012L8.3536 9.41126C8.38287 9.33541 8.41712 9.26196 8.45342 9.18422C8.63055 8.80462 8.85109 8.33209 8.5971 7.19939C8.54683 6.97501 8.42486 6.84519 8.22442 6.80237C7.81269 6.71468 7.19909 7.01336 7.07018 7.1316ZM7.92692 7.07351C7.9198 7.12191 8.01882 7.25113 8.148 7.26837C8.27691 7.28579 8.38723 7.18471 8.39426 7.13632C8.40128 7.08793 8.30235 7.03456 8.17318 7.01722C8.044 6.99989 7.93377 7.02512 7.92692 7.07351ZM8.17762 7.316L8.14142 7.31359C8.06135 7.30287 7.98039 7.25422 7.92496 7.18334C7.90548 7.15846 7.87372 7.11024 7.88004 7.06716C7.88902 7.00401 7.96891 6.96617 8.09355 6.96617C8.1214 6.96617 8.1504 6.96814 8.17958 6.97209C8.24773 6.98119 8.31098 7.00015 8.35769 7.02529C8.43865 7.06888 8.44461 7.11753 8.44096 7.14267C8.431 7.21243 8.31597 7.316 8.17762 7.316ZM7.97398 7.08158C7.97799 7.11144 8.05467 7.20994 8.15449 7.22324L8.17771 7.22479C8.26988 7.22479 8.33874 7.15485 8.34684 7.13194C8.3383 7.11633 8.27905 7.07754 8.16668 7.06244C8.14248 7.05914 8.11808 7.05745 8.09364 7.05738C8.0214 7.05738 7.98306 7.07308 7.97398 7.08158ZM11.8533 6.97475C11.8603 7.02314 11.7614 7.15237 11.6323 7.1697C11.5033 7.18703 11.3929 7.08604 11.3858 7.03765C11.379 6.98925 11.478 6.9358 11.607 6.91855C11.736 6.90113 11.8462 6.92644 11.8533 6.97475ZM11.6025 7.19441C11.4783 7.19441 11.3711 7.10123 11.3623 7.04073C11.3521 6.96814 11.476 6.91297 11.6036 6.8959C11.6317 6.89212 11.6596 6.89023 11.6863 6.89023C11.7965 6.89023 11.8694 6.92138 11.8767 6.97166C11.8814 7.00418 11.8555 7.05438 11.811 7.09968C11.7815 7.12946 11.7197 7.18103 11.6354 7.19227L11.6025 7.19441ZM11.6864 6.93588C11.6617 6.93588 11.6364 6.93763 11.6103 6.94112C11.4821 6.95836 11.4056 7.00796 11.4093 7.03456C11.4136 7.06382 11.4954 7.14885 11.6026 7.14885L11.629 7.14705C11.6991 7.13769 11.7516 7.09359 11.7767 7.06819C11.8161 7.02829 11.8318 6.99071 11.8299 6.97793C11.8274 6.96094 11.7801 6.93588 11.6864 6.93588ZM12.0392 9.75396C12.0134 9.75398 11.9882 9.74724 11.9662 9.73449C11.9441 9.72173 11.9261 9.70343 11.914 9.68154C11.9019 9.65965 11.8962 9.63501 11.8975 9.61023C11.8988 9.58546 11.907 9.5615 11.9214 9.54091C12.2237 9.10545 12.1683 8.66141 12.1149 8.23196C12.092 8.04902 12.0685 7.85983 12.0746 7.67826C12.0808 7.49147 12.1054 7.33736 12.1292 7.18832C12.1574 7.01173 12.1841 6.84493 12.1731 6.64689C12.1721 6.62894 12.1747 6.61098 12.1809 6.59402C12.1871 6.57707 12.1967 6.56146 12.2092 6.54808C12.2216 6.5347 12.2367 6.52382 12.2535 6.51605C12.2703 6.50829 12.2885 6.50379 12.3071 6.50283C12.3257 6.50186 12.3444 6.50443 12.3619 6.51041C12.3795 6.51638 12.3957 6.52564 12.4096 6.53764C12.4376 6.56189 12.4545 6.59588 12.4565 6.63213C12.4691 6.85849 12.439 7.04726 12.4098 7.22993C12.3873 7.37091 12.364 7.51669 12.3584 7.68701C12.3529 7.84781 12.3742 8.01856 12.3967 8.19927C12.4537 8.65592 12.5182 9.17349 12.1573 9.69321C12.1443 9.71191 12.1267 9.72723 12.1061 9.73782C12.0855 9.74841 12.0625 9.75396 12.0392 9.75396Z" fill="white"/>
</svg>
