<svg width="18" height="18" viewBox="0 0 18 18" fill="none" xmlns="http://www.w3.org/2000/svg">
<rect width="18" height="18" rx="9" fill="#242938"/>
<mask id="mask0_453_112" style="mask-type:luminance" maskUnits="userSpaceOnUse" x="3" y="5" width="12" height="9">
<path d="M3 5H15V14H3V5Z" fill="white"/>
</mask>
<g mask="url(#mask0_453_112)">
<path d="M13.3263 10.1728C12.9078 10.175 12.5442 10.2758 12.2397 10.4248C12.128 10.2035 12.0163 10.0062 11.9965 9.86151C11.9747 9.69274 11.9484 9.58972 11.9747 9.38806C12.001 9.18639 12.1192 8.8993 12.117 8.87738C12.1148 8.85547 12.0907 8.75245 11.8498 8.75023C11.6089 8.74801 11.4007 8.79627 11.3767 8.85985C11.3525 8.92337 11.3065 9.06806 11.2759 9.21713C11.2342 9.43632 10.7939 10.2188 10.542 10.6287C10.4609 10.4687 10.3909 10.3284 10.3755 10.2166C10.3536 10.0479 10.3273 9.94484 10.3536 9.74317C10.3799 9.54151 10.4982 9.25436 10.496 9.23244C10.4938 9.21053 10.4697 9.1075 10.2288 9.10534C9.98777 9.10318 9.77967 9.15133 9.7556 9.21491C9.73149 9.27849 9.70521 9.42756 9.65481 9.57219C9.60447 9.71688 9.01958 11.0233 8.86622 11.3608C8.80426 11.4974 8.73927 11.6326 8.67129 11.7663C8.67129 11.7663 8.66906 11.7729 8.66252 11.7838C8.64114 11.8257 8.61922 11.8674 8.59676 11.9087V11.9109C8.56394 11.9702 8.52884 12.0249 8.51132 12.0249C8.49818 12.0249 8.47412 11.8671 8.51571 11.6523C8.60336 11.1986 8.81145 10.4928 8.80928 10.4687C8.80928 10.4555 8.8487 10.3328 8.67344 10.2692C8.50256 10.2056 8.44124 10.3109 8.42588 10.3109C8.41058 10.3109 8.3996 10.3482 8.3996 10.3482C8.3996 10.3482 8.59022 9.55466 8.036 9.55466C7.68986 9.55466 7.21232 9.93385 6.9758 10.2758C6.70683 10.4222 6.43809 10.5691 6.16958 10.7164C6.04039 10.7887 5.90677 10.861 5.78185 10.929C5.77309 10.9202 5.76434 10.9093 5.75557 10.9005C5.08525 10.1837 3.8454 9.67743 3.89797 8.71517C3.91771 8.36443 4.03819 7.44383 6.27914 6.32595C8.1236 5.41633 9.59133 5.66837 9.84542 6.22731C10.209 7.02519 9.05901 8.50689 7.15322 8.72171C6.42589 8.80281 6.04478 8.52226 5.94841 8.41709C5.84761 8.30746 5.83225 8.30091 5.795 8.32283C5.73368 8.35567 5.77309 8.45431 5.795 8.51128C5.85199 8.66035 6.08635 8.92337 6.48284 9.0527C6.83335 9.1667 7.68548 9.23028 8.71725 8.83133C9.87172 8.38419 10.7742 7.14131 10.5092 6.10021C10.2441 5.04369 8.49164 4.69517 6.83335 5.28479C5.84755 5.63553 4.77859 6.18786 4.00969 6.90681C3.09618 7.76173 2.95165 8.50473 3.0108 8.81596C3.22326 9.9207 4.74571 10.6396 5.35471 11.1723C5.32405 11.1898 5.29555 11.2051 5.27149 11.2183C4.96699 11.3696 3.80599 11.9767 3.51678 12.619C3.18822 13.3467 3.5694 13.8683 3.82129 13.9385C4.60333 14.1555 5.40727 13.7653 5.83885 13.1209C6.27043 12.4764 6.21782 11.6392 6.01843 11.2556C6.01626 11.2507 6.0133 11.2463 6.00967 11.2425C6.08857 11.1964 6.16958 11.1482 6.24848 11.1022C6.39344 11.0164 6.54024 10.9339 6.68876 10.8545C6.61429 11.0584 6.55952 11.3016 6.53323 11.6523C6.50042 12.0645 6.66908 12.5992 6.8903 12.8097C6.98887 12.9017 7.10498 12.9039 7.1795 12.9039C7.43798 12.9039 7.55408 12.6891 7.68332 12.4349C7.841 12.1235 7.98344 11.7619 7.98344 11.7619C7.98344 11.7619 7.80596 12.7395 8.28788 12.7395C8.46314 12.7395 8.64057 12.5116 8.71946 12.3954V12.3976C8.71946 12.3976 8.72384 12.3911 8.73261 12.3757C8.75012 12.3472 8.76104 12.3296 8.76104 12.3296V12.3252C8.83118 12.2025 8.98886 11.9241 9.22328 11.4616C9.52557 10.8655 9.81692 10.1202 9.81692 10.1202C9.81692 10.1202 9.84321 10.3021 9.93299 10.6045C9.98555 10.7821 10.0951 10.9772 10.1828 11.1658C10.1127 11.2644 10.0688 11.3191 10.0688 11.3191L10.0711 11.3214C10.0141 11.3959 9.95278 11.477 9.88486 11.5558C9.64604 11.8408 9.36129 12.1674 9.32186 12.2617C9.27584 12.3735 9.28682 12.4546 9.37443 12.5203C9.43797 12.5686 9.55184 12.5751 9.66795 12.5686C9.88264 12.5532 10.0339 12.5006 10.1083 12.4677C10.2244 12.4261 10.3603 12.3625 10.4872 12.2683C10.7216 12.0951 10.8641 11.8474 10.8509 11.5208C10.8443 11.3411 10.7851 11.1613 10.7129 10.9925C10.7348 10.9619 10.7545 10.9311 10.7764 10.9005C11.1467 10.3591 11.4336 9.76508 11.4336 9.76508C11.4336 9.76508 11.4599 9.947 11.5496 10.2495C11.5935 10.4029 11.6833 10.5695 11.7622 10.7318C11.4139 11.0145 11.1993 11.3433 11.1225 11.558C10.9846 11.957 11.0919 12.1367 11.2956 12.1784C11.3876 12.1981 11.519 12.1543 11.6154 12.1126C11.738 12.0732 11.8827 12.0052 12.0207 11.9044C12.255 11.7312 12.4807 11.4902 12.4676 11.1636C12.461 11.0145 12.4216 10.8676 12.3668 10.7251C12.6625 10.6024 13.0437 10.5344 13.53 10.5914C14.5727 10.7142 14.7787 11.3652 14.7391 11.6392C14.6997 11.9132 14.4807 12.0622 14.4084 12.1083C14.3361 12.1543 14.3121 12.1696 14.3186 12.2025C14.3274 12.2507 14.3624 12.2485 14.4238 12.2398C14.5092 12.2244 14.9713 12.0184 14.9911 11.5142C15.024 10.8698 14.4106 10.1662 13.3263 10.1728ZM5.28241 12.8864C4.93633 13.2634 4.4544 13.4059 4.24627 13.2853C4.02283 13.1559 4.11043 12.5992 4.53547 12.2003C4.79389 11.957 5.12689 11.7312 5.34811 11.5931C5.39851 11.5625 5.47297 11.5187 5.56279 11.4639C5.57816 11.4551 5.58691 11.4507 5.58691 11.4507L5.63948 11.4178C5.795 11.9877 5.64601 12.4897 5.28241 12.8864ZM7.80164 11.1723C7.68116 11.4661 7.42928 12.2178 7.27592 12.1762C7.14451 12.1411 7.06346 11.5712 7.24964 11.0079C7.34384 10.7251 7.54316 10.3876 7.65925 10.2561C7.84766 10.0456 8.05574 9.97552 8.10614 10.061C8.16968 10.1728 7.87616 10.9882 7.80164 11.1723ZM9.88051 12.1674C9.83012 12.1937 9.78195 12.2112 9.76005 12.1981C9.74469 12.1894 9.78195 12.1543 9.78195 12.1543C9.78195 12.1543 10.0426 11.8737 10.1456 11.7466C10.2047 11.672 10.2748 11.5843 10.3493 11.4857V11.5142C10.3493 11.8496 10.0251 12.0754 9.88051 12.1674ZM11.484 11.8014C11.4468 11.7751 11.4534 11.6874 11.5782 11.4134C11.6264 11.306 11.7404 11.1263 11.9353 10.9531C11.9572 11.0233 11.9725 11.0912 11.9703 11.1548C11.9682 11.5779 11.6659 11.7356 11.484 11.8014Z" fill="white"/>
</g>
</svg>
