<svg width="18" height="18" viewBox="0 0 18 18" fill="none" xmlns="http://www.w3.org/2000/svg">
<rect width="18" height="18" rx="9" fill="#d4d4d8"/>
<path fill-rule="evenodd" clip-rule="evenodd" d="M3 8.75289C3 8.82027 3.01978 8.86474 3.03087 8.90797C3.10313 9.18908 3.25844 9.43032 3.44271 9.65038C3.70516 9.96398 4.02659 10.2164 4.35585 10.4538C4.64143 10.6597 4.93284 10.861 5.21957 11.0653C5.26879 11.1004 5.31534 11.1408 5.36877 11.1838C5.32279 11.2087 5.28456 11.2307 5.2448 11.2509C4.86642 11.4433 4.50237 11.6591 4.1668 11.9205C3.96456 12.078 3.76901 12.2455 3.6309 12.4643C3.40868 12.8162 3.33003 13.1912 3.49566 13.5915C3.54402 13.7084 3.61781 13.8095 3.72189 13.8841C3.75563 13.9083 3.79348 13.9322 3.83295 13.9416C3.93407 13.9655 4.0371 13.9811 4.13946 14L4.42935 13.9998C4.74991 13.9712 5.0417 13.861 5.3054 13.6785C5.71752 13.3933 5.99517 13.0109 6.11455 12.5201C6.20133 12.1633 6.20487 11.8062 6.1026 11.4511C6.09278 11.4182 6.08149 11.3858 6.06877 11.3539C6.05634 11.322 6.04172 11.291 6.02452 11.2512L6.6817 10.8722L6.69154 10.8806C6.6796 10.9198 6.66688 10.9589 6.65608 10.9985C6.578 11.2845 6.5261 11.5755 6.54474 11.8723C6.56462 12.1886 6.65264 12.4847 6.8373 12.7489C6.98659 12.9627 7.34232 12.9706 7.50098 12.7561C7.55727 12.6799 7.61185 12.6003 7.65285 12.5153C7.75999 12.2934 7.8592 12.0676 7.96156 11.8433L7.97943 11.8023C7.97208 11.9085 7.96347 12.0017 7.95956 12.0951C7.95344 12.2409 7.96194 12.3858 8.01164 12.5245C8.05418 12.6431 8.12653 12.7318 8.26205 12.7474C8.35476 12.758 8.42864 12.7155 8.49679 12.6615C8.60233 12.5778 8.68983 12.4735 8.75399 12.3549C8.93568 12.0203 9.12224 11.6877 9.28692 11.3447C9.46507 10.9737 9.62086 10.5919 9.78631 10.2145L9.81364 10.1476C9.85273 10.3016 9.87997 10.4525 9.93015 10.5953C9.98845 10.761 10.0606 10.9228 10.1392 11.0801C10.1764 11.1544 10.1721 11.2026 10.1205 11.2649C9.90492 11.5256 9.69302 11.7894 9.48094 12.053C9.43401 12.1112 9.38728 12.1704 9.34818 12.234C9.32447 12.2741 9.30888 12.3185 9.30231 12.3647C9.29573 12.4072 9.30582 12.4506 9.33046 12.4858C9.3551 12.5211 9.39239 12.5453 9.43449 12.5536C9.51947 12.5719 9.6066 12.5781 9.69331 12.5721C9.98931 12.5503 10.2581 12.4461 10.4957 12.2695C10.8035 12.0408 10.9024 11.7288 10.8278 11.3589C10.8076 11.2586 10.772 11.161 10.7373 11.0643C10.7217 11.0207 10.7207 10.9901 10.749 10.9495C10.9952 10.597 11.2054 10.2231 11.401 9.84063C11.4087 9.82558 11.4166 9.81054 11.4302 9.79444C11.4936 10.1251 11.589 10.4438 11.7599 10.7329C11.6727 10.8172 11.5864 10.8936 11.5083 10.9777C11.3364 11.1631 11.1873 11.3644 11.1095 11.6098C11.076 11.7156 11.0503 11.8232 11.0652 11.9362C11.0883 12.1117 11.2317 12.2257 11.4038 12.1858C11.7722 12.1003 12.0902 11.9262 12.3225 11.6179C12.4789 11.4103 12.4931 11.1787 12.4277 10.9361C12.4097 10.8702 12.3884 10.8053 12.3654 10.7297C12.4563 10.7014 12.5449 10.6675 12.6366 10.6465C13.1125 10.5376 13.5832 10.5566 14.0418 10.7289C14.3095 10.8296 14.5258 10.998 14.654 11.2629C14.8107 11.5867 14.7241 11.894 14.4197 12.0987C14.3913 12.1178 14.3588 12.1329 14.3353 12.1567C14.3277 12.1655 14.3221 12.1757 14.3187 12.1868C14.3154 12.1978 14.3143 12.2095 14.3157 12.2209C14.3177 12.2327 14.3487 12.2475 14.3666 12.2473C14.4667 12.2465 14.5478 12.1939 14.6257 12.1398C14.8209 12.0044 14.9633 11.8222 14.994 11.5823L15 11.5643L14.9926 11.4081C14.9897 11.3991 14.9948 11.3902 14.9942 11.3833C14.9527 11.034 14.7666 10.763 14.4959 10.5506C14.1824 10.3048 13.8123 10.2036 13.4208 10.1876C13.1033 10.1739 12.7862 10.2228 12.4875 10.3316C12.4018 10.3628 12.3168 10.3997 12.2306 10.4345C12.219 10.4135 12.2066 10.3934 12.1964 10.3726C12.1079 10.1908 12.0006 10.0172 11.9769 9.80881C11.9601 9.66083 11.9395 9.51303 11.9745 9.36668C12.0083 9.22588 12.0522 9.08748 12.0936 8.94861C12.1149 8.87711 12.0999 8.83704 12.0319 8.80484C12.0081 8.79316 11.9828 8.78484 11.9568 8.78011C11.7895 8.75577 11.6245 8.76966 11.4625 8.81692C11.4052 8.83369 11.3635 8.86589 11.3508 8.92953C11.3435 8.96605 11.3287 9.00103 11.3184 9.03707C11.2761 9.18688 11.246 9.33956 11.1776 9.48227C11.0061 9.84025 10.8104 10.1847 10.6101 10.5267C10.5884 10.5636 10.5655 10.5998 10.5382 10.6446C10.4679 10.497 10.3928 10.3645 10.3701 10.2092C10.3444 10.0337 10.3241 9.85836 10.3677 9.68412C10.4001 9.55415 10.4424 9.42658 10.4814 9.29834C10.4999 9.23739 10.4914 9.20537 10.4363 9.17327C10.4085 9.15707 10.3771 9.14269 10.3457 9.13799C10.1742 9.11179 9.99897 9.12616 9.834 9.17998C9.7821 9.19684 9.75486 9.23048 9.739 9.28416C9.69236 9.44249 9.6526 9.60466 9.58713 9.75523C9.322 10.3648 9.04922 10.9712 8.77673 11.5775C8.71987 11.7041 8.65325 11.8263 8.58912 11.9496C8.57287 11.9808 8.54917 12.0083 8.5289 12.0377C8.51266 12.0184 8.50635 12.0052 8.50644 11.992C8.50692 11.914 8.49765 11.8338 8.51246 11.7585C8.55795 11.5306 8.60823 11.3038 8.66328 11.0781C8.70821 10.8916 8.76049 10.7068 8.81028 10.5215C8.82701 10.4595 8.82729 10.4015 8.78285 10.3494C8.7082 10.2621 8.55222 10.2429 8.45971 10.3102L8.4188 10.3334L8.42673 10.2672C8.44623 10.1255 8.45015 9.98421 8.41135 9.84456C8.36298 9.67051 8.23912 9.57035 8.05905 9.57591C7.97513 9.5785 7.88701 9.59287 7.80931 9.62354C7.48253 9.75198 7.23126 9.97941 7.01736 10.2531C6.99752 10.2784 6.97295 10.2997 6.94501 10.3157C6.66851 10.4695 6.39115 10.6213 6.11388 10.7737L5.80526 10.9432C5.72249 10.8641 5.64728 10.7819 5.56193 10.7122C5.30129 10.4991 5.03645 10.2912 4.77399 10.0804C4.54136 9.89363 4.31599 9.69907 4.14357 9.45169C4.01531 9.26767 3.93263 9.0663 3.9247 8.83877C3.91467 8.54884 3.99667 8.28392 4.14386 8.03732C4.33214 7.72179 4.58896 7.46857 4.87129 7.23922C5.16997 6.99673 5.49302 6.79086 5.82782 6.60291C6.29624 6.34 6.77804 6.10729 7.29463 5.95365C7.82431 5.79609 8.36174 5.7059 8.91608 5.76877C9.134 5.7935 9.3456 5.84353 9.53991 5.9504C9.68872 6.03215 9.81077 6.13921 9.86755 6.30655C9.92355 6.47121 9.92183 6.63808 9.88303 6.80533C9.80418 7.14404 9.61924 7.42324 9.38651 7.67272C9.00478 8.08169 8.53913 8.36012 8.01489 8.54405C7.71347 8.64991 7.39986 8.717 7.08159 8.74369C6.82076 8.76564 6.56538 8.74244 6.31841 8.65149C6.15488 8.5912 6.01247 8.499 5.89797 8.3652C5.87752 8.34124 5.85133 8.31526 5.8132 8.33769C5.77583 8.35974 5.76923 8.39539 5.78175 8.43152C5.80268 8.49152 5.82199 8.55401 5.85458 8.60769C5.93649 8.74235 6.05596 8.84001 6.18747 8.92378C6.44008 9.0849 6.72241 9.13905 7.01516 9.15161C7.4594 9.17087 7.89284 9.10435 8.32016 8.98484C8.93023 8.81423 9.46068 8.5129 9.88609 8.03751C10.2403 7.64167 10.4933 7.19494 10.5475 6.65552C10.574 6.39224 10.5458 6.13432 10.4228 5.89413C10.2895 5.63392 10.0775 5.44041 9.82406 5.30709C9.45494 5.113 9.05658 5 8.64541 5H8.23348C7.73552 5 7.25411 5.1431 6.78616 5.3138C6.43196 5.44309 6.08463 5.59567 5.74744 5.76455C5.01313 6.1325 4.32928 6.57616 3.76757 7.18622C3.48773 7.49014 3.25079 7.8255 3.1145 8.22038C3.07344 8.3383 3.038 8.45811 3.00832 8.57941M5.66907 12.0311C5.63724 12.4584 5.44408 12.8049 5.12839 13.0855C4.95081 13.2433 4.74714 13.3556 4.50992 13.3951C4.4239 13.4094 4.33587 13.4129 4.25243 13.3771C4.13344 13.3261 4.10677 13.2202 4.10448 13.1074C4.10094 12.9276 4.16374 12.765 4.24985 12.6103C4.36225 12.4087 4.52702 12.255 4.70298 12.1114C4.98015 11.8851 5.28084 11.6936 5.58878 11.5128L5.61201 11.5032C5.6596 11.6796 5.68226 11.8538 5.66907 12.0311ZM8.07358 10.1737C8.05112 10.3102 8.02302 10.4468 7.98326 10.579C7.84582 11.0369 7.66929 11.4805 7.47842 11.9183C7.44316 11.9992 7.39183 12.0731 7.3472 12.1499C7.33959 12.1617 7.3305 12.1725 7.32015 12.1819C7.26491 12.2367 7.21253 12.2338 7.18462 12.1622C7.15213 12.079 7.13215 11.9899 7.11495 11.9019C7.10338 11.8427 7.10615 11.7806 7.10252 11.72C7.10625 11.2893 7.23728 10.8979 7.4596 10.5335C7.55125 10.3832 7.65103 10.24 7.80348 10.1449C7.85092 10.1154 7.90223 10.0926 7.95592 10.0773C8.03716 10.0544 8.08705 10.092 8.07358 10.1737ZM9.71405 12.2696L10.3037 11.5793C10.3282 11.8356 9.89364 12.3474 9.71405 12.2696ZM11.5972 11.8051C11.5555 11.829 11.5101 11.8463 11.4674 11.8684C11.4283 11.8887 11.4154 11.8682 11.4143 11.8345C11.4137 11.8111 11.4167 11.7878 11.4231 11.7654C11.5028 11.4838 11.6493 11.2434 11.8673 11.0479L11.8826 11.04C11.9863 11.3309 11.8664 11.6504 11.5972 11.8051Z" fill="#CB6699"/>
</svg>
