<svg width="18" height="18" viewBox="0 0 18 18" fill="none" xmlns="http://www.w3.org/2000/svg">
<rect width="18" height="18" rx="9" fill="#d4d4d8"/>
<path fill-rule="evenodd" clip-rule="evenodd" d="M6 7.4C6.4 5.8 7.4 5 9 5C11.4 5 11.7 6.8 12.9 7.1C13.7 7.30009 14.4 7.00009 15 6.2C14.6 7.8 13.6 8.6 12 8.6C9.6 8.6 9.3 6.8 8.1 6.5C7.3 6.3 6.6 6.6 6 7.4ZM3 11C3.4 9.4 4.4 8.6 6 8.6C8.4 8.6 8.7 10.4 9.9 10.7C10.7 10.9001 11.4 10.6001 12 9.8C11.6 11.4 10.6 12.2 9 12.2C6.6 12.2 6.3 10.4 5.1 10.1C4.3 9.89991 3.6 10.1999 3 11Z" fill="url(#paint0_linear_453_274)"/>
<defs>
<linearGradient id="paint0_linear_453_274" x1="6.23333" y1="5" x2="11.3667" y2="12.4333" gradientUnits="userSpaceOnUse">
<stop stop-color="#32B1C1"/>
<stop offset="1" stop-color="#14C6B7"/>
</linearGradient>
</defs>
</svg>
