<svg width="18" height="18" viewBox="0 0 18 18" fill="none" xmlns="http://www.w3.org/2000/svg">
<path d="M0 0H15.12C15.8838 0 16.6164 0.303428 17.1565 0.843532C17.6966 1.38364 18 2.11618 18 2.88V15.12C18 15.8838 17.6966 16.6164 17.1565 17.1565C16.6164 17.6966 15.8838 18 15.12 18H2.88C2.11618 18 1.38364 17.6966 0.843532 17.1565C0.303428 16.6164 0 15.8838 0 15.12V0Z" fill="#663399"/>
<path d="M4.55402 14.7061V11.6821C4.55402 10.4761 5.32802 9.82806 6.49802 9.82806C7.65002 9.81006 8.37002 10.5661 8.33402 11.8441H7.00202C7.03802 11.3581 6.82202 10.9981 6.46202 11.0161C6.01202 11.0161 5.88602 11.3221 5.88602 11.8981V14.5261C5.88602 15.0841 6.06602 15.3541 6.46202 15.3721C6.87602 15.3721 7.03802 14.9581 7.00202 14.4901H8.33402C8.40602 15.8041 7.57802 16.5781 6.40802 16.5601C5.27402 16.5601 4.55402 15.9301 4.55402 14.7061ZM8.82002 14.4901H10.062C10.08 15.0661 10.26 15.4261 10.656 15.4261C11.052 15.4261 11.196 15.1921 11.196 14.6521C11.196 14.2021 10.998 13.9501 10.512 13.7161L10.044 13.5001C9.21602 13.1041 8.87402 12.6181 8.87402 11.6461C8.87402 10.5661 9.55802 9.81006 10.674 9.81006C11.79 9.81006 12.384 10.5841 12.402 11.8441H11.196C11.196 11.3221 11.088 10.9621 10.692 10.9621C10.332 10.9621 10.152 11.1421 10.152 11.5921C10.152 12.0421 10.314 12.2221 10.746 12.4021L11.178 12.6001C12.096 13.0321 12.492 13.5901 12.492 14.6341C12.492 15.8761 11.79 16.5601 10.638 16.5601C9.48602 16.5601 8.83802 15.7681 8.82002 14.4901ZM12.888 14.4901H14.148C14.148 15.0661 14.346 15.4261 14.724 15.4261C15.102 15.4261 15.264 15.1921 15.264 14.6521C15.264 14.2021 15.084 13.9501 14.58 13.7161L14.112 13.5001C13.284 13.1041 12.96 12.6181 12.96 11.6461C12.96 10.5661 13.626 9.81006 14.76 9.81006C15.894 9.81006 16.452 10.5841 16.488 11.8441H15.282C15.264 11.3221 15.156 10.9621 14.76 10.9621C14.4 10.9621 14.238 11.1421 14.238 11.5921C14.238 12.0421 14.382 12.2221 14.814 12.4021L15.264 12.6001C16.164 13.0321 16.56 13.5901 16.56 14.6341C16.56 15.8761 15.858 16.5601 14.706 16.5601C13.554 16.5601 12.906 15.7681 12.888 14.4901Z" fill="white"/>
</svg>
