<svg width="18" height="18" viewBox="0 0 18 18" fill="none" xmlns="http://www.w3.org/2000/svg">
<path d="M4 13.35V7.70036C4 7.53396 4.03768 7.37645 4.11303 7.22782C4.18838 7.07919 4.29221 6.95678 4.42451 6.86058L7.96323 4.20995C8.14854 4.06998 8.36014 4 8.59803 4C8.83591 4 9.04883 4.06998 9.23677 4.20995L12.7755 6.85993C12.9082 6.95613 13.0121 7.07876 13.087 7.22782C13.1623 7.37645 13.2 7.53396 13.2 7.70036V13.35C13.2 13.5242 13.1345 13.6761 13.0035 13.8057C12.8725 13.9352 12.719 14 12.5429 14H10.3191C10.1684 14 10.0422 13.9497 9.94057 13.8492C9.83893 13.7482 9.78811 13.6234 9.78811 13.4748V10.375C9.78811 10.2264 9.7373 10.1018 9.63566 10.0013C9.53358 9.90034 9.40741 9.84985 9.25714 9.84985H7.94286C7.79259 9.84985 7.66664 9.90034 7.565 10.0013C7.46292 10.1018 7.41189 10.2264 7.41189 10.375V13.4755C7.41189 13.6241 7.36107 13.7487 7.25943 13.8492C7.15779 13.9497 7.03184 14 6.88157 14H4.65714C4.48103 14 4.32748 13.9352 4.19649 13.8057C4.0655 13.6761 4 13.5242 4 13.35Z" fill="#242938"/>
</svg>
