<svg width="18" height="18" viewBox="0 0 18 18" fill="none" xmlns="http://www.w3.org/2000/svg">
<path d="M13.7812 0H4.21875C1.8888 0 0 1.8888 0 4.21875V13.7812C0 16.1112 1.8888 18 4.21875 18H13.7812C16.1112 18 18 16.1112 18 13.7812V4.21875C18 1.8888 16.1112 0 13.7812 0Z" fill="#F0DB4F"/>
<path d="M4.73286 15.0421L6.11028 14.2085C6.37606 14.6796 6.6178 15.0783 7.19766 15.0783C7.75348 15.0783 8.10392 14.8609 8.10392 14.0152V8.26374H9.7955V14.0391C9.7955 15.791 8.76852 16.5885 7.27016 16.5885C5.91699 16.5885 5.13153 15.8877 4.73279 15.0419M10.7143 14.8608L12.0916 14.0634C12.4542 14.6555 12.9254 15.0905 13.759 15.0905C14.46 15.0905 14.9069 14.74 14.9069 14.2567C14.9069 13.6767 14.4477 13.4713 13.6744 13.1331L13.2516 12.9518C12.0312 12.4323 11.2216 11.7798 11.2216 10.4024C11.2216 9.13365 12.1883 8.16699 13.6987 8.16699C14.774 8.16699 15.5473 8.54162 16.1031 9.5203L14.7861 10.3661C14.496 9.84655 14.182 9.64116 13.6987 9.64116C13.2033 9.64116 12.8891 9.95532 12.8891 10.3661C12.8891 10.8735 13.2033 11.079 13.9282 11.3932L14.351 11.5744C15.7889 12.1907 16.5984 12.8189 16.5984 14.2325C16.5984 15.755 15.4023 16.5887 13.7953 16.5887C12.2246 16.5887 11.2096 15.8396 10.7143 14.8608Z" fill="#323330"/>
</svg>
