<svg width="18" height="18" viewBox="0 0 18 18" fill="none" xmlns="http://www.w3.org/2000/svg">
<path d="M7.12498 6H7.87498C8.2728 6 8.65433 6.15804 8.93564 6.43934C9.21694 6.72064 9.37498 7.10218 9.37498 7.5M9.37498 7.5V8.25M9.37498 7.5C9.37498 7.30109 9.45399 7.11032 9.59465 6.96967C9.7353 6.82902 9.92606 6.75 10.125 6.75C10.5228 6.75 10.9043 6.90804 11.1856 7.18934C11.4669 7.47064 11.625 7.85218 11.625 8.25M11.625 8.25V9M11.625 8.25C11.625 7.857 11.9775 7.5585 12.3652 7.623L12.6217 7.6665C12.9718 7.72489 13.2899 7.90554 13.5194 8.17635C13.7488 8.44715 13.8748 8.79055 13.875 9.1455V10.2502C13.875 11.88 13.875 12.6952 13.6267 13.344C13.4827 13.7205 13.1025 14.2005 12.7987 14.547C12.5314 14.8438 12.3808 15.2276 12.375 15.627V16.5M7.12498 7.5V2.625C7.12498 2.32663 7.00645 2.04048 6.79547 1.8295C6.58449 1.61853 6.29834 1.5 5.99998 1.5C5.70161 1.5 5.41546 1.61853 5.20448 1.8295C4.9935 2.04048 4.87498 2.32663 4.87498 2.625V10.0965L3.65998 8.87775C3.53434 8.75156 3.38342 8.65338 3.21714 8.58966C3.05086 8.52594 2.87297 8.49812 2.69518 8.50804C2.51738 8.51796 2.3437 8.56538 2.18553 8.6472C2.02737 8.72901 1.8883 8.84337 1.77748 8.98275C1.60216 9.20261 1.50464 9.47437 1.50016 9.75553C1.49568 10.0367 1.5845 10.3114 1.75273 10.5367L4.45273 13.9852C4.96948 14.6452 5.24998 15.6623 5.24998 16.5M11.25 3.375H15.75M11.25 3.375C11.25 2.85 12.7455 1.869 13.125 1.5M11.25 3.375C11.25 3.9 12.7455 4.881 13.125 5.25" stroke="white" stroke-width="1.125" stroke-linecap="round" stroke-linejoin="round"/>
</svg>
