<svg width="18" height="18" viewBox="0 0 18 18" fill="none" xmlns="http://www.w3.org/2000/svg">
<path d="M13.7812 0H4.21875C1.8888 0 0 1.8888 0 4.21875V13.7812C0 16.1112 1.8888 18 4.21875 18H13.7812C16.1112 18 18 16.1112 18 13.7812V4.21875C18 1.8888 16.1112 0 13.7812 0Z" fill="none"/>
<path d="M8.42889 2.18785C8.77476 1.98992 9.22518 1.98901 9.5707 2.18785C11.309 3.17012 13.0478 4.15077 14.7858 5.1336C15.1127 5.31774 15.3313 5.68154 15.328 6.0582V11.9676C15.3305 12.3599 15.0902 12.7324 14.7453 12.9123C13.0128 13.8892 11.2811 14.8672 9.54876 15.844C9.19586 16.0458 8.73637 16.0303 8.39437 15.8119C7.87497 15.5108 7.35466 15.2111 6.83519 14.9103C6.72902 14.8471 6.60935 14.7967 6.53439 14.6938C6.6007 14.6045 6.71918 14.5934 6.81543 14.5543C7.03221 14.4854 7.2314 14.3747 7.43053 14.2673C7.48094 14.2329 7.5424 14.2461 7.5907 14.2769C8.03486 14.5316 8.47516 14.7937 8.9208 15.0459C9.01586 15.1008 9.11212 15.0279 9.1934 14.9826C10.8936 14.0217 12.5958 13.0644 14.2958 12.1032C14.3588 12.0729 14.3936 12.006 14.3884 11.937C14.3896 9.98762 14.3887 8.03792 14.3891 6.08844C14.3962 6.01025 14.351 5.93825 14.2802 5.90619C12.5536 4.93384 10.8279 3.96008 9.10164 2.98752C9.07174 2.96697 9.03632 2.95594 9.00003 2.95588C8.96374 2.95581 8.92828 2.96672 8.8983 2.98717C7.17199 3.96008 5.44666 4.93482 3.72035 5.90703C3.64982 5.93917 3.6025 6.00997 3.61087 6.08844C3.61122 8.03792 3.61087 9.98762 3.61087 11.9373C3.60786 11.971 3.61525 12.0048 3.63204 12.0341C3.64884 12.0635 3.67424 12.087 3.70481 12.1014C4.16543 12.3626 4.62668 12.622 5.08765 12.8824C5.34738 13.0221 5.66618 13.1052 5.95235 12.9981C6.20477 12.9076 6.38175 12.6499 6.37697 12.3818C6.37936 10.4438 6.37577 8.5055 6.37872 6.56769C6.3724 6.4817 6.45403 6.41061 6.5377 6.41877C6.75904 6.41722 6.98067 6.41574 7.20201 6.41933C7.2944 6.41722 7.35797 6.50989 7.34657 6.59652C7.34566 8.54685 7.34897 10.4972 7.3451 12.4474C7.34566 12.9673 7.13212 13.5328 6.65132 13.7872C6.05908 14.0939 5.32699 14.0289 4.74185 13.7347C4.23532 13.4819 3.75185 13.1835 3.25432 12.9126C2.90852 12.7337 2.66946 12.3597 2.67192 11.9677V6.0582C2.66826 5.67374 2.89565 5.30333 3.23266 5.12185C4.96495 4.1443 6.69696 3.1659 8.42889 2.18785Z" fill="#81CD39"/>
<path d="M9.94019 6.28148C10.6957 6.23283 11.5045 6.25265 12.1844 6.62489C12.7108 6.91008 13.0026 7.50872 13.0119 8.09351C12.9972 8.17233 12.9147 8.21585 12.8394 8.21044C12.6202 8.21015 12.4009 8.21346 12.1818 8.20896C12.0887 8.21254 12.0347 8.12683 12.0231 8.04464C11.9601 7.76479 11.8074 7.48769 11.5441 7.35269C11.1398 7.15033 10.6711 7.16053 10.2302 7.16475C9.90841 7.18176 9.56233 7.20968 9.28966 7.39889C9.08034 7.54226 9.01678 7.83166 9.09145 8.06475C9.1619 8.23209 9.35505 8.28609 9.51311 8.33587C10.4237 8.57402 11.3885 8.55026 12.2815 8.86364C12.6514 8.9914 13.0131 9.23981 13.1396 9.62695C13.3052 10.1459 13.2326 10.766 12.8634 11.1825C12.564 11.5253 12.128 11.7119 11.6932 11.8132C11.1146 11.9423 10.5142 11.9456 9.92669 11.8883C9.37425 11.8253 8.7993 11.6801 8.37285 11.3038C8.00814 10.9871 7.83004 10.4936 7.84769 10.0175C7.85191 9.93703 7.932 9.88092 8.00906 9.88753C8.22977 9.88577 8.45055 9.88514 8.67126 9.88788C8.75943 9.88155 8.82482 9.95777 8.82932 10.0409C8.87003 10.3074 8.97023 10.5873 9.20268 10.7453C9.65135 11.0347 10.2143 11.0149 10.728 11.023C11.1536 11.0042 11.6313 10.9985 11.9787 10.7171C12.1619 10.5567 12.2162 10.2882 12.1667 10.0573C12.1131 9.86236 11.9091 9.77151 11.7339 9.7121C10.8351 9.42783 9.85947 9.53097 8.96939 9.20944C8.60798 9.08175 8.25853 8.84029 8.11973 8.46904C7.92602 7.9436 8.01475 7.29363 8.42264 6.89123C8.82032 6.4908 9.39435 6.33661 9.94019 6.28148Z" fill="#81CD39"/>
</svg>
