<svg width="18" height="18" viewBox="0 0 18 18" fill="none" xmlns="http://www.w3.org/2000/svg">
<path d="M5.75 6.5C5.55109 6.5 5.36032 6.42098 5.21967 6.28033C5.07902 6.13968 5 5.94891 5 5.75C5 5.55109 5.07902 5.36032 5.21967 5.21967C5.36032 5.07902 5.55109 5 5.75 5C5.94891 5 6.13968 5.07902 6.28033 5.21967C6.42098 5.36032 6.5 5.55109 6.5 5.75C6.5 5.94891 6.42098 6.13968 6.28033 6.28033C6.13968 6.42098 5.94891 6.5 5.75 6.5ZM13.705 8.79L9.205 4.29C9.025 4.11 8.775 4 8.5 4H5C4.445 4 4 4.445 4 5V8.5C4 8.775 4.11 9.025 4.295 9.205L8.79 13.705C8.975 13.885 9.225 14 9.5 14C9.775 14 10.025 13.885 10.205 13.705L13.705 10.205C13.89 10.025 14 9.775 14 9.5C14 9.22 13.885 8.97 13.705 8.79Z" fill="#242938"/>
</svg>
