<svg width="18" height="18" viewBox="0 0 18 18" fill="none" xmlns="http://www.w3.org/2000/svg">
<path d="M5.37568 5.42857H3.42151C3.19697 5.42857 2.97242 5.65714 3.00277 6.02857L3.9495 13.1643C3.9495 13.1643 5.07224 7.90714 5.29071 6.64286C5.35747 6.26429 5.66091 6.14286 5.88546 6.14286H9.01697C9.01697 6.14286 8.59216 4.65714 8.54967 4.49286C8.47685 4.17857 8.34333 4 8.07631 4H6.06752C5.84905 4 5.64271 4.16429 5.58202 4.45714C5.5274 4.74286 5.37568 5.42857 5.37568 5.42857ZM8.33727 5.42857H5.90973C5.90973 5.42857 6.16462 4.71429 6.43772 4.71429H7.73038C8.02169 4.71429 8.33727 5.42857 8.33727 5.42857ZM4.56852 13.4643C4.38039 13.8 4.10729 14 3.80385 14H13.3501C13.6778 14 13.9084 13.7786 13.9752 13.4071C14.2422 11.8429 14.9948 7.37857 14.9948 7.37857C15.0373 7.02143 14.8127 6.85714 14.6185 6.85714H12.6583V5.80714C12.6583 5.69286 12.5005 5.42857 12.2577 5.42857H9.97585C9.66027 5.42857 9.44786 5.84286 9.44786 5.84286L9.01697 6.85714H6.34062C6.14642 6.85714 5.95829 6.99286 5.92187 7.21429C5.92187 7.21429 4.95693 12 4.87803 12.45C4.83555 12.7143 4.74452 13.1571 4.56852 13.4643ZM12.282 6.85714H9.62386C9.62386 6.85714 9.97585 6.14286 10.3096 6.14286H11.6994C12.1303 6.14286 12.282 6.85714 12.282 6.85714Z" fill="#242938"/>
</svg>
