<svg width="18" height="18" viewBox="0 0 18 18" fill="none" xmlns="http://www.w3.org/2000/svg">
<g clip-path="url(#clip0_389_53)">
<path d="M17.3896 10.7786C17.2849 10.4617 17.0108 10.2409 16.6562 10.1879C16.489 10.163 16.2976 10.1736 16.071 10.2203C15.6761 10.3018 15.3831 10.3328 15.1693 10.3388C15.9764 8.97619 16.6326 7.42232 17.0104 5.95962C17.6213 3.59446 17.2949 2.51698 16.9134 2.02962C15.9038 0.73962 14.4309 0.0466203 12.654 0.0254157C11.706 0.0138248 10.8739 0.200984 10.4397 0.335575C10.0356 0.264257 9.60098 0.224438 9.14498 0.217075C8.29018 0.203438 7.53493 0.389779 6.88959 0.772757C6.53232 0.651938 5.95891 0.48162 5.29673 0.372938C3.73932 0.117257 2.48409 0.316484 1.56595 0.965098C0.454182 1.75042 -0.0612043 3.11487 0.0341139 5.02055C0.0643866 5.6256 0.402841 7.46651 0.93575 9.21237C1.24202 10.2159 1.56861 11.0492 1.90645 11.6894C2.38557 12.5973 2.89823 13.1319 3.47375 13.3239C3.79632 13.4313 4.38241 13.5066 4.99884 12.9932C5.07698 13.0878 5.18123 13.1818 5.31957 13.2692C5.49527 13.38 5.71011 13.4705 5.92468 13.5242C6.69793 13.7175 7.42223 13.6691 8.04016 13.3982C8.04398 13.5081 8.04691 13.6131 8.04936 13.7038C8.05346 13.8508 8.05755 13.9951 8.06293 14.1299C8.09955 15.0418 8.16159 15.7508 8.34541 16.2469C8.3555 16.2742 8.36907 16.3158 8.38339 16.3599C8.47509 16.6406 8.62843 17.1107 9.01857 17.4788C9.42255 17.8601 9.91121 17.9771 10.3588 17.9771C10.5832 17.9771 10.7974 17.9476 10.9852 17.9074C11.6547 17.7639 12.4152 17.5453 12.9653 16.762C13.4854 16.0216 13.7382 14.9063 13.7839 13.1491C13.7898 13.0993 13.7954 13.0519 13.8006 13.0067L13.8115 12.9138L13.934 12.9246L13.9656 12.9267C14.6475 12.9578 15.4814 12.8132 15.9935 12.5753C16.3982 12.3875 17.6949 11.7029 17.3896 10.7786Z" fill="black"/>
<path d="M16.2236 10.9583C14.1958 11.3766 14.0564 10.6901 14.0564 10.6901C16.1973 7.51332 17.0923 3.48084 16.32 2.49391C14.213 -0.198251 10.5656 1.07498 10.5047 1.10798L10.4851 1.11152C10.0845 1.02834 9.63618 0.97884 9.13225 0.97059C8.2148 0.95559 7.5188 1.21114 6.99066 1.61164C6.99066 1.61164 0.484071 -1.06886 0.78673 4.98282C0.851094 6.27023 2.632 14.7242 4.75614 12.1707C5.53253 11.2369 6.28273 10.4475 6.28273 10.4475C6.65528 10.695 7.10132 10.8212 7.56891 10.7759L7.60525 10.7451C7.59393 10.861 7.59912 10.9744 7.61978 11.1086C7.07255 11.72 7.23339 11.8273 6.13948 12.0525C5.03255 12.2807 5.6828 12.6867 6.10737 12.793C6.62207 12.9216 7.8128 13.104 8.61734 11.9777L8.5853 12.1062C8.79966 12.2779 8.95021 13.2232 8.92498 14.0802C8.89975 14.9371 8.88291 15.5254 9.0518 15.985C9.22082 16.4445 9.38916 17.4785 10.8273 17.1704C12.0288 16.9129 12.6515 16.2456 12.7382 15.1324C12.7996 14.3411 12.9388 14.4581 12.9475 13.7506L13.0591 13.4157C13.1878 12.343 13.0796 11.9969 13.8198 12.1579L13.9998 12.1737C14.5446 12.1984 15.2578 12.086 15.6763 11.8915C16.5776 11.4732 17.1121 10.7749 16.2234 10.9583H16.2236Z" fill="#336791"/>
<path d="M7.37156 5.55847C7.18883 5.53303 7.02336 5.55656 6.93963 5.61997C6.89258 5.65562 6.87799 5.69694 6.87404 5.72537C6.86354 5.80072 6.91631 5.88403 6.94877 5.92699C7.04054 6.04862 7.17459 6.13222 7.30727 6.15062C7.32649 6.15331 7.34563 6.15462 7.36468 6.15458C7.58593 6.15458 7.78713 5.98228 7.80486 5.85512C7.82702 5.69585 7.59581 5.58962 7.37156 5.55847ZM13.425 5.56351C13.4076 5.43867 13.1854 5.40308 12.9746 5.4324C12.7641 5.46172 12.5599 5.55676 12.577 5.68187C12.5906 5.77917 12.7663 5.94526 12.9743 5.94526C12.9919 5.94526 13.0096 5.94403 13.0274 5.94158C13.1663 5.92235 13.2681 5.83419 13.3165 5.7834C13.3902 5.70594 13.4329 5.61962 13.425 5.56351Z" fill="white"/>
<path d="M16.8983 10.9108C16.821 10.677 16.5721 10.6018 16.1586 10.6872C14.931 10.9405 14.4914 10.765 14.3471 10.6587C15.3013 9.20511 16.0862 7.44792 16.5097 5.80849C16.7103 5.0319 16.8211 4.31067 16.8302 3.72281C16.8402 3.07761 16.7303 2.60347 16.5036 2.31383C15.5899 1.14622 14.2487 0.519902 12.6253 0.50272C11.5093 0.490175 10.5663 0.775788 10.3835 0.856106C9.99856 0.760379 9.5789 0.701606 9.12201 0.694106C8.28419 0.680538 7.55997 0.881129 6.96037 1.29002C6.69992 1.19306 6.02683 0.961993 5.20367 0.829379C3.78058 0.600288 2.64972 0.773879 1.84272 1.34558C0.879783 2.02781 0.435238 3.24731 0.521352 4.97013C0.550329 5.54974 0.880602 7.33283 1.40178 9.04045C2.08783 11.288 2.8336 12.5603 3.61824 12.8221C3.71008 12.8527 3.81597 12.8741 3.93276 12.8741C4.21899 12.8741 4.56992 12.7451 4.93503 12.3062C5.38037 11.7719 5.84104 11.2507 6.31647 10.743C6.62492 10.9086 6.96378 11.001 7.31035 11.0103C7.31108 11.0194 7.31187 11.0284 7.31274 11.0374C7.25308 11.1086 7.19467 11.1807 7.13751 11.2539C6.89737 11.5587 6.8474 11.6222 6.07442 11.7814C5.85453 11.8268 5.27056 11.9471 5.26197 12.3565C5.25269 12.8037 5.95231 12.9916 6.03201 13.0115C6.30978 13.081 6.5774 13.1153 6.8326 13.1153C7.45326 13.1153 7.99947 12.9113 8.43597 12.5166C8.42253 14.1111 8.48901 15.6823 8.68047 16.161C8.83728 16.5529 9.22033 17.5107 10.4303 17.5106C10.6078 17.5106 10.8032 17.4899 11.0182 17.4439C12.281 17.1732 12.8294 16.615 13.0415 15.3846C13.155 14.7269 13.3498 13.1567 13.4415 12.3143C13.6348 12.3747 13.8838 12.4023 14.1529 12.4022C14.7141 12.4022 15.3618 12.283 15.768 12.0944C16.2242 11.8825 17.0476 11.3626 16.8983 10.9108ZM13.8911 5.21899C13.8869 5.46765 13.8527 5.6934 13.8164 5.92904C13.7773 6.18247 13.737 6.44449 13.7268 6.76256C13.7168 7.07211 13.7554 7.39392 13.7928 7.70517C13.8684 8.33381 13.9459 8.98099 13.6458 9.61958C13.596 9.53123 13.5516 9.43995 13.5129 9.34624C13.4756 9.25583 13.3946 9.11061 13.2824 8.90961C12.8461 8.12715 11.8244 6.29483 12.3474 5.54715C12.5032 5.32461 12.8986 5.09579 13.8911 5.21899ZM12.6881 1.00624C14.1426 1.03836 15.2933 1.58252 16.1079 2.62352C16.7327 3.42199 16.0447 7.0552 14.0529 10.1896C14.0329 10.1641 14.0128 10.1387 13.9925 10.1134L13.9673 10.0819C14.482 9.2319 14.3814 8.39088 14.2918 7.64524C14.2549 7.33924 14.2202 7.05022 14.229 6.77872C14.2382 6.49099 14.2762 6.24417 14.313 6.00554C14.3582 5.71147 14.4043 5.40717 14.3916 5.04847C14.4011 5.01083 14.4049 4.96638 14.3999 4.91361C14.3675 4.56963 13.9748 3.54015 13.1743 2.60838C12.7365 2.09872 12.0979 1.52838 11.2261 1.1437C11.6011 1.06597 12.1139 0.993493 12.6881 1.00624ZM4.54865 11.9849C4.14637 12.4686 3.8686 12.3758 3.77724 12.3454C3.18201 12.1469 2.49133 10.8888 1.8824 8.89379C1.35549 7.16756 1.04758 5.43172 1.02317 4.94497C0.946261 3.40556 1.31942 2.33272 2.13235 1.75617C3.45535 0.817993 5.63049 1.37954 6.50451 1.66433C6.49197 1.67674 6.47887 1.68833 6.46647 1.70095C5.03219 3.1494 5.06622 5.62413 5.06976 5.77542C5.06962 5.83379 5.07453 5.91642 5.08122 6.03008C5.1059 6.44633 5.15185 7.22102 5.02912 8.09831C4.91512 8.91356 5.16644 9.71149 5.71851 10.2876C5.77515 10.3466 5.8347 10.4028 5.89694 10.4558C5.65122 10.719 5.11715 11.301 4.54865 11.9849ZM6.08131 9.9399C5.63635 9.47558 5.43426 8.82977 5.52678 8.16786C5.65633 7.24113 5.60853 6.43399 5.58283 6.00036C5.57922 5.93967 5.57601 5.88649 5.57417 5.84456C5.78369 5.65877 6.75467 5.13854 7.44712 5.2972C7.76308 5.36954 7.95562 5.58472 8.03567 5.95481C8.44994 7.87092 8.09049 8.66954 7.80167 9.31133C7.74215 9.44354 7.6859 9.56852 7.6379 9.69779L7.60067 9.79774C7.50644 10.0504 7.41876 10.2854 7.36442 10.5085C6.89137 10.5071 6.43122 10.305 6.08131 9.93983M6.15392 12.5239C6.01578 12.4894 5.89156 12.4295 5.81867 12.3798C5.87956 12.3512 5.9879 12.3122 6.17581 12.2734C7.08515 12.0863 7.2256 11.9541 7.53228 11.5647C7.60258 11.4754 7.68228 11.3742 7.79267 11.251L7.79281 11.2508C7.95719 11.0667 8.0324 11.098 8.16876 11.1546C8.27928 11.2002 8.38694 11.3388 8.43058 11.4912C8.45124 11.5632 8.47442 11.6999 8.39853 11.8062C7.7579 12.7032 6.82435 12.6917 6.15392 12.5239ZM10.9129 16.9525C9.80049 17.1908 9.4066 16.6232 9.14703 15.9743C8.97951 15.5554 8.89715 13.6664 8.95558 11.5802C8.95633 11.5525 8.95237 11.5257 8.94474 11.5004C8.93792 11.4506 8.92753 11.4014 8.91365 11.353C8.82678 11.0495 8.61508 10.7956 8.3611 10.6903C8.26019 10.6485 8.07501 10.5718 7.85247 10.6287C7.89992 10.4332 7.98222 10.2124 8.07147 9.97324L8.1089 9.87267C8.15103 9.75929 8.20394 9.64181 8.25985 9.51745C8.5621 8.84599 8.97603 7.92629 8.52678 5.84858C8.35851 5.07036 7.79656 4.69031 6.94469 4.77861C6.43401 4.83145 5.96676 5.03749 5.73372 5.15565C5.6836 5.18102 5.63778 5.20556 5.59497 5.22942C5.66001 4.44533 5.90574 2.97997 6.82497 2.05283C7.40376 1.4692 8.17456 1.18092 9.11369 1.19647C10.9641 1.22674 12.1508 2.17638 12.8205 2.96777C13.3976 3.64965 13.71 4.33658 13.8347 4.70708C12.8969 4.6117 12.2591 4.79681 11.9357 5.25908C11.2323 6.26463 12.3206 8.21627 12.8436 9.15424C12.9395 9.32613 13.0223 9.4747 13.0483 9.53783C13.2186 9.95061 13.4391 10.2262 13.6001 10.4273C13.6495 10.489 13.6974 10.5488 13.7338 10.601C13.4497 10.6829 12.9395 10.8721 12.986 11.8178C12.9485 12.2924 12.6819 14.5142 12.5464 15.2991C12.3675 16.3362 11.9859 16.7224 10.9129 16.9525ZM15.5564 11.6387C15.2659 11.7735 14.7799 11.8746 14.3181 11.8964C13.8081 11.9202 13.5485 11.8392 13.4874 11.7894C13.4588 11.2 13.6781 11.1385 13.9103 11.0733C13.9468 11.0631 13.9824 11.053 14.0167 11.041C14.038 11.0584 14.0615 11.0756 14.0871 11.0926C14.497 11.3631 15.2281 11.3923 16.2603 11.1792L16.2716 11.177C16.1324 11.3072 15.8942 11.4818 15.5564 11.6387Z" fill="white"/>
</g>
<defs>
<clipPath id="clip0_389_53">
<rect width="17.46" height="18" fill="white"/>
</clipPath>
</defs>
</svg>
