<svg width="16" height="14" viewBox="0 0 16 14" fill="none" xmlns="http://www.w3.org/2000/svg">
<path d="M8 8.3916C8.77665 8.3916 9.40625 7.762 9.40625 6.98535C9.40625 6.2087 8.77665 5.5791 8 5.5791C7.22335 5.5791 6.59375 6.2087 6.59375 6.98535C6.59375 7.762 7.22335 8.3916 8 8.3916Z" fill="#00D8FF"/>
<path d="M8 10.2097C6.30977 10.2504 4.62379 10.0226 3.005 9.53466C2.25722 9.29761 1.55979 8.9242 0.947938 8.43328C0.71438 8.26566 0.519889 8.04944 0.377832 7.79951C0.235775 7.54957 0.149522 7.27184 0.125 6.98541C0.125 6.05559 1.1465 5.14434 2.85762 4.54809C4.51976 4.0202 6.25624 3.76415 8 3.78984C9.7205 3.76606 11.4337 4.01748 13.0749 4.53459C13.7949 4.76445 14.4687 5.11979 15.065 5.58422C15.2942 5.74436 15.4856 5.95281 15.6255 6.19491C15.7655 6.437 15.8506 6.70684 15.875 6.98541C15.875 7.95178 14.7331 8.93109 12.8938 9.53972C11.3063 10.0119 9.6559 10.2378 8 10.2097ZM8 4.46259C6.33172 4.44079 4.67058 4.6842 3.07869 5.18372C1.50369 5.73328 0.79775 6.48478 0.79775 6.98372C0.79775 7.50572 1.55656 8.32641 3.22269 8.89622C4.77127 9.36085 6.38371 9.5771 8 9.53691C9.58423 9.56524 11.1635 9.35088 12.6828 8.90128C14.4125 8.32809 15.2 7.50628 15.2 6.98541C15.1715 6.80669 15.1063 6.63581 15.0086 6.48353C14.9108 6.33125 14.7825 6.20086 14.6319 6.10059C14.0984 5.68842 13.4966 5.37348 12.8538 5.17022C11.2838 4.67769 9.64528 4.43881 8 4.46259Z" fill="#00D8FF"/>
<path d="M4.80499 13.9992C4.54259 14.0052 4.28329 13.9416 4.05349 13.8147C3.24799 13.3501 2.96899 12.0102 3.30706 10.2299C3.68022 8.52628 4.32603 6.89409 5.21956 5.39635C6.05829 3.8941 7.13177 2.53559 8.39937 1.37223C8.95819 0.863224 9.60261 0.457035 10.3029 0.172413C10.5563 0.0540299 10.8326 -0.00732422 11.1123 -0.00732422C11.392 -0.00732422 11.6683 0.0540299 11.9217 0.172413C12.7593 0.655038 13.0366 2.13329 12.6457 4.0306C12.2615 5.64193 11.6324 7.18481 10.7804 8.60541C9.97129 10.09 8.9316 11.4367 7.70018 12.5952C7.12125 13.1244 6.44937 13.5419 5.71849 13.8265C5.42597 13.9354 5.11708 13.9938 4.80499 13.9992ZM5.80231 5.73048C4.95006 7.16469 4.33109 8.72521 3.96856 10.3537C3.65749 11.9934 3.95618 12.9794 4.39043 13.2303C4.84043 13.4907 5.93281 13.2438 7.25918 12.085C8.43489 10.9753 9.42726 9.68614 10.1994 8.26566C11.0155 6.90752 11.6189 5.43243 11.9887 3.89166C12.3566 2.10573 12.0387 1.01223 11.5876 0.75235C11.4185 0.687667 11.2378 0.65872 11.057 0.667337C10.8762 0.675953 10.6991 0.721945 10.5369 0.802413C9.91347 1.05973 9.34032 1.42495 8.84374 1.88129C7.63275 2.99572 6.60736 4.29626 5.80624 5.73385L5.80231 5.73048Z" fill="#00D8FF"/>
<path d="M11.1933 14.0066C10.4311 14.0066 9.46307 13.5454 8.45507 12.6785C7.1654 11.5045 6.07379 10.1298 5.22238 8.60774C4.33988 7.13071 3.69917 5.5221 3.32451 3.8428C3.1624 3.10391 3.13231 2.34217 3.23563 1.5928C3.25992 1.3149 3.34471 1.04568 3.48405 0.80402C3.6234 0.562357 3.81392 0.354103 4.04226 0.19386C4.87869 -0.290452 6.29788 0.20736 7.74632 1.49324C8.9504 2.63071 9.97291 3.94613 10.7782 5.39361C11.6602 6.83612 12.3077 8.40952 12.6963 10.055C12.8657 10.821 12.8918 11.6117 12.7734 12.3872C12.7453 12.6732 12.6557 12.9497 12.5106 13.1978C12.3655 13.4459 12.1685 13.6596 11.933 13.8244C11.7069 13.9494 11.4517 14.0123 11.1933 14.0066ZM5.80457 8.26911C6.6214 9.72371 7.66415 11.0393 8.89382 12.1667C10.1589 13.2551 11.1624 13.4891 11.5938 13.2354C12.0438 12.9739 12.3757 11.9062 12.0337 10.1788C11.6591 8.60767 11.0381 7.10576 10.1938 5.72886C9.42529 4.34349 8.4493 3.08391 7.29969 1.99386C5.93619 0.78336 4.83032 0.512798 4.37976 0.773798C4.2394 0.887988 4.12421 1.03 4.04144 1.1909C3.95867 1.35179 3.91011 1.52809 3.89882 1.70867C3.80945 2.37697 3.83859 3.0558 3.98488 3.71398C4.34537 5.3199 4.95985 6.85799 5.80513 8.27023L5.80457 8.26911Z" fill="#00D8FF"/>
</svg>
