<svg width="18" height="18" viewBox="0 0 18 18" fill="none" xmlns="http://www.w3.org/2000/svg">
<path d="M13.7812 0H4.21875C1.8888 0 0 1.8888 0 4.21875V13.7812C0 16.1112 1.8888 18 4.21875 18H13.7812C16.1112 18 18 16.1112 18 13.7812V4.21875C18 1.8888 16.1112 0 13.7812 0Z" fill="#CD6799"/>
<mask id="mask0_313_24" style="mask-type:luminance" maskUnits="userSpaceOnUse" x="1" y="3" width="16" height="12">
<path d="M1.96875 3.72656H16.0312V14.267H1.96875V3.72656Z" fill="white"/>
</mask>
<g mask="url(#mask0_313_24)">
<path d="M14.07 9.78486C13.5796 9.78739 13.1535 9.90551 12.7967 10.08C12.6658 9.82079 12.5349 9.58974 12.5117 9.42029C12.4861 9.22264 12.4553 9.10198 12.4861 8.8658C12.5169 8.62962 12.6555 8.29339 12.6529 8.26772C12.6503 8.24206 12.6221 8.1214 12.3398 8.1188C12.0574 8.1162 11.8135 8.17273 11.7853 8.24719C11.757 8.32158 11.7031 8.49104 11.6672 8.66562C11.6184 8.92233 11.1024 9.83879 10.8072 10.3188C10.7122 10.1314 10.6301 9.96711 10.6121 9.83618C10.5864 9.63854 10.5556 9.51788 10.5864 9.2817C10.6172 9.04552 10.7559 8.70922 10.7533 8.68355C10.7507 8.65789 10.7225 8.53723 10.4401 8.5347C10.1577 8.53217 9.91383 8.58856 9.88563 8.66302C9.85737 8.73748 9.82657 8.91207 9.76751 9.08145C9.70852 9.2509 9.02311 10.7809 8.84339 11.1762C8.77078 11.3362 8.69462 11.4945 8.61495 11.6511C8.61495 11.6511 8.61234 11.6588 8.60468 11.6716C8.57962 11.7207 8.55393 11.7695 8.52762 11.8179V11.8205C8.48916 11.8899 8.44802 11.954 8.42749 11.954C8.41209 11.954 8.3839 11.7692 8.43263 11.5176C8.53535 10.9862 8.7792 10.1596 8.77666 10.1314C8.77666 10.116 8.82286 9.97224 8.61748 9.89778C8.41723 9.82332 8.34537 9.94657 8.32737 9.94657C8.30944 9.94657 8.29657 9.99024 8.29657 9.99024C8.29657 9.99024 8.51995 9.06092 7.87048 9.06092C7.46484 9.06092 6.90523 9.50501 6.62806 9.90551C6.31286 10.077 5.99793 10.249 5.68327 10.4215C5.53188 10.5062 5.3753 10.5909 5.22891 10.6705C5.21864 10.6602 5.20838 10.6474 5.19811 10.6371C4.41258 9.79765 2.95964 9.20471 3.02124 8.07774C3.04437 7.66697 3.18556 6.5888 5.81166 5.27958C7.97313 4.21428 9.69312 4.50945 9.99089 5.16406C10.417 6.09851 9.06931 7.83382 6.83597 8.0854C5.98364 8.18039 5.53702 7.85182 5.42409 7.72864C5.30597 7.60025 5.28797 7.59258 5.24431 7.61825C5.17245 7.65671 5.21864 7.77223 5.24431 7.83896C5.3111 8.01354 5.58574 8.32158 6.05037 8.47304C6.46113 8.60656 7.45971 8.68102 8.66881 8.21379C10.0217 7.69011 11.0793 6.2345 10.7687 5.01521C10.4581 3.77785 8.40443 3.36968 6.46113 4.06022C5.3059 4.47099 4.05321 5.11786 3.15216 5.95986C2.08165 6.96111 1.91227 7.83129 1.98159 8.19579C2.23057 9.48961 4.01468 10.3316 4.72835 10.9554C4.69242 10.9759 4.65902 10.9939 4.63083 11.0093C4.27399 11.1865 2.91345 11.8975 2.57454 12.6497C2.18951 13.502 2.6362 14.1129 2.93138 14.1951C3.84783 14.4492 4.78995 13.9923 5.2957 13.2376C5.80146 12.4828 5.7398 11.5022 5.50615 11.053C5.5036 11.0473 5.50013 11.0421 5.49588 11.0376C5.58834 10.9837 5.68327 10.9272 5.77573 10.8733C5.94561 10.7729 6.11764 10.6762 6.29168 10.5832C6.20442 10.822 6.14023 11.1069 6.10943 11.5176C6.07097 12.0003 6.26862 12.6266 6.52786 12.8731C6.64338 12.9808 6.77944 12.9834 6.86677 12.9834C7.16967 12.9834 7.30573 12.7319 7.45718 12.4341C7.64196 12.0695 7.80888 11.646 7.80888 11.646C7.80888 11.646 7.6009 12.7909 8.16565 12.7909C8.37103 12.7909 8.57895 12.524 8.67141 12.3879V12.3904C8.67141 12.3904 8.67654 12.3828 8.68681 12.3648C8.70734 12.3314 8.72013 12.3108 8.72013 12.3108V12.3057C8.80233 12.162 8.98711 11.8359 9.26182 11.2943C9.61606 10.5961 9.95749 9.72326 9.95749 9.72326C9.95749 9.72326 9.98829 9.93631 10.0935 10.2905C10.1551 10.4985 10.2835 10.727 10.3862 10.9478C10.3041 11.0633 10.2527 11.1274 10.2527 11.1274L10.2553 11.13C10.1885 11.2173 10.1167 11.3123 10.0371 11.4046C9.75724 11.7384 9.42354 12.1209 9.37734 12.2313C9.32341 12.3622 9.33628 12.4572 9.43894 12.5342C9.5134 12.5907 9.64685 12.5983 9.78291 12.5907C10.0345 12.5727 10.2117 12.5111 10.2989 12.4726C10.435 12.4238 10.5942 12.3494 10.743 12.239C11.0177 12.0362 11.1846 11.7461 11.1692 11.3636C11.1615 11.1531 11.0921 10.9426 11.0075 10.7449C11.0331 10.709 11.0562 10.673 11.0819 10.6371C11.5158 10.003 11.852 9.30736 11.852 9.30736C11.852 9.30736 11.8828 9.52041 11.988 9.87471C12.0394 10.0544 12.1446 10.2495 12.2371 10.4395C11.8289 10.7706 11.5774 11.1557 11.4875 11.4072C11.3258 11.8745 11.4516 12.0849 11.6903 12.1337C11.7981 12.1568 11.9521 12.1055 12.0651 12.0567C12.2088 12.0105 12.3783 11.9309 12.54 11.8128C12.8146 11.61 13.0791 11.3277 13.0637 10.9452C13.056 10.7706 13.0098 10.5986 12.9456 10.4317C13.2921 10.288 13.7388 10.2084 14.3087 10.2751C15.5307 10.4189 15.772 11.1813 15.7257 11.5022C15.6795 11.8231 15.4228 11.9977 15.3381 12.0516C15.2534 12.1055 15.2252 12.1234 15.2329 12.162C15.2432 12.2184 15.2842 12.2158 15.3561 12.2056C15.4562 12.1876 15.9978 11.9463 16.021 11.3559C16.0595 10.6012 15.3407 9.77712 14.07 9.78486ZM4.64363 12.9629C4.23806 13.4044 3.67331 13.5713 3.4294 13.4301C3.16756 13.2786 3.27021 12.6266 3.76831 12.1594C4.07114 11.8745 4.46138 11.61 4.72062 11.4483C4.77968 11.4124 4.86694 11.3611 4.9722 11.2969C4.9902 11.2866 5.00046 11.2815 5.00046 11.2815L5.06206 11.2429C5.24431 11.9104 5.06972 12.4983 4.64363 12.9629ZM7.59584 10.9554C7.45465 11.2995 7.15948 12.1799 6.97976 12.1312C6.82577 12.0901 6.73078 11.4226 6.94896 10.7629C7.05935 10.4317 7.29293 10.0364 7.42898 9.88238C7.64977 9.63593 7.89361 9.55381 7.95267 9.65393C8.02713 9.78486 7.68316 10.7398 7.59584 10.9554ZM10.032 12.1209C9.97296 12.1517 9.9165 12.1722 9.89084 12.1568C9.87284 12.1466 9.9165 12.1055 9.9165 12.1055C9.9165 12.1055 10.222 11.7769 10.3427 11.628C10.4119 11.5407 10.4941 11.438 10.5814 11.3225V11.3559C10.5814 11.7487 10.2015 12.0131 10.032 12.1209ZM11.9111 11.6922C11.8675 11.6614 11.8752 11.5587 12.0215 11.2378C12.078 11.112 12.2115 10.9016 12.4399 10.6987C12.4656 10.7809 12.4836 10.8604 12.481 10.9349C12.4785 11.4304 12.1242 11.6152 11.9111 11.6922Z" fill="white"/>
</g>
</svg>
