<svg width="18" height="18" viewBox="0 0 18 18" fill="none" xmlns="http://www.w3.org/2000/svg">
<path d="M10.3604 6.75862H7.53357V6.06897H10.3604V6.75862ZM9.30035 12.9655H5.41343V11.5862H6.12014V10.8966H5.41343V9.17241H6.12014V8.48276H5.41343V6.75862H6.12014V6.06897H5.41343V4.68966H11.7739V9.86207H12.4806V4.68966C12.4806 4.31034 12.1625 4 11.7739 4H5.41343C5.02473 4 4.70671 4.31034 4.70671 4.68966V6.06897H4V6.75862H4.70671V8.48276H4V9.17241H4.70671V10.8966H4V11.5862H4.70671V12.9655C4.70671 13.3448 5.02473 13.6552 5.41343 13.6552H9.30035V12.9655ZM10.3604 8.48276H7.53357V9.17241H10.3604V8.48276ZM11.5618 11.6897L10.2544 11.8621L11.2085 12.7586L10.9611 14L12.1625 13.4138L13.2933 14L13.0459 12.7586L14 11.8621L12.7279 11.6897L12.1272 10.5517L11.5618 11.6897Z" fill="#F4F2ED"/>
</svg>
