<svg width="18" height="18" viewBox="0 0 18 18" fill="none" xmlns="http://www.w3.org/2000/svg">
<path d="M13.7812 0H4.21875C1.8888 0 0 1.8888 0 4.21875V13.7812C0 16.1112 1.8888 18 4.21875 18H13.7812C16.1112 18 18 16.1112 18 13.7812V4.21875C18 1.8888 16.1112 0 13.7812 0Z" fill="none"/>
<path fill-rule="evenodd" clip-rule="evenodd" d="M5.83594 7.73438C6.25781 6.04688 7.3125 5.20312 9 5.20312C11.5312 5.20312 11.8477 7.10156 13.1133 7.41797C13.957 7.629 14.6953 7.31259 15.3281 6.46875C14.9062 8.15625 13.8516 9 12.1641 9C9.63281 9 9.31641 7.10156 8.05078 6.78516C7.20703 6.57422 6.46875 6.89062 5.83594 7.73438ZM2.67188 11.5312C3.09375 9.84375 4.14844 9 5.83594 9C8.36719 9 8.68359 10.8984 9.94922 11.2148C10.793 11.4259 11.5312 11.1095 12.1641 10.2656C11.7422 11.9531 10.6875 12.7969 9 12.7969C6.46875 12.7969 6.15234 10.8984 4.88672 10.582C4.04297 10.371 3.30469 10.6874 2.67188 11.5312Z" fill="url(#paint0_linear_313_20)"/>
<defs>
<linearGradient id="paint0_linear_313_20" x1="6.08203" y1="5.20312" x2="11.4961" y2="13.043" gradientUnits="userSpaceOnUse">
<stop stop-color="#32B1C1"/>
<stop offset="1" stop-color="#14C6B7"/>
</linearGradient>
</defs>
</svg>
