<svg width="19" height="19" viewBox="0 0 19 19" fill="none" xmlns="http://www.w3.org/2000/svg">
<path d="M16.3855 0.394245C16.6271 0.152657 16.9515 0.0119749 17.2929 0.000729901C17.6344 -0.0105151 17.9673 0.108519 18.2242 0.333692L18.2888 0.394245L18.606 0.711367C18.8474 0.952874 18.988 1.27716 18.9993 1.61848C19.0105 1.9598 18.8916 2.29263 18.6665 2.54951L18.606 2.6141L13.5766 7.64365C13.5055 7.71475 13.4194 7.76901 13.3245 7.80243L13.2518 7.82351L11.2539 8.28462C11.1839 8.3009 11.111 8.30012 11.0414 8.28235C10.9717 8.26458 10.9074 8.23033 10.8537 8.18249C10.8001 8.13466 10.7587 8.07464 10.7331 8.00748C10.7076 7.94033 10.6985 7.868 10.7067 7.7966L10.7156 7.74592L11.1763 5.74764C11.1991 5.64963 11.2435 5.55797 11.3064 5.47941L11.3562 5.42334L16.3855 0.394245ZM16.0684 1.97986L12.0358 6.01228L11.7505 7.24937L12.9876 6.96365L17.0203 2.93122L16.0684 1.97986ZM17.6545 1.02849C17.5773 0.95126 17.4745 0.904867 17.3655 0.898012C17.2565 0.891158 17.1487 0.924314 17.0624 0.99126L17.0203 1.02849L16.7027 1.34561L17.6545 2.29698L17.9717 1.97986C18.0489 1.90262 18.0953 1.79986 18.1022 1.69085C18.109 1.58184 18.0759 1.47408 18.0089 1.38777L17.9717 1.34561L17.6545 1.02849Z" fill="white"/>
<path d="M11.2222 2.59253L1.66667 2.66671C1.48985 2.66671 1.32029 2.73695 1.19526 2.86197C1.07024 2.987 1 3.15657 1 3.33338V14C1 14.1768 1.07024 14.3464 1.19526 14.4714C1.32029 14.5964 1.48985 14.6667 1.66667 14.6667H17.6666C17.8434 14.6667 18.013 14.5964 18.138 14.4714C18.2631 14.3464 18.3333 14.1768 18.3333 14V6.87959M8.33332 14.6667L6.99999 18M11 14.6667L12.3333 18M5.66666 18H13.6666" stroke="white" stroke-width="1.28571" stroke-linecap="round" stroke-linejoin="round"/>
</svg>
