<svg width="19" height="25" viewBox="0 0 19 25" fill="none" xmlns="http://www.w3.org/2000/svg">
<path d="M5.55 22.15H2.95C2.31348 22.15 1.70303 21.8971 1.25294 21.4471C0.802863 20.997 0.550003 20.3865 0.550003 19.75V2.95005C0.550003 2.31353 0.802863 1.70308 1.25294 1.25299C1.70303 0.802909 2.31348 0.550049 2.95 0.550049H12.55C13.1865 0.550049 13.797 0.802909 14.2471 1.25299C14.6971 1.70308 14.95 2.31353 14.95 2.95005V12.05M6.55 1.75005H8.95M7.75 17.35V17.362" stroke="white" stroke-width="1.1" stroke-linecap="round" stroke-linejoin="round"/>
<path d="M17.6274 22.1347C17.6063 22.2749 17.5529 22.4082 17.4716 22.5243C17.3906 22.6384 17.2833 22.7312 17.1589 22.795C17.0344 22.8589 16.8964 22.8918 16.7566 22.891H15.9998C15.946 22.8908 15.893 22.8778 15.8452 22.8531C15.7974 22.8284 15.7561 22.7927 15.7248 22.7489C15.6932 22.7051 15.6722 22.6546 15.6634 22.6013C15.6547 22.548 15.6584 22.4934 15.6744 22.4418C15.844 21.901 15.8073 21.2914 14.2715 20.3151C14.2089 20.2741 14.1609 20.2143 14.1346 20.1443C14.1082 20.0742 14.1048 19.9977 14.1248 19.9256C14.1463 19.8545 14.1899 19.7922 14.2492 19.7477C14.3086 19.7032 14.3806 19.6788 14.4548 19.6781C15.1103 19.687 15.7501 19.8805 16.3007 20.2364C16.8513 20.5922 17.2905 21.0961 17.5678 21.6901C17.6242 21.8311 17.6446 21.9839 17.6274 22.1347ZM16.4811 17.0793C16.4799 17.6163 16.266 18.1309 15.8862 18.5106C15.5065 18.8903 14.9918 19.104 14.4548 19.1051C14.3946 19.104 14.3358 19.0874 14.284 19.0568C14.2322 19.0262 14.1892 18.9827 14.1592 18.9305C14.1292 18.8784 14.1132 18.8194 14.1128 18.7592C14.1124 18.699 14.1276 18.6398 14.1569 18.5872C14.4374 18.1385 14.5861 17.62 14.5861 17.0908C14.5861 16.5616 14.4374 16.043 14.1569 15.5943C14.1209 15.5429 14.0997 15.4827 14.0955 15.4201C14.0914 15.3576 14.1044 15.2951 14.1332 15.2394C14.162 15.1837 14.2054 15.1369 14.2589 15.1041C14.3124 15.0714 14.3738 15.0538 14.4365 15.0535C14.7048 15.0528 14.9705 15.1069 15.2171 15.2125C15.4638 15.3181 15.6863 15.473 15.8711 15.6676C16.2481 16.0483 16.4606 16.5618 16.4628 17.0976L16.4811 17.0793Z" fill="white"/>
<path d="M15.1927 22.1209C15.2113 22.3452 15.1671 22.5703 15.0651 22.7711C14.9631 22.9718 14.8074 23.1402 14.6152 23.2575C14.4236 23.3753 14.2027 23.4372 13.9781 23.4363H9.68217C9.45729 23.4373 9.23661 23.3754 9.04508 23.2575C8.85249 23.1409 8.69657 22.9725 8.59511 22.7715C8.49364 22.5705 8.45072 22.3451 8.47125 22.1209C8.48788 21.8972 8.56731 21.6827 8.70042 21.5021C9.06585 21.0159 9.53652 20.6186 10.0772 20.34C10.6179 20.0615 11.2145 19.9088 11.8226 19.8934C12.4327 19.9055 13.0321 20.0562 13.5754 20.3341C14.1187 20.612 14.5916 21.0099 14.9585 21.4975C15.0919 21.6801 15.1732 21.8956 15.1927 22.1209ZM14.079 16.905C14.0778 17.5009 13.8408 18.072 13.4198 18.4937C12.9988 18.9154 12.428 19.1533 11.8322 19.1555C11.5005 19.1546 11.173 19.0804 10.8733 18.938C10.5737 18.7956 10.3093 18.5887 10.0991 18.332C9.88891 18.0753 9.73817 17.7753 9.65768 17.4534C9.57719 17.1316 9.56896 16.7959 9.63358 16.4705C9.69847 16.1451 9.8347 15.838 10.0325 15.5715C10.2302 15.3049 10.4846 15.0855 10.7773 14.9291C11.07 14.7726 11.3937 14.6829 11.7252 14.6666C12.0566 14.6502 12.3876 14.7075 12.6943 14.8343C13.1045 15.0036 13.4553 15.2907 13.7025 15.6592C13.9496 16.0278 14.0821 16.4613 14.0831 16.905H14.079Z" fill="white"/>
</svg>
