<svg width="18" height="16" viewBox="0 0 18 16" fill="none" xmlns="http://www.w3.org/2000/svg">
<path d="M16.7647 0H1.23529C0.907674 0 0.593472 0.130147 0.361809 0.361809C0.130147 0.593472 0 0.907674 0 1.23529V13.9412C0 14.2688 0.130147 14.583 0.361809 14.8147C0.593472 15.0463 0.907674 15.1765 1.23529 15.1765H16.7647C17.0923 15.1765 17.4065 15.0463 17.6382 14.8147C17.8699 14.583 18 14.2688 18 13.9412V1.23529C18 0.907674 17.8699 0.593472 17.6382 0.361809C17.4065 0.130147 17.0923 0 16.7647 0ZM1.23529 1.05882H16.7647C16.8115 1.05882 16.8564 1.07742 16.8895 1.11051C16.9226 1.14361 16.9412 1.18849 16.9412 1.23529V4.94118H1.05882V1.23529C1.05882 1.18849 1.07742 1.14361 1.11051 1.11051C1.14361 1.07742 1.18849 1.05882 1.23529 1.05882ZM1.05882 13.9412V6H6.35294V14.1176H1.23529C1.18849 14.1176 1.14361 14.0991 1.11051 14.066C1.07742 14.0329 1.05882 13.988 1.05882 13.9412ZM16.7647 14.1176H7.41176V6H16.9412V13.9412C16.9412 13.988 16.9226 14.0329 16.8895 14.066C16.8564 14.0991 16.8115 14.1176 16.7647 14.1176Z" fill="black"/>
</svg>
