<svg width="19" height="23" viewBox="0 0 19 23" fill="none" xmlns="http://www.w3.org/2000/svg">
<path d="M17.7503 9.75C17.7503 5.979 17.7503 4.093 16.5783 2.922C15.5153 1.859 13.8643 1.76 10.7503 1.75M17.7503 13.75C17.7503 17.521 17.7503 19.407 16.5783 20.578C15.4063 21.749 13.5213 21.75 9.75031 21.75C5.97931 21.75 4.09331 21.75 2.92231 20.578C1.75131 19.406 1.75031 17.522 1.75031 13.75V10.751" stroke="white" stroke-width="1.5" stroke-linecap="round"/>
<path d="M1.4803 5.55L0.926302 6.056C0.996582 6.13301 1.08215 6.19453 1.17754 6.23662C1.27292 6.27871 1.37604 6.30045 1.4803 6.30045C1.58456 6.30045 1.68768 6.27871 1.78307 6.23662C1.87846 6.19453 1.96402 6.13301 2.0343 6.056L1.4803 5.55ZM2.7643 5.256C2.8985 5.10907 2.96884 4.91485 2.95984 4.71606C2.95083 4.51727 2.86323 4.3302 2.7163 4.196C2.56937 4.0618 2.37515 3.99147 2.17636 4.00047C1.97757 4.00947 1.7905 4.09707 1.6563 4.244L2.7643 5.256ZM1.3043 4.244C1.1701 4.09707 0.983032 4.00947 0.784243 4.00047C0.585454 3.99147 0.391232 4.0618 0.244302 4.196C0.0973721 4.3302 0.00977061 4.51727 0.000768866 4.71606C-0.00823288 4.91485 0.0621025 5.10907 0.196302 5.256L1.3043 4.244ZM9.0203 3.95L9.5743 3.444C9.50402 3.36699 9.41846 3.30547 9.32307 3.26338C9.22768 3.22129 9.12456 3.19955 9.0203 3.19955C8.91604 3.19955 8.81292 3.22129 8.71754 3.26338C8.62215 3.30547 8.53658 3.36699 8.4663 3.444L9.0203 3.95ZM7.7363 4.244C7.6021 4.39093 7.53177 4.58515 7.54077 4.78394C7.54977 4.98273 7.63737 5.1698 7.7843 5.304C7.93123 5.4382 8.12545 5.50853 8.32424 5.49953C8.52303 5.49053 8.7101 5.40293 8.8443 5.256L7.7363 4.244ZM9.1963 5.256C9.26275 5.32875 9.34288 5.3877 9.43211 5.42949C9.52134 5.47128 9.61793 5.49508 9.71636 5.49953C9.81479 5.50399 9.91314 5.48902 10.0058 5.45547C10.0984 5.42192 10.1835 5.37045 10.2563 5.304C10.3291 5.23755 10.388 5.15742 10.4298 5.06819C10.4716 4.97896 10.4954 4.88237 10.4998 4.78394C10.5043 4.68551 10.4893 4.58717 10.4558 4.49452C10.4222 4.40188 10.3708 4.31675 10.3043 4.244L9.1963 5.256ZM3.3263 7.056C3.26038 6.98279 3.18068 6.92328 3.09176 6.88087C3.00284 6.83846 2.90643 6.81397 2.80805 6.80882C2.60935 6.79841 2.41466 6.86736 2.2668 7.0005C2.11894 7.13364 2.03003 7.32006 2.01962 7.51876C2.00921 7.71745 2.07816 7.91214 2.2113 8.06L3.3263 7.056ZM7.2903 2.58C7.41638 2.72986 7.59608 2.82447 7.79098 2.84359C7.98589 2.86271 8.18055 2.80484 8.33335 2.68234C8.48615 2.55984 8.58497 2.38243 8.6087 2.18802C8.63242 1.99362 8.57916 1.79765 8.4603 1.642L7.2903 2.58ZM5.1303 0C2.6363 0 0.730302 2.193 0.730302 4.75H2.2303C2.2303 2.89 3.5903 1.5 5.1303 1.5V0ZM0.730302 4.75L0.731302 5.55H2.2313L2.2303 4.75H0.730302ZM2.0343 6.056L2.7643 5.256L1.6563 4.244L0.926302 5.044L2.0343 6.056ZM2.0343 5.044L1.3043 4.244L0.196302 5.256L0.926302 6.056L2.0343 5.044ZM5.3703 9.5C7.8643 9.5 9.7703 7.307 9.7703 4.75H8.2703C8.2703 6.61 6.9103 8 5.3703 8V9.5ZM9.7703 4.75V3.95H8.2703V4.75H9.7703ZM8.4673 3.444L7.7373 4.244L8.8453 5.256L9.5753 4.456L8.4673 3.444ZM8.4673 4.456L9.1963 5.256L10.3053 4.244L9.5743 3.444L8.4673 4.456ZM2.2103 8.059C3.0003 8.938 4.1183 9.5 5.3683 9.5V8C4.5833 8 3.8593 7.65 3.3253 7.056L2.2103 8.059ZM8.4603 1.642C7.6643 0.65 6.4753 0 5.1303 0V1.5C5.9733 1.5 6.7483 1.904 7.2903 2.58L8.4603 1.642Z" fill="white"/>
<path d="M12.7503 18.75H6.75031" stroke="white" stroke-width="1.5" stroke-linecap="round"/>
</svg>
