<svg width="20" height="20" viewBox="0 0 20 20" fill="none" xmlns="http://www.w3.org/2000/svg">
<path d="M10.0473 3.15332H1.68899C1.50626 3.15332 1.33101 3.22591 1.2018 3.35512C1.07259 3.48433 1 3.65958 1 3.84231V14.8662C1 15.0489 1.07259 15.2242 1.2018 15.3534C1.33101 15.4826 1.50626 15.5552 1.68899 15.5552H18.2248C18.4075 15.5552 18.5828 15.4826 18.712 15.3534C18.8412 15.2242 18.9138 15.0489 18.9138 14.8662V9.53877M8.57891 15.5552L7.20093 19.0001M11.3349 15.5552L12.7129 19.0001M5.82294 19.0001H14.0908" stroke="white" stroke-width="1.28571" stroke-linecap="round" stroke-linejoin="round"/>
<path d="M14.7799 4.91865C16.2494 4.91865 16.89 4.30041 16.89 2.80861C16.89 4.30041 17.526 4.91865 19 4.91865C17.526 4.91865 16.89 5.55468 16.89 7.02869C16.89 5.55468 16.2494 4.91865 14.7799 4.91865ZM12.9713 2.35646C13.916 2.35646 14.3278 1.95916 14.3278 1C14.3278 1.95916 14.7368 2.35646 15.6842 2.35646C14.7368 2.35646 14.3278 2.7655 14.3278 3.71291C14.3278 2.7655 13.916 2.35646 12.9713 2.35646Z" fill="black" stroke="white" stroke-width="1.125" stroke-linejoin="round"/>
</svg>
