<svg width="18" height="18" viewBox="0 0 18 18" fill="none" xmlns="http://www.w3.org/2000/svg">
<g clip-path="url(#clip0_196_11)">
<path d="M18 9C18 4.02944 13.9706 0 9 0C4.02944 0 0 4.02944 0 9C0 13.9706 4.02944 18 9 18C13.9706 18 18 13.9706 18 9Z" fill="#D4D4D8"/>
<path d="M9.57028 6.41701L9.60321 6.44054C9.99028 6.71421 10.2678 7.08954 10.4504 7.54307C10.4942 7.61343 10.465 7.65254 10.3773 7.67597L10.229 7.71662C9.89366 7.80912 9.62756 7.88691 9.29659 7.97941L9.10783 8.03204C9.03986 8.05005 9.02111 8.04249 8.94881 7.95435L8.93861 7.94183C8.83552 7.81674 8.75829 7.73318 8.62171 7.65859L8.59537 7.6447C8.13526 7.40233 7.68978 7.47268 7.2735 7.76201C6.77686 8.10604 6.52124 8.6143 6.52854 9.24765C6.53586 9.87316 6.93752 10.3892 7.51449 10.4752C8.0111 10.5456 8.42738 10.358 8.75603 9.9592C8.82178 9.87316 8.88019 9.77935 8.9532 9.66988H7.54373C7.39036 9.66988 7.35386 9.56825 7.40498 9.43532L7.4303 9.37149C7.52416 9.13768 7.66974 8.80162 7.76428 8.60947L7.7849 8.5681C7.81016 8.52124 7.86143 8.45791 7.96001 8.45791H10.3103C10.4159 8.09986 10.5871 7.76154 10.8156 7.44141C11.3487 6.69078 11.9914 6.2998 12.8605 6.13562C13.6054 5.99485 14.3065 6.07305 14.9419 6.53439C15.5189 6.95661 15.8767 7.52745 15.9717 8.27805C16.0958 9.33366 15.811 10.1938 15.1318 10.9288C14.6498 11.4527 14.0582 11.7811 13.379 11.9296C13.1818 11.9687 12.9846 11.9765 12.7948 12C12.1302 11.9843 11.524 11.7811 11.0128 11.3119C10.6532 10.9791 10.4055 10.5702 10.2825 10.094C10.1961 10.2806 10.0934 10.458 9.97572 10.6238C9.44987 11.3666 8.76339 11.828 7.8943 11.9531C7.17858 12.0547 6.51398 11.9062 5.92971 11.437C5.38928 10.9991 5.08254 10.4205 5.00218 9.70118C4.90726 8.84886 5.14096 8.08258 5.62298 7.41014C6.14153 6.68294 6.82801 6.22163 7.66789 6.05743C8.34169 5.92694 8.9873 6.0074 9.57028 6.41701ZM13.0445 7.53749L13.0211 7.54307C12.3419 7.70727 11.9037 8.16858 11.7431 8.90359C11.6116 9.51348 11.8891 10.1312 12.415 10.3814C12.8166 10.5691 13.2183 10.5456 13.6054 10.3345C14.1824 10.0139 14.4964 9.51348 14.5329 8.84105C14.5256 8.73942 14.5256 8.66119 14.511 8.583C14.381 7.81762 13.7298 7.38091 13.0445 7.53749ZM4.41062 8.96614C4.43982 8.96614 4.45444 8.9896 4.45444 9.02087L4.43982 9.20854C4.43982 9.23981 4.41062 9.26327 4.3887 9.26327L2.7966 9.25546C2.76739 9.25546 2.76009 9.232 2.77468 9.20854L2.87693 9.01306C2.89155 8.9896 2.92076 8.96614 2.94996 8.96614H4.41062ZM4.57128 8.24678C4.60049 8.24678 4.61511 8.27024 4.60781 8.2937L4.54937 8.48137C4.54207 8.51264 4.51286 8.52826 4.48365 8.52826L1.02921 8.5361C0.999999 8.5361 0.992704 8.52045 1.00729 8.49699L1.16066 8.28589C1.17528 8.26243 1.21179 8.24678 1.24099 8.24678H4.57128ZM4.95105 7.52742C4.98026 7.52742 4.98756 7.55088 4.97297 7.57434L4.84881 7.77763C4.83419 7.80109 4.79769 7.82455 4.77577 7.82455L2.13203 7.81671C2.10279 7.81671 2.09549 7.80109 2.11008 7.77763L2.26345 7.56653C2.27807 7.54307 2.31458 7.52742 2.34378 7.52742H4.95105Z" fill="#00ACD7"/>
</g>
<defs>
<clipPath id="clip0_196_11">
<rect width="18" height="18" fill="white"/>
</clipPath>
</defs>
</svg>
