<svg width="18" height="18" viewBox="0 0 18 18" fill="none" xmlns="http://www.w3.org/2000/svg">
<g clip-path="url(#clip0_103_150)">
<path d="M18 9C18 4.02944 13.9706 0 9 0C4.02944 0 0 4.02944 0 9C0 13.9706 4.02944 18 9 18C13.9706 18 18 13.9706 18 9Z" fill="#D4D4D8"/>
<path d="M11.2682 3.00003C10.9786 3.00153 10.6923 3.06703 10.6009 3.18353C10.5425 3.26603 10.4989 3.78152 10.5425 4.04252C10.5425 4.04252 10.5595 4.21502 10.5903 4.34952L10.5797 4.44052C10.5672 4.54201 10.55 4.64294 10.5281 4.74302C10.5228 4.77102 10.4181 4.79052 10.3023 4.81902L10.229 4.79802C10.1047 4.76352 10.0245 4.85952 9.90068 4.92802C9.86402 4.90802 9.70357 4.83902 9.61591 4.88702C9.52825 4.93502 9.46981 4.98352 9.38214 5.01752C9.33858 4.99702 9.2217 4.99702 9.12713 5.03152C9.03192 5.05985 8.94437 5.10727 8.87052 5.17052C7.64113 5.46051 6.31345 5.98801 6.20773 6.04101C5.66741 6.30201 4.78442 6.74851 4.3833 7.05751C3.69741 7.593 3.28885 8.2185 3.12787 8.6785C2.92333 9.2485 2.98177 9.59199 3.17888 9.372C3.3372 9.189 4.04593 8.645 4.4938 8.3725L4.49274 8.376C4.56659 8.32649 4.6448 8.283 4.72651 8.246L4.8503 8.184L5.11859 8.0225C5.43843 8.2985 5.54521 8.739 5.61641 9.3375C5.73329 10.258 6.52171 10.684 7.44083 10.6975C8.39714 10.7115 8.74035 10.897 9.09791 11.35C9.17919 11.4505 9.26686 11.5035 9.34761 11.534C9.31153 11.5984 9.28302 11.6663 9.26261 11.7365C9.22276 11.8215 9.19619 11.9265 9.17919 12.0405C9.17056 12.0515 9.16507 12.0644 9.16325 12.078C9.12713 12.346 9.13403 12.978 9.12713 13.3145C9.12022 13.651 9.11225 13.6995 9.08303 13.7475C9.05381 13.8025 9.02459 13.8365 8.98846 13.981C8.9518 14.132 8.88592 14.173 8.82058 14.2965C8.71113 14.489 8.73292 14.7015 8.84236 14.798C8.9518 14.8945 9.25145 15.0385 9.65947 14.9905C10.0686 14.9425 10.127 14.915 10.0611 14.544C10.0537 14.489 9.95912 14.2415 9.98834 14.1455C10.0319 14.0425 9.93733 13.864 9.95912 13.857C9.9809 13.85 10.0101 13.713 10.0101 13.644C10.0101 13.5755 10.0027 13.246 10.0829 13.074C10.1158 13.004 10.1854 12.844 10.2561 12.6815C10.4909 12.32 10.5 12.101 10.5111 11.9765C10.5271 11.8755 10.5356 11.7465 10.5207 11.6045C10.5499 11.563 10.6742 11.467 10.6886 11.2815C10.6886 11.2815 11.0307 11.113 11.274 10.7075C11.359 10.986 11.4387 11.1625 11.426 11.3435C11.1609 11.5385 11.0626 11.6825 11.0222 11.823C10.9967 11.813 10.9818 11.8045 10.9638 11.803H10.9494C10.93 11.8054 10.9111 11.8102 10.8931 11.8175C10.7911 11.8515 10.8713 12.4765 10.9808 12.731C11.0902 12.9855 11.1487 13.136 11.1922 13.411C11.2363 13.6855 11.0902 14.022 11.0318 14.173C11.0318 14.173 10.9367 14.441 11.1556 14.585C11.3458 14.709 12.0609 14.675 12.3818 14.675C12.7032 14.675 13.1845 14.7845 13.4911 14.7295C13.871 14.6675 13.9289 14.4545 13.7031 14.3445C13.4767 14.2345 13.1335 14.18 12.6883 13.878C12.5714 13.802 12.411 13.7335 12.3892 13.672C12.3674 13.61 12.3674 13.253 12.3749 12.9435C12.3818 12.6345 12.4917 12.2365 12.5279 12.0235C12.5619 11.8245 12.4875 11.8295 12.3887 11.848C12.4057 11.7745 12.4237 11.702 12.4402 11.625C12.623 11.309 12.5427 11.0135 12.5427 11.0135C12.9784 10.4915 12.7553 9.37849 12.6596 8.9895C12.9997 9.141 13.1697 9.0835 13.1697 9.0835C13.2239 9.056 13.2717 9.0165 13.3152 8.9715C13.4943 8.7905 13.5862 8.5135 13.5862 8.5135V8.5C14.0017 8.1085 14.1977 7.532 13.7243 7.15401C13.763 7.04804 13.7727 6.9346 13.7523 6.8242C13.732 6.71379 13.6823 6.61002 13.608 6.52251C13.6722 6.37649 13.6879 6.21554 13.6527 6.06098C13.6176 5.90642 13.5335 5.76555 13.4114 5.65701C13.3369 5.59133 13.2488 5.54078 13.1527 5.50851C13.0464 5.36101 13.0225 5.30002 12.8488 5.33402C12.7691 5.25152 12.7542 5.19002 12.5863 5.24502C12.5863 5.24502 12.5353 5.12802 12.4402 5.10052C12.4316 5.09729 12.4227 5.09479 12.4136 5.09302C12.2532 4.98802 12.1076 4.98552 12.0035 5.01302C11.9695 4.98902 11.9711 4.95102 11.9663 4.81902C11.9621 4.71902 11.9562 4.57602 11.9498 4.44702C11.9642 4.28302 12.004 3.96002 12.0168 3.79552C12.0317 3.61052 12.0391 3.32153 11.9514 3.19803C11.8489 3.06003 11.5572 2.99853 11.2682 3.00003ZM11.2655 3.17003C11.6374 3.17003 11.7979 3.28003 11.8202 3.34153C11.8271 3.35552 11.8638 3.58902 11.8415 3.74002C11.8345 3.79502 11.8271 3.99452 11.8128 4.08352C11.8053 4.17302 11.7761 4.27602 11.7469 4.42002C11.7251 4.53702 11.6231 4.66752 11.5429 4.68802C11.4042 4.72252 11.1487 4.71552 11.0026 4.68802C10.9659 4.68102 10.9367 4.66052 10.9006 4.64002C10.8203 4.51602 10.7762 4.42002 10.7619 4.26902C10.747 4.12452 10.7178 4.06302 10.7109 3.95302C10.7034 3.78802 10.7034 3.67802 10.7034 3.67802C10.7109 3.58902 10.7401 3.36902 10.7401 3.34853C10.747 3.28703 10.8639 3.17003 11.2655 3.17003ZM10.6636 4.52102C10.7412 4.59552 10.8235 4.67402 10.8931 4.72902C10.959 4.78402 11.1194 4.77702 11.265 4.77702C11.3968 4.77702 11.5137 4.79102 11.5647 4.76352C11.6465 4.72502 11.7533 4.64602 11.8425 4.56652C11.8484 4.64252 11.8542 4.71852 11.8563 4.78402C11.8616 4.93152 11.8335 5.01802 11.8691 5.06902C11.8255 5.09302 11.7766 5.12152 11.7262 5.14702C11.6459 5.18702 11.5636 5.21502 11.5121 5.20452H11.511C11.4 5.18702 11.0164 5.09702 10.8039 5.00102C10.7151 4.87152 10.6259 4.80202 10.6307 4.77702C10.645 4.70852 10.6519 4.65352 10.6593 4.56452L10.6636 4.52102ZM10.2104 4.86602L10.229 4.86652C10.4543 4.88452 10.5743 4.94252 10.6583 5.00852L10.6987 5.02352L10.7029 5.01002C10.7281 5.02502 10.7568 5.03968 10.789 5.05402C11.0387 5.13352 11.3755 5.20802 11.4844 5.23052C11.6157 5.25802 11.8271 5.13452 11.9296 5.07252C12.1119 4.96252 12.3456 5.05252 12.4551 5.16902C12.5279 5.24402 12.5571 5.29252 12.5571 5.31302C12.725 5.25802 12.7468 5.33351 12.827 5.41601C13.0315 5.32651 13.0459 5.43651 13.0607 5.48451C12.9959 5.48451 12.9024 5.49151 12.7749 5.50451L12.7685 5.49851C12.692 5.42201 12.555 5.35401 12.4503 5.30652C12.4041 5.29102 12.3547 5.28202 12.3164 5.25802C12.258 5.23052 12.1995 5.18952 12.1119 5.19652C11.7469 5.23752 11.6741 5.35401 11.3601 5.28552C11.0536 5.21852 10.9686 5.15852 10.6519 5.17502L10.6524 5.18802C10.5967 5.19602 10.5462 5.20302 10.5356 5.20302C10.4261 5.20902 10.152 5.23652 9.92299 5.15302C9.89574 5.13798 9.86711 5.12526 9.83745 5.11502L9.8348 5.11402H9.83427C9.73863 5.07835 9.62707 5.05968 9.49956 5.05802H9.48574C9.60156 5.00302 9.67488 4.92852 9.78326 4.94902C9.90014 4.96952 10.017 5.05902 10.0829 5.12752C10.0613 5.07432 10.0293 5.02545 9.98834 4.98352C10.0563 4.93852 10.1185 4.86852 10.2104 4.86602ZM9.626 5.13852C9.7057 5.13952 9.77476 5.15152 9.84755 5.17502C9.85711 5.17952 9.86561 5.18402 9.87889 5.18952C10.0319 5.25802 10.3092 5.27152 10.543 5.25802C10.6444 5.25394 10.7449 5.23798 10.8421 5.21052C11.0132 5.22252 11.1152 5.26552 11.3612 5.31852C11.5259 5.35351 11.6279 5.34102 11.7304 5.31502C11.833 5.28852 11.9355 5.25002 12.1145 5.23002C12.148 5.2262 12.1819 5.22841 12.2144 5.23652C12.2346 5.24652 12.2541 5.25668 12.2729 5.26702C12.3058 5.29152 12.3866 5.33452 12.4551 5.36151C12.5422 5.39551 12.7685 5.54001 12.7978 5.57401C12.8031 5.58049 12.81 5.58565 12.818 5.58901C12.9465 5.74601 13.0342 5.96651 13.0283 6.19401C12.9965 6.42401 12.802 6.30101 12.6958 6.25401C12.4769 6.16501 12.258 6.10301 12.0024 6.10301C11.7474 6.10301 11.4186 6.12351 11.1338 6.19251C10.7401 6.29551 10.6232 6.28851 10.4484 6.20601C10.2731 6.11701 9.96656 5.89701 9.96656 5.89701V5.90201C9.96301 5.89801 9.96053 5.89635 9.95912 5.89701C9.9368 5.93151 9.8858 6.02051 9.85658 6.06201C9.84224 6.32301 9.67435 6.73501 9.36036 6.83801C9.31995 6.852 9.27676 6.85743 9.23387 6.85388C9.19098 6.85034 9.14945 6.83792 9.11225 6.81751C9.02123 6.76053 8.92309 6.71435 8.82005 6.68001C9.07559 6.87201 9.20735 7.01651 9.32423 7.27051C9.41668 7.4855 9.54472 7.779 9.85658 8.0935C10.0494 8.0915 10.2418 8.142 10.3677 8.2665C10.4405 8.335 10.5573 8.411 10.543 8.4795C10.543 8.5 10.4989 8.555 10.4628 8.5965C10.4281 8.63488 10.3914 8.67159 10.3528 8.7065C10.3241 8.7265 10.2216 8.8025 10.1998 8.8165C10.178 8.8305 10.1488 8.864 10.127 8.871C10.0537 8.9055 9.97346 8.878 9.90068 8.8435C9.82789 8.809 9.91502 8.8025 9.8348 8.7475C9.65416 8.6275 9.54737 8.542 9.59359 8.3315C9.09844 7.9345 8.23298 7.7015 8.04703 7.27751C7.93015 7.00251 7.91527 6.86551 8.02471 6.74851C8.34614 6.40501 8.22182 6.07551 8.46302 5.93151C8.68882 5.79401 8.87902 5.95151 8.98846 6.09651C8.92258 5.84201 8.69626 5.78001 8.69626 5.75951C8.69626 5.44351 9.01768 5.22402 9.33911 5.16902C9.45493 5.14852 9.54578 5.13752 9.626 5.13852ZM8.64472 5.40551C8.57034 5.50351 8.522 5.62301 8.51403 5.76601C8.40458 5.78001 8.15647 5.79351 8.03215 6.21951C8.00496 6.32605 7.96688 6.42987 7.91846 6.52951C7.86374 6.55201 6.3533 7.16651 5.14038 7.8005L5.13506 7.797C4.96505 7.887 4.8023 7.978 4.64681 8.07L4.5804 8.1085L4.57987 8.11C3.97633 8.4715 3.49605 8.835 3.17888 9.166C3.39777 7.8265 4.52196 7.12601 5.05431 6.81701C6.34001 6.07251 7.51362 5.70451 8.64472 5.40551ZM12.9146 5.56701C13.0528 5.56501 13.1994 5.59701 13.3163 5.70451C13.6298 5.99301 13.5421 6.30901 13.4475 6.52851C13.5272 6.61801 13.7174 6.87201 13.6005 7.17401C13.5793 7.24301 13.4183 7.24301 13.3014 7.4215C13.5936 7.26351 13.7759 7.30501 13.8417 7.504C13.9437 7.813 13.7174 8.184 13.5203 8.39C13.5203 8.383 13.5129 8.376 13.5129 8.3695C13.4837 8.4725 13.4475 8.6715 13.2286 8.8915C13.1192 9.0015 13.0315 8.9875 12.9072 8.96C12.793 8.933 12.7361 8.889 12.6187 8.822C12.5996 8.7185 12.5645 8.581 12.5645 8.527C12.5645 8.505 12.5624 8.4565 12.5592 8.4055C12.5759 8.3875 12.5946 8.3685 12.6155 8.3485C12.6155 8.3485 12.7101 8.225 12.8493 8.232C12.9874 8.239 13.1335 8.2115 13.1702 8.177C13.1702 7.937 12.878 7.93 12.9805 7.5175C12.9874 7.4975 13.0241 7.4625 13.141 7.449C12.9657 7.4145 12.886 7.4075 12.7616 7.29801L12.7547 7.29151C12.8132 7.16501 12.8737 7.06301 12.9146 6.98901C13.0172 6.79651 12.9582 6.56301 12.9582 6.56301C13.0682 6.52851 13.1628 6.47351 13.1776 6.43951C13.2855 6.10301 13.0905 5.77851 12.8562 5.56951C12.8753 5.56785 12.8948 5.56735 12.9146 5.56701ZM10.0138 6.02951C10.0188 6.03751 10.0248 6.04584 10.0319 6.05451C10.127 6.16451 10.3385 6.30201 10.6232 6.39101C10.7614 6.43251 10.8713 6.40501 10.9951 6.37751C11.5918 6.23851 12.2192 6.20451 12.7643 6.45501C12.7952 6.63685 12.7661 6.82323 12.6809 6.98901C12.5576 7.22151 12.3977 7.523 12.4259 8.0965C12.2952 8.1185 11.672 8.1685 11.3675 8.115C11.0908 8.0665 10.6153 7.8525 10.5069 7.77C10.4756 7.63008 10.4534 7.48848 10.4405 7.34601C10.5325 7.30498 10.6146 7.24661 10.6817 7.17451C10.4628 7.20851 10.3751 7.19451 10.2434 7.12601C10.1185 7.06101 9.90227 6.85951 9.78114 6.71601C9.9028 6.57101 9.98993 6.37101 9.95912 6.10301C9.9786 6.07801 9.99666 6.05351 10.0133 6.02951H10.0138ZM7.68682 6.82851C7.639 6.95501 7.73623 7.15551 7.80583 7.305C8.07572 7.8945 8.90558 7.95 9.46715 8.395C9.45789 8.4612 9.46895 8.52852 9.49903 8.589C9.54312 8.6715 9.69613 8.7955 9.69613 8.7955C9.66691 8.8225 9.68179 8.8775 9.68179 8.8775C9.79017 8.986 9.94955 8.999 9.9724 9.0005C9.74129 9.62449 9.53887 10.3135 9.73279 11.048C9.63769 11.17 9.53728 11.2705 9.45068 11.382C9.3562 11.3559 9.27336 11.3015 9.21479 11.227C8.9008 10.801 8.44071 10.519 7.60872 10.54C6.36073 10.5675 5.86452 10.0865 5.76995 9.166C5.72001 8.679 5.58028 8.205 5.29817 7.9265C6.10359 7.507 7.22513 6.96851 7.58003 6.86501C7.6159 6.85403 7.65187 6.84185 7.68682 6.82851ZM9.54419 6.91851C9.7466 7.13951 9.96656 7.28201 10.178 7.408C10.2216 7.5795 10.2364 7.6965 10.28 7.923H10.2582L10.2439 8.077C10.1365 8.04734 10.0261 8.0284 9.91449 8.0205L9.91502 8.019C9.44058 7.4905 9.54312 7.28401 9.35292 7.00951C9.40446 6.99251 9.47246 6.96251 9.54419 6.91851ZM12.6846 7.4615C12.725 7.495 12.7792 7.5215 12.8562 7.5385C12.6825 7.8785 13.0315 7.9945 13.0528 8.1235C12.9768 8.165 12.8578 8.142 12.7324 8.136C12.6713 8.133 12.6108 8.1685 12.5619 8.2095L12.5789 8.026C12.5821 7.811 12.6267 7.6215 12.6851 7.461L12.6846 7.4615ZM10.5138 7.9735C10.5265 7.991 10.6083 8.039 11.0461 8.1495C11.5912 8.287 12.2803 8.2095 12.4009 8.1945C12.3988 8.20971 12.3949 8.22464 12.3892 8.239C12.3892 8.4105 12.4184 8.534 12.4402 8.644C12.4684 8.798 12.5093 8.9105 12.5268 9.014L12.5311 9.0105C12.6554 9.69399 12.8291 10.577 12.3892 11.0345C12.411 11.1305 12.4259 11.268 12.3966 11.426C12.3788 11.5173 12.3519 11.6068 12.3164 11.6935C12.2923 11.7506 12.2731 11.8095 12.259 11.8695C11.6746 11.9405 11.3266 11.897 11.1646 11.862C11.2299 11.675 11.3808 11.485 11.63 11.4945C11.6183 11.039 11.4897 10.883 11.3585 10.549C11.5684 10.1075 11.5174 9.71649 11.6884 9.125C11.5572 9.2555 11.4547 9.72949 11.3675 10.018C11.2581 10.437 11.0684 10.842 10.5573 11.165C10.5573 11.275 10.5207 11.357 10.4771 11.412C10.382 11.5425 10.2582 11.584 10.2147 11.797C10.2731 11.728 10.3528 11.6665 10.3528 11.687C10.3508 11.7692 10.3463 11.8514 10.3395 11.9335L10.3459 11.934C10.2582 12.456 10.0686 12.6965 9.95168 12.9915C9.87146 13.2045 9.90068 13.6715 9.87146 13.6785C9.66691 13.72 9.35345 13.6445 9.26579 13.6035C9.35186 13.0335 9.27589 12.4645 9.49743 11.8035L9.48946 11.8005C9.57447 11.5235 9.74342 11.3615 9.98834 11.0685C9.9028 10.8085 9.7057 10.2485 10.1297 8.9775C10.147 8.97083 10.1656 8.96266 10.1854 8.953L10.2949 8.8845C10.3161 8.8705 10.3459 8.85 10.3677 8.8365C10.4043 8.8155 10.5648 8.651 10.5866 8.6305C10.6376 8.582 10.6742 8.5685 10.6886 8.5135C10.7178 8.4105 10.5573 8.3075 10.492 8.2385C10.4831 8.2295 10.4755 8.22117 10.4691 8.2135C10.4762 8.19383 10.4837 8.17483 10.4915 8.1565C10.4968 8.094 10.5063 8.027 10.5138 7.9735ZM10.9829 11.9445C11.0095 11.9455 11.0753 12.0055 11.3819 12.0235C11.7325 12.0435 12.1995 11.982 12.3233 11.9545C12.4471 11.927 12.3749 12.0095 12.36 12.092L12.3462 12.1765C12.1342 12.2435 11.8106 12.2705 11.5939 12.2775C11.3851 12.284 11.1444 12.2715 10.9771 12.2225C10.9516 12.0925 10.9436 11.9875 10.9733 11.9475C10.9745 11.9463 10.976 11.9454 10.9777 11.9448C10.9794 11.9443 10.9812 11.9442 10.9829 11.9445ZM12.3143 12.3675C12.3037 12.435 12.2957 12.479 12.2835 12.5535C12.0773 12.6135 11.8117 12.6145 11.6088 12.621C11.4287 12.6289 11.2483 12.6171 11.0711 12.586L11.0536 12.5315L11.019 12.4055C11.1141 12.4225 11.3006 12.445 11.63 12.449C11.8613 12.4562 12.0922 12.4287 12.3143 12.3675ZM12.258 12.71C12.2213 12.93 12.2288 13.603 12.2505 13.7885C12.258 13.8435 12.7542 14.0495 12.929 14.1735C12.9858 14.216 13.0666 14.252 13.1532 14.2845C13.1755 14.3055 13.2148 14.337 13.2579 14.386C13.3439 14.4925 13.2855 14.604 13.1861 14.649C13.0459 14.6455 12.8844 14.623 12.6155 14.585C12.2463 14.533 12.0157 14.5345 11.6964 14.532V14.5305C11.6157 14.393 11.6667 14.1665 11.6667 14.1665C11.5186 14.1624 11.3728 14.1318 11.2369 14.0765L11.2432 14.0635C11.3675 13.8235 11.3601 13.768 11.3235 13.356C11.2985 13.067 11.2193 12.9145 11.1455 12.7585C11.2353 12.7665 11.3628 12.776 11.6008 12.779C11.8222 12.7841 12.0432 12.7609 12.258 12.71ZM9.43899 13.752C9.56809 13.752 9.75776 13.768 9.79814 13.802V13.809C9.80558 13.8915 9.8858 14.0085 9.85658 14.07C9.84224 14.1045 9.80558 14.0495 9.75457 14.036C9.77636 14.166 9.8348 14.4065 9.92246 14.592C9.9809 14.716 9.94424 14.805 9.74714 14.8395C9.57181 14.8465 9.34602 14.8395 9.15635 14.798C8.93746 14.695 8.86414 14.64 8.90824 14.448C8.94437 14.3105 9.17069 14.153 9.3678 14.029C9.25835 14.036 9.14147 14.1115 9.15635 14.022C9.18557 13.8435 9.26579 13.857 9.3168 13.768C9.30617 13.758 9.36142 13.752 9.43899 13.752Z" fill="#242938"/>
</g>
<defs>
<clipPath id="clip0_103_150">
<rect width="18" height="18" fill="white"/>
</clipPath>
</defs>
</svg>
