<svg width="18" height="18" viewBox="0 0 18 18" fill="none" xmlns="http://www.w3.org/2000/svg">
<g clip-path="url(#clip0_103_146)">
<path d="M18 9C18 4.02944 13.9706 0 9 0C4.02944 0 0 4.02944 0 9C0 13.9706 4.02944 18 9 18C13.9706 18 18 13.9706 18 9Z" fill="#D4D4D8"/>
<g clip-path="url(#clip1_103_146)">
<path d="M4.72766 8.24122C4.3555 8.40586 3.37062 9.14703 3.18092 9.36663C2.98393 9.58623 2.92556 9.24312 3.12981 8.67354C3.29029 8.21374 3.69892 7.58926 4.3847 7.05402C4.78591 6.74522 5.66873 6.29916 6.20859 6.03839C6.31804 5.98344 7.73342 5.42077 8.99557 5.1394C9.10502 5.11192 8.86426 5.31095 8.82775 5.42077C8.63805 5.94231 4.85159 8.17944 4.85159 8.17944L4.72766 8.24122ZM10.0607 14.534C10.1264 14.9046 10.068 14.932 9.65953 14.98C9.25094 15.0281 8.9518 14.884 8.84239 14.7879C8.7329 14.6918 8.71108 14.4791 8.82049 14.287C8.88621 14.1634 8.95184 14.1223 8.98835 13.9713C9.02478 13.8272 9.05399 13.7929 9.08316 13.738C9.11232 13.6899 9.11967 13.6418 9.12693 13.3056C9.13423 12.9694 9.12693 12.338 9.16344 12.0704C9.19995 11.7959 10.4621 12.1939 10.4621 12.1939C10.4621 12.1939 10.1629 12.8939 10.0827 13.0654C10.0024 13.237 10.0097 13.5664 10.0097 13.635C10.0097 13.7036 9.98054 13.8409 9.95863 13.8477C9.93672 13.8546 10.0317 14.033 9.98784 14.136C9.95863 14.232 10.0535 14.4791 10.0607 14.534ZM10.5423 4.04142C10.4984 3.78065 10.5423 3.2659 10.6006 3.18364C10.783 2.95027 11.746 2.92283 11.9503 3.19734C12.0379 3.32085 12.0306 3.60905 12.016 3.79435C12.0015 3.97964 11.9503 4.37766 11.943 4.50809C11.9358 4.60417 10.8779 4.75508 10.6444 4.49435C10.5787 4.42574 10.5423 4.04142 10.5423 4.04142ZM12.6872 13.8683C13.1323 14.1703 13.4751 14.2252 13.7013 14.335C13.9274 14.4448 13.8691 14.6575 13.4897 14.7193C13.1833 14.7742 12.7018 14.6644 12.3808 14.6644C12.0598 14.6644 11.3448 14.6987 11.1551 14.5752C10.9362 14.4311 11.0311 14.1634 11.0311 14.1634C11.0895 14.0125 11.2353 13.6762 11.1915 13.4017C11.1478 13.1272 11.0894 12.9762 10.98 12.7223C10.8705 12.4684 10.7903 11.844 10.8925 11.8096C10.9946 11.7753 10.9654 11.8096 11.0967 11.8371C11.228 11.8645 11.374 11.9057 11.6585 11.9057C11.943 11.9057 12.2567 11.8645 12.3662 11.8439C12.4756 11.8234 12.5632 11.8027 12.5267 12.0155C12.4902 12.2282 12.3808 12.6262 12.3735 12.9351C12.3662 13.2439 12.3662 13.6007 12.3881 13.6625C12.41 13.7242 12.5705 13.7929 12.6872 13.8683" fill="black"/>
<path d="M11.1255 4.7276C10.323 5.37956 8.76895 5.5579 6.46354 6.39516C5.8726 6.60788 4.29674 7.24607 3.91736 7.91176C5.19408 7.21867 5.6683 8.17253 5.77045 9.15382C5.86525 10.0734 6.35409 10.5538 7.60894 10.5263C8.9003 10.4989 9.29425 11.2057 9.65172 12.036C10.3448 8.85871 11.4538 8.24114 12.1687 7.69904C13.6863 6.53924 11.8186 4.49427 11.1255 4.7276Z" fill="#88CE02"/>
<path d="M11.1255 4.72762C9.19942 5.35893 7.29526 5.51675 5.05548 6.81372C4.52292 7.12253 3.39938 7.82249 3.18048 9.16067C3.99758 8.30972 5.88714 7.23922 8.1999 6.55986C9.36721 6.21671 10.2208 5.99029 11.2568 5.61279C11.1839 5.1736 11.1839 5.00204 11.1255 4.72754" fill="#88CE02"/>
<path d="M13.5841 8.48809C13.5841 8.48809 13.4455 8.93415 13.1683 9.07831C13.1683 9.07831 12.964 9.14692 12.5555 8.93419C12.4387 8.87245 12.3512 8.65973 12.3584 8.59104C12.3657 8.42635 12.4752 8.35088 12.4752 8.35088C12.4752 8.35088 12.5919 8.16558 12.7305 8.17245C12.8692 8.17932 13.1026 8.19989 13.1756 8.13811C13.2412 8.0695 13.5987 8.26162 13.5841 8.48809ZM10.6075 4.17169C10.6075 4.17169 10.5783 4.52166 10.5272 4.74126C10.5199 4.78247 10.3011 4.803 10.1406 4.86478C10.447 5.68825 12.2928 5.68138 12.5336 5.27649C12.4169 5.20106 12.1834 5.08437 12.074 5.0432C11.9645 5.00199 11.9718 5.00886 11.9645 4.81674C11.9572 4.62461 11.9426 4.26777 11.928 4.17169C11.9134 4.0756 10.7826 4.07556 10.6075 4.17169Z" fill="black"/>
<path d="M10.6805 4.17184C10.6805 4.17184 10.6805 4.37083 10.6586 4.56295C10.6513 4.6522 10.644 4.70707 10.6294 4.77568C10.6221 4.81689 10.8775 4.98154 10.9504 5.34525C11.3006 6.07952 12.1105 5.71584 12.446 5.36586C12.3293 5.29034 12.1396 5.18744 11.9208 5.10509C11.8113 5.06388 11.8624 4.97471 11.8551 4.78259C11.8478 4.59043 11.8186 4.30905 11.804 4.2061C11.7895 4.10315 10.8556 4.07572 10.6805 4.17184Z" fill="#EFEFEF"/>
<path d="M10.6075 4.1717C10.6075 4.1717 10.6002 4.29522 10.5784 4.43934C10.6732 4.52851 10.7972 4.65206 10.8921 4.72754C10.9578 4.78249 11.1182 4.77562 11.2642 4.77562C11.3955 4.77562 11.5122 4.78932 11.5633 4.76188C11.6801 4.70693 11.8478 4.56972 11.9427 4.46677C11.9354 4.34326 11.9281 4.22661 11.9209 4.1717C11.9135 4.07558 10.7826 4.07558 10.6075 4.1717Z" fill="black"/>
<path d="M11.2714 4.69344C11.1838 4.69344 11.0817 4.68657 11.0015 4.67284C10.9649 4.66597 10.9285 4.6454 10.8993 4.63166C10.8482 4.59732 10.7972 4.55619 10.7389 4.51498C10.6221 4.43263 10.6148 4.38459 10.6148 4.36407C10.6659 3.9317 10.6002 3.56803 10.6002 3.56803C10.6002 3.56803 10.5491 3.38269 10.8264 3.33465C11.1036 3.28661 11.2714 3.27979 11.2714 3.27979C11.2714 3.27979 11.4465 3.27979 11.7164 3.33465C11.9937 3.38273 11.9426 3.56803 11.9426 3.56803C11.9426 3.56803 11.8769 3.9317 11.928 4.36407C11.928 4.38459 11.9207 4.43263 11.804 4.51498C11.7018 4.58362 11.6216 4.6591 11.5414 4.67284C11.4611 4.68657 11.3589 4.69344 11.2714 4.69344Z" fill="black"/>
<path d="M11.2715 3.10132C10.7899 3.10132 10.6951 3.22483 10.5565 3.36209C10.5273 3.39639 10.5492 3.60225 10.6003 4.04148H10.6659C10.6659 4.04148 10.6221 3.91792 10.6294 3.7738C10.6367 3.62972 10.6659 3.63659 10.644 3.60225C10.6148 3.56104 10.5565 3.49243 10.6878 3.42382C10.8191 3.35522 11.0234 3.47873 11.2715 3.4856C11.5195 3.47873 11.7311 3.35522 11.8624 3.42382C11.9937 3.49243 11.9353 3.56108 11.9062 3.60225C11.877 3.64346 11.9135 3.62972 11.9208 3.7738C11.9281 3.91788 11.8843 4.04148 11.8843 4.04148H11.9499C11.9937 3.60229 12.0229 3.41013 12.001 3.37578C11.877 3.22483 11.7529 3.10815 11.2715 3.10132ZM13.5842 8.50887C13.5842 8.50887 13.4455 8.92746 13.1757 9.07158C13.1172 9.04411 13.1245 9.00298 13.0734 8.9412C13.0588 8.92063 13.0078 8.90685 12.9859 8.88629C12.964 8.86568 12.9713 8.83138 12.9348 8.80395C12.9056 8.77647 12.8838 8.79708 12.8546 8.77647C12.8254 8.74908 12.8181 8.71473 12.7962 8.69421C12.7816 8.68047 12.7233 8.6736 12.7087 8.65986C12.6722 8.62552 12.3512 8.56378 12.3658 8.49514C12.3949 8.39219 12.4534 8.31671 12.4534 8.31671C12.4534 8.31671 12.592 8.12459 12.7306 8.13142C12.8692 8.13829 13.0005 8.16576 13.0735 8.10399C13.1538 8.03534 13.6061 8.28928 13.5842 8.50883" fill="black"/>
<path d="M12.6357 5.47566C12.6357 5.47566 13.0954 5.37271 13.4091 5.65408C13.7228 5.94232 13.7009 6.29913 13.6061 6.51873C13.6863 6.60794 13.8322 6.85497 13.7228 7.15008C14.2043 7.53432 13.9927 8.12455 13.5623 8.5157C13.5623 8.5157 13.4601 8.15885 13.0516 8.13824C13.0662 8.00103 12.6722 7.89121 12.8546 7.53436C12.5774 7.47259 12.5847 7.29416 12.5409 7.07457C12.5044 6.85497 12.6357 5.47566 12.6357 5.47566Z" fill="black"/>
<path d="M12.4679 5.66777C12.4679 5.66777 13.0005 5.41387 13.3142 5.70211C13.6279 5.99032 13.5403 6.30595 13.4455 6.52555C13.5258 6.61472 13.7155 6.8687 13.5987 7.1706C13.5768 7.23925 13.4163 7.23925 13.2996 7.41767C13.5914 7.25977 13.7738 7.30098 13.8395 7.49997C13.9416 7.80878 13.7154 8.17933 13.5185 8.38523C13.5185 8.37836 13.5112 8.37149 13.5112 8.36462C13.482 8.46761 13.4455 8.66656 13.2266 8.88615C13.1172 8.99597 13.0296 8.98228 12.9056 8.9548C12.7597 8.92046 12.7086 8.85868 12.5044 8.75581C12.3876 8.69403 12.4533 8.61852 12.4533 8.55678C12.4533 8.54304 12.4679 8.52244 12.4898 8.49504C12.5044 8.4607 12.5481 8.40583 12.6138 8.34405C12.6138 8.34405 12.7086 8.22054 12.8473 8.22737C12.986 8.23419 13.1318 8.20684 13.1683 8.1725C13.1683 7.93234 12.8765 7.92543 12.9786 7.51371C12.9859 7.4931 13.0224 7.45876 13.1391 7.44506C12.964 7.41072 12.8838 7.40385 12.7597 7.29411C12.6722 7.21864 12.6065 7.12256 12.5846 6.99904C12.5408 6.78632 12.4679 5.66777 12.4679 5.66777Z" fill="#EFEFEF"/>
<path d="M10.9285 5.23545C10.8847 5.1805 10.6586 4.90603 10.2281 4.79626C10.1041 4.76191 10.0238 4.85799 9.89986 4.92664C9.86335 4.90603 9.70282 4.83743 9.61528 4.88543C9.52774 4.93343 9.4694 4.98151 9.38182 5.01581C9.338 4.99521 9.22134 4.99521 9.12649 5.02955C9.03165 5.05698 8.88573 5.11872 8.74711 5.29715C8.65957 5.59226 10.2938 5.37262 10.2938 5.37262L10.9285 5.23545Z" fill="black"/>
<path d="M10.9431 5.23553C10.7096 5.16001 10.7462 4.90611 10.2282 4.86494C10.126 4.85807 10.0603 4.93355 9.98739 4.98159C10.0239 5.01593 10.0603 5.0708 10.0822 5.12567C10.0166 5.0571 9.89985 4.96785 9.78305 4.94724C9.67365 4.92672 9.60067 5.00219 9.48396 5.0571C9.50582 5.07763 9.52773 5.11197 9.55689 5.15318C9.4547 5.0914 9.38181 5.07084 9.24319 5.11884C9.14835 5.14627 8.96596 5.22179 8.82734 5.40708C8.7398 5.70215 10.3011 5.37274 10.3011 5.37274L10.9431 5.23553Z" fill="#88CE02"/>
<path d="M12.3147 5.3453C12.3147 5.3453 12.3147 5.26982 12.3074 5.20122C12.3074 5.18748 12.249 5.15314 12.249 5.13944L12.2344 5.1257C12.2344 5.1257 12.3512 5.06396 12.4387 5.09827C12.5335 5.12574 12.5846 5.24239 12.5846 5.24239C12.7524 5.18752 12.767 5.24926 12.8473 5.3316C13.0224 5.29726 13.0442 5.35903 13.1537 5.51002C13.1537 5.51002 13.0224 5.48942 12.767 5.53059C12.519 5.56485 12.3147 5.33843 12.3147 5.3453Z" fill="black"/>
<path d="M12.2855 5.31105C12.2855 5.31105 12.3293 5.27671 12.3147 5.26984C12.395 5.22863 12.5044 5.18067 12.5555 5.31105C12.7233 5.2561 12.7452 5.33166 12.8254 5.414C13.0297 5.32479 13.0442 5.43453 13.0589 5.48261C12.9932 5.48261 12.8984 5.48948 12.767 5.50317C12.519 5.53752 12.2782 5.30414 12.2855 5.31105Z" fill="#88CE02"/>
<path d="M9.80498 5.1394C9.80498 5.1394 10.2208 5.27662 10.571 5.25601C10.9213 5.22862 11.5195 5.20114 11.8405 5.37957C11.8405 5.37957 12.1688 5.26975 12.4752 5.34522C12.7817 5.4207 13.3434 5.9148 13.1756 6.43633C13.161 6.47068 13.0662 6.52555 12.9567 6.55989C12.9567 6.55989 13.0152 6.79322 12.913 6.98534C12.8108 7.17064 12.5847 7.52749 12.5774 8.02159C12.5701 8.10393 12.5555 8.27549 12.5409 8.35779C11.9718 8.33726 11.0963 8.13819 10.2355 8.15197C10.2427 8.06276 10.25 8.00785 10.2574 7.91864H10.2792C10.2354 7.69217 10.2208 7.57549 10.1771 7.40397C9.89982 7.23928 9.60794 7.04712 9.35996 6.6834C9.1192 6.31969 9.80498 5.1394 9.80498 5.1394ZM12.6211 8.84506C12.6211 8.84506 13.0734 10.3685 12.5409 11.0068C12.5409 11.0068 12.6211 11.3018 12.4387 11.6175C12.4095 11.7547 12.373 11.8783 12.3512 12.0155C12.2564 12.5851 12.0958 12.8252 12.0521 13.7379L11.6143 13.7311C11.6143 13.7311 11.5632 13.0723 11.41 12.7223C11.3225 12.5233 10.9795 12.2556 10.9942 11.9881C11.0088 11.7822 11.0525 11.6106 11.4247 11.3361C11.4538 10.9381 11.0307 10.5607 11.0963 9.07839L12.6211 8.84506Z" fill="black"/>
<path d="M12.4898 8.78328C12.6065 9.48324 12.8765 10.5194 12.3876 11.0273C12.4095 11.1234 12.4241 11.2606 12.395 11.4184C12.3803 11.5007 12.3511 11.59 12.3147 11.686C12.2417 11.8507 12.2125 12.0909 12.1907 12.235C12.0958 12.8046 12.0958 12.8321 12.052 13.7448L11.6143 13.7379C11.6143 13.7379 11.5632 13.0791 11.41 12.7291C11.3225 12.5302 11.1401 12.3586 11.1255 12.091C11.1109 11.8851 11.2641 11.4734 11.6289 11.4871C11.607 10.6567 11.1984 10.8214 11.089 9.09209L12.4898 8.78328ZM9.80496 5.1394C9.80496 5.1394 9.96548 5.18744 10.1406 5.20114C10.3157 5.21488 10.5054 5.20114 10.6731 5.19427C11.0233 5.16684 11.5194 5.13254 11.8477 5.31096C11.8477 5.31096 12.0301 5.25601 12.2272 5.26975C12.3147 5.27662 12.4023 5.34522 12.5044 5.3727C12.8254 5.44817 13.1318 5.9491 12.9931 6.40207C12.9785 6.43641 12.8764 6.40207 12.7597 6.43641C12.7816 6.53246 12.7962 6.75205 12.6794 6.98538C12.5554 7.21872 12.3949 7.52066 12.4241 8.0971C11.6581 8.06276 11.3151 8.01476 10.5564 7.98045C10.4907 7.72652 10.4469 7.47258 10.4396 7.34223C10.5418 7.29415 10.6001 7.25306 10.6804 7.17068C10.4616 7.20502 10.374 7.19128 10.2426 7.1226C10.1113 7.05399 9.87786 6.83439 9.7611 6.69031C9.74654 6.67658 9.66634 6.903 9.48396 6.90991C9.41823 6.8207 9.69547 6.56676 9.64439 6.47072C9.46205 6.1207 9.80496 5.1394 9.80496 5.1394Z" fill="#EFEFEF"/>
<path d="M12.5481 8.21373C12.5481 8.21373 12.5627 8.46076 12.5627 8.5225C12.5627 8.59115 12.6211 8.79696 12.6284 8.89309C12.5481 9.02347 12.198 9.31854 11.5632 9.42836C10.9358 9.55187 10.1041 8.62545 10.1041 8.62545C10.126 8.53624 10.1989 8.27547 10.25 8.13822C10.2573 8.12448 10.2719 8.09018 10.2719 8.07648C10.3376 7.98727 12.5481 8.21373 12.5481 8.21373Z" fill="black"/>
<path d="M12.3877 8.23438C12.3877 8.40589 12.4169 8.52945 12.4388 8.63923C12.4752 8.83826 12.5336 8.96864 12.5336 9.09902C12.5336 9.497 11.9791 9.4284 11.5121 9.44214C10.8847 9.56569 10.3522 8.63927 10.3522 8.63927C10.3959 8.48141 10.4251 8.30302 10.4907 8.15199C10.498 8.06969 10.5127 7.96674 10.52 7.9187C11.41 7.9187 12.0374 7.96678 12.4023 8.001C12.4169 8.07652 12.4023 8.2069 12.3877 8.23434" fill="#EFEFEF"/>
<path d="M11.6873 9.11945C11.6873 9.11945 11.3006 8.30967 10.1405 8.54992C9.86335 9.28414 9.49122 10.1283 9.73203 11.0409C9.49122 11.3498 9.21399 11.5214 9.21399 12.0909C9.21399 12.6604 9.2432 12.7565 9.2432 12.7565L10.0968 12.7978C10.0968 12.7978 10.374 12.4615 10.4834 12.0978C10.5126 11.9948 10.5418 11.8096 10.5199 11.5968C10.5491 11.5557 10.6731 11.4596 10.6877 11.2743C10.6877 11.2743 11.1036 11.0685 11.3444 10.5675C11.5706 10.1145 11.5121 9.72333 11.6872 9.11941" fill="black"/>
<path d="M11.6873 9.11948C11.6654 9.04401 11.3736 8.30288 10.2938 8.52243C9.65909 10.1145 9.89255 10.7733 9.9874 11.0615C9.5569 11.5762 9.35995 11.686 9.44753 12.7291H10.0166C10.2792 12.3379 10.3376 12.1938 10.3522 11.6791C10.3522 11.6585 10.272 11.7203 10.2136 11.7889C10.2574 11.5762 10.3814 11.535 10.4762 11.4047C10.52 11.3497 10.5565 11.2674 10.5565 11.1576C11.0672 10.8351 11.2569 10.4302 11.3663 10.0116C11.4538 9.72336 11.556 9.24987 11.6873 9.11944" fill="#EFEFEF"/>
<path d="M9.88524 8.01465C9.88524 8.01465 10.0822 8.02152 10.2574 8.07643C10.4252 8.13129 10.4252 8.1656 10.4908 8.23424C10.5565 8.30293 10.717 8.4058 10.6878 8.50875C10.6732 8.56366 10.6367 8.57736 10.5857 8.6254C10.5638 8.646 10.4032 8.81069 10.3668 8.83125C10.3449 8.84499 10.3157 8.8656 10.2938 8.87934L10.1844 8.94794C10.1114 8.98228 10.0604 9.00285 9.98013 8.99598C9.98013 8.99598 9.79774 8.98911 9.68099 8.87247C9.68099 8.87247 9.66638 8.81752 9.69559 8.79012C9.69559 8.79012 9.54237 8.66657 9.4986 8.58422C9.45479 8.50192 9.45479 8.38527 9.484 8.3235C9.4986 8.26168 9.78309 8.09012 9.88524 8.01465ZM10.0677 14.6917L10.0458 14.8633C10.0458 14.8633 9.98013 14.9388 9.49134 14.9319C8.99521 14.9251 8.86389 14.781 8.82012 14.7055L8.79095 14.5271C8.79095 14.5271 8.8858 14.3967 8.90771 14.3967C9.06819 14.4104 9.6154 14.6163 9.99478 14.6712C10.0312 14.6712 10.0385 14.6848 10.0677 14.6917ZM11.1255 14.3418C11.1255 14.4172 11.1182 14.4172 11.1182 14.4927C11.2058 14.5545 11.4247 14.5888 11.8405 14.5819C12.446 14.5682 13.0078 14.7535 13.6936 14.6437L13.7009 14.5201L13.6352 14.5133L11.2058 14.328L11.1255 14.3418Z" fill="black"/>
<path d="M11.6581 14.5821H11.8405C12.2345 14.5684 12.6066 14.6507 13.0078 14.6714C13.2194 14.6645 13.482 14.6164 13.4602 14.4723L11.3882 14.3076C11.2642 14.438 11.359 14.5478 11.6581 14.5821ZM9.2797 11.693C9.34538 11.7343 9.79044 11.9813 10.5127 11.9469C10.4981 12.0773 10.5054 12.3313 10.1844 12.7773C10.0239 12.9969 9.8852 13.3812 9.85608 13.8684C9.86338 13.9783 9.92901 14.0743 9.84147 14.2184C9.87068 14.3076 9.98739 14.4861 10.0458 14.5958C10.1041 14.7057 10.1333 14.8292 9.74658 14.836C9.35264 14.8429 8.71789 14.8017 8.80547 14.5135C8.84929 14.3625 8.9733 14.2047 8.98791 14.1429C9.00251 14.0812 9.00251 13.8959 9.12648 13.7724C9.23593 13.4293 9.19946 13.0999 9.1776 12.7911C9.14109 12.4685 9.13378 11.9539 9.2797 11.6931M9.95822 6.10024C10.4762 5.44828 10.0385 4.92679 9.20681 5.08456C8.87115 5.14634 8.53559 5.36598 8.51368 5.76396C8.40423 5.7777 8.15621 5.79139 8.03215 6.21689C7.93735 6.54626 7.88627 6.608 7.71845 6.77269C7.609 6.88937 7.72575 7.12953 7.80599 7.30117C8.07592 7.89131 8.90762 7.94618 9.46939 8.39224C9.65908 8.3442 9.85608 8.14521 9.91441 8.01487C9.44018 7.48638 9.54233 7.28056 9.35264 7.00606C9.55694 6.93737 10.0239 6.66986 9.95822 6.10024Z" fill="black"/>
<path d="M9.85607 6.05895C9.8852 6.01774 9.93631 5.92857 9.95822 5.89423C9.96552 5.88736 10.0458 6.01774 10.0531 6.01091C10.25 5.70893 10.3011 5.26974 10.0749 5.22857C10.0238 5.2217 9.92901 5.20114 9.84877 5.17362C9.70285 5.12562 9.57154 5.12562 9.33803 5.16679C9.01707 5.2217 8.69606 5.4413 8.69606 5.75697C8.69606 5.77758 8.92218 5.83932 8.98786 6.09326C8.87841 5.9491 8.68872 5.79128 8.46252 5.92853C8.2218 6.07261 8.34581 6.40203 8.0248 6.7451C7.91535 6.86178 7.92996 6.99904 8.04671 7.27354C8.23636 7.70586 9.13374 7.9392 9.62257 8.35091C9.73928 8.30287 9.81952 8.1931 9.87789 8.11075C9.54959 7.78821 9.41827 7.48627 9.32343 7.26667C9.20672 7.01277 9.07536 6.86869 8.81999 6.67645C8.95135 6.72453 9.05354 6.77253 9.11183 6.8137C9.17747 6.85491 9.27231 6.86178 9.3599 6.83431C9.67369 6.73144 9.84147 6.31968 9.85603 6.05895" fill="#EFEFEF"/>
<path d="M13.0297 6.16879C13.0078 6.42956 12.8035 6.29918 12.6941 6.25114C12.4752 6.16192 12.2563 6.10019 12.001 6.10019C11.7456 6.10019 11.4173 6.12079 11.1328 6.1894C10.7389 6.29231 10.6221 6.28548 10.447 6.2031C10.2719 6.11388 9.96554 5.89429 9.96554 5.89429C9.96554 5.89429 9.95823 5.96293 10.0312 6.05215C10.126 6.16192 10.3376 6.29918 10.6221 6.38835C10.7607 6.42956 10.8702 6.40209 10.9942 6.37465C11.6435 6.2237 12.3293 6.19623 12.9057 6.5256C12.9349 6.53934 13.037 6.49813 13.0808 6.43639C13.1391 6.34722 13.0297 6.16879 13.0297 6.16879Z" fill="black"/>
<path d="M9.71014 8.7832C9.76852 8.81755 9.84146 8.83815 9.9217 8.89989C9.9217 8.89989 9.85606 8.89989 9.8269 8.87246C9.79038 8.85185 9.71745 8.79011 9.71014 8.7832Z" fill="#001423"/>
<path d="M11.8186 3.34148C11.7967 3.27974 11.6362 3.16992 11.2642 3.16992C10.8629 3.16992 10.7461 3.28657 10.7389 3.34835C10.7389 3.36895 10.7097 3.58855 10.7024 3.67772C10.7024 3.67772 10.7024 3.78754 10.7097 3.95222C10.717 4.062 10.7462 4.12378 10.7607 4.2679C10.7753 4.41881 10.8191 4.51493 10.8993 4.63845C10.9359 4.65901 10.965 4.67966 11.0015 4.68653C11.1474 4.71392 11.4028 4.72079 11.5414 4.68653C11.6216 4.66592 11.7238 4.53554 11.7456 4.41885C11.7749 4.27477 11.804 4.17182 11.8113 4.08261C11.8259 3.99344 11.8332 3.79441 11.8405 3.7395C11.8624 3.58855 11.8259 3.35521 11.8186 3.34152" fill="#EFEFEF"/>
<path d="M11.0525 11.8232C11.0525 11.8232 11.4392 11.9811 12.395 11.8438C12.395 11.8438 12.125 13.1202 12.2491 13.7584C12.2491 13.7584 12.3731 13.9231 13.2923 14.2388C13.2923 14.2388 13.7009 14.3348 13.6863 14.527C13.6863 14.527 13.7009 14.5682 13.2048 14.5544C12.7087 14.5407 12.2417 14.4584 11.9135 14.4584C11.5852 14.4584 11.2349 14.4721 11.1766 14.3829C11.1109 14.3005 11.1912 14.0878 11.286 13.9643C11.3883 13.8339 11.359 13.7378 11.3517 13.5045C11.3297 12.8937 10.8337 12.2624 11.0525 11.8232Z" fill="black"/>
<path d="M10.9723 11.9401C10.9212 12.0087 10.9795 12.2694 11.0525 12.5234C11.1255 12.7772 11.286 12.9282 11.3225 13.3468C11.359 13.7585 11.3663 13.8135 11.2422 14.0536C11.1182 14.2938 11.0817 14.5134 11.5121 14.5203C11.9425 14.5272 12.1761 14.5134 12.6138 14.5752C13.0515 14.6369 13.2048 14.6575 13.4455 14.6232C13.6863 14.5889 13.7373 14.5134 13.6352 14.4448C13.5331 14.3762 13.1099 14.3007 12.9275 14.1634C12.7524 14.0399 12.2563 13.834 12.249 13.7792C12.2271 13.5938 12.2198 12.9213 12.2563 12.7017C12.2928 12.4821 12.3438 12.1665 12.3584 12.0841C12.3731 12.0018 12.446 11.9194 12.3219 11.9469C12.198 11.9743 11.731 12.0361 11.3808 12.0155C11.0307 11.9949 10.9942 11.9194 10.9723 11.9401Z" fill="#88CE02"/>
<path opacity="0.3" d="M11.2204 14.0605C11.3444 14.1154 11.5268 14.1566 11.6654 14.1566C11.6654 14.1566 11.6143 14.3831 11.6946 14.5203C11.7748 14.6575 11.1109 14.5752 11.1109 14.5752L11.0818 14.088L11.2204 14.0605ZM13.1538 14.6507C13.2705 14.6163 13.3508 14.4929 13.2559 14.3762C13.1538 14.2595 13.0662 14.239 13.1975 14.2321C13.3289 14.2252 13.8104 14.4997 13.8104 14.4997L13.5623 14.7124L13.1538 14.6507ZM10.9504 12.2076C11.1182 12.2626 11.3736 12.2763 11.5925 12.2694C11.8114 12.2626 12.1396 12.2351 12.3512 12.1665C12.5628 12.0979 12.4752 12.2419 12.4752 12.2419L12.3585 12.3449C12.3585 12.3449 12.0813 12.4478 11.629 12.441C11.0964 12.4341 10.9359 12.3792 10.9359 12.3792L10.9504 12.2076ZM10.965 12.5508C11.1328 12.6057 11.3881 12.6194 11.607 12.6126C11.8259 12.6057 12.1178 12.6057 12.3293 12.5302C12.4169 12.5028 12.3658 12.6194 12.3658 12.6194L12.3293 12.6812C12.3293 12.6812 12.0448 12.7773 11.5997 12.7703C11.0672 12.7635 10.9723 12.7223 10.9723 12.7223L10.965 12.5508Z" fill="black"/>
<path d="M10.4835 7.74023C10.4835 7.78832 11.0525 8.05587 11.3662 8.11078C11.68 8.16569 12.3366 8.11078 12.4387 8.09021L12.4241 8.18629C12.4241 8.18629 11.6435 8.29611 11.0452 8.14512C10.447 7.99413 10.5127 7.95983 10.5127 7.95983L10.4835 7.74023Z" fill="black"/>
<path d="M9.26506 13.5937C9.3526 13.6349 9.66635 13.7104 9.8706 13.6692C9.89977 13.6623 9.8706 13.1957 9.95089 12.983C10.0676 12.6879 10.2573 12.4477 10.3448 11.9262C10.0384 11.8987 9.68821 11.8232 9.50578 11.7683C9.27236 12.4408 9.35265 13.0173 9.26506 13.5937ZM9.75394 14.026C9.80501 14.0398 9.84144 14.0947 9.85608 14.0604C9.88521 13.9986 9.80497 13.882 9.79766 13.7996V13.7928C9.73203 13.7379 9.28701 13.731 9.31618 13.7584C9.2651 13.8476 9.18486 13.8339 9.1557 14.0124C9.14114 14.1015 9.25789 14.0261 9.36725 14.0192C9.1703 14.1427 8.94414 14.3006 8.90763 14.4378C8.86386 14.6299 8.93684 14.6849 9.1557 14.7878C9.34543 14.829 9.57155 14.8359 9.74663 14.829C9.94363 14.7947 9.98014 14.7055 9.92176 14.5819C9.83413 14.3966 9.7758 14.1565 9.75394 14.026Z" fill="#EFEFEF"/>
<path d="M9.83422 5.11182C10.0749 5.2422 10.4106 5.2079 10.5346 5.20103C10.5638 5.20103 10.8556 5.15299 10.8702 5.15982C10.8994 5.16669 10.8994 5.18729 10.8994 5.18729C10.8994 5.18729 10.7899 5.24216 10.5419 5.2559C10.3084 5.26959 10.0312 5.2559 9.87799 5.18729C9.69556 5.11182 9.83422 5.11182 9.83422 5.11182ZM12.3148 5.2422C12.3585 5.26963 12.6431 5.37258 12.7671 5.4961C12.8765 5.60592 12.8182 5.59905 12.7962 5.57161C12.7671 5.53727 12.5409 5.39315 12.4534 5.35889C12.3658 5.32454 12.2563 5.26281 12.2563 5.24907C12.2563 5.23533 12.3148 5.2422 12.3148 5.2422Z" fill="black"/>
<path d="M9.79766 8.09014C10.0092 8.07641 10.2281 8.12449 10.3667 8.2617C10.4397 8.33035 10.5564 8.40578 10.5418 8.47443C10.5418 8.49503 10.498 8.54994 10.4616 8.59111C10.4397 8.61851 10.3741 8.68029 10.3521 8.70089C10.323 8.7215 10.2208 8.79697 10.199 8.81071C10.177 8.82445 10.1478 8.85879 10.126 8.86562C10.0531 8.89996 9.97279 8.87249 9.89986 8.83818C9.82692 8.80388 9.91446 8.79697 9.83418 8.7421C9.63723 8.61172 9.52773 8.52247 9.60802 8.26857C9.61532 8.22053 9.69552 8.16562 9.79766 8.09014Z" fill="#EFEFEF"/>
<path opacity="0.4" d="M7.93729 6.51887C7.28067 6.7659 5.60997 7.54824 5.13574 7.78844C5.52969 8.02174 5.71207 8.5844 5.77049 9.15402C5.77775 9.20897 5.78506 9.25697 5.79236 9.31184C5.79966 9.35989 5.80695 9.39422 5.81422 9.41483C5.81422 9.42169 5.81422 9.43543 5.82152 9.44222C6.25198 8.33741 7.79133 7.17079 7.8497 7.08157C7.87891 7.0404 7.81319 6.86198 7.91538 6.69046C8.04674 6.47083 8.30211 6.3747 7.93729 6.51887ZM9.49859 11.7C9.83415 11.0686 9.84146 10.4647 9.83415 9.7579C9.83415 9.46279 10.0603 9.0442 9.9436 9.16085C9.50589 9.6206 8.40421 10.4853 7.60898 10.5333C8.72522 10.499 9.16298 11.0274 9.49859 11.7Z" fill="black"/>
<path d="M4.49371 8.37165C4.90956 8.09031 7.0618 7.01294 7.57984 6.86195C8.09779 6.70409 7.93727 6.5188 7.93727 6.5188C7.93727 6.5188 5.83611 7.36971 4.58126 8.10401" fill="black"/>
<path opacity="0.4" d="M10.6221 6.38836C10.4543 6.32658 10.323 6.51187 10.3668 6.6903C10.4106 6.86872 10.8045 7.06771 10.7826 7.71967C10.768 8.25494 10.644 8.4745 10.644 8.4745L10.3668 8.14517C10.3668 8.14517 10.323 7.40399 10.2282 7.29418C10.1333 7.1844 9.83418 6.98537 9.71742 6.88246C9.60071 6.77951 9.84874 6.64226 9.83418 6.45014C9.81957 6.26484 9.95823 5.89426 9.95823 5.89426L10.6221 6.38836ZM11.6362 9.31171C11.6216 9.82634 11.7457 10.5881 11.7967 10.9518C11.8478 11.3155 11.9135 11.343 11.7967 11.5077C11.68 11.6655 11.5268 11.9263 11.5268 11.9263L11.0234 11.8851C11.0234 11.8851 11.4246 11.4047 11.4465 11.3155C11.4684 11.2263 11.2422 10.547 11.2422 10.547L11.6362 9.31171ZM10.6659 4.50807C10.7681 4.72076 10.8921 4.81684 11.089 4.87862C11.2058 4.91983 11.6654 4.9747 11.8478 4.78254C11.928 4.69333 11.877 4.45312 11.877 4.45312L11.4611 4.7688L10.8993 4.67272L10.8337 4.5149L10.6659 4.50807Z" fill="black"/>
<path d="M10.7096 4.98169C10.8993 5.09834 11.3736 5.20815 11.5049 5.22872C11.6362 5.25615 11.8478 5.09834 11.9499 5.05716C12.0594 5.00912 12.2491 4.98169 12.4679 5.16698C12.4898 5.18759 12.4168 5.27676 12.4168 5.27676C12.4095 5.26989 12.3658 5.26989 12.3074 5.24242C12.249 5.21502 12.198 5.19438 12.1104 5.20129C11.7456 5.24242 11.6873 5.3591 11.3663 5.29046C11.0452 5.22181 10.965 5.16694 10.6513 5.18064" fill="#88CE02"/>
<path d="M10.7096 4.98169C10.8993 5.09834 11.3736 5.20815 11.5049 5.22872C11.6362 5.25615 11.8478 5.09834 11.9499 5.05716C12.0594 5.00912 12.2491 4.98169 12.4679 5.16698C12.4898 5.18759 12.4168 5.27676 12.4168 5.27676C12.4095 5.26989 12.3658 5.26989 12.3074 5.24242C12.249 5.21502 12.198 5.19438 12.1104 5.20129C11.7456 5.24242 11.6873 5.3591 11.3663 5.29046C11.0452 5.22181 10.965 5.16694 10.6513 5.18064" stroke="black" stroke-width="0.0961212" stroke-linejoin="round"/>
<path d="M10.644 5.0022C10.8847 5.09828 11.3517 5.20123 11.483 5.22866C11.6143 5.2561 11.8258 5.13258 11.928 5.07084C12.1104 4.96103 12.3438 5.05024 12.4533 5.16692C12.5262 5.24236 12.5555 5.29044 12.5555 5.31101C12.5555 5.33844 12.4679 5.31101 12.4679 5.31101C12.4168 5.2904 12.3585 5.28357 12.3147 5.25606C12.2563 5.22866 12.198 5.18749 12.1105 5.19432C11.7456 5.23553 11.6727 5.35218 11.359 5.28353C11.0453 5.21488 10.965 5.15315 10.6295 5.17371" fill="#88CE02"/>
<path d="M9.51314 11.4115C9.49854 11.3977 9.52775 11.384 9.51314 11.384C9.41834 11.384 9.28698 11.3154 9.214 11.2193C8.9003 10.7939 8.44063 10.5125 7.60893 10.5331C6.36138 10.5606 5.86525 10.0802 5.77045 9.16066C5.71933 8.65973 5.57345 8.17245 5.27431 7.89795L5.09918 8.0009C5.43479 8.2754 5.54424 8.72146 5.61722 9.33221C5.73393 10.2518 6.52186 10.6773 7.44111 10.691C8.39686 10.7047 8.73978 10.89 9.09725 11.3429C9.21396 11.487 9.34532 11.535 9.44742 11.5556L9.51314 11.4115Z" fill="black"/>
<path opacity="0.4" d="M12.8984 6.99902C12.9203 7.10193 12.9786 7.30096 13.0953 7.397C13.1464 7.44504 13.1537 7.45874 13.1099 7.45874C13.0661 7.45874 12.7451 7.44504 12.7451 7.44504L12.6576 7.30096L12.8984 6.99902Z" fill="black"/>
</g>
</g>
<defs>
<clipPath id="clip0_103_146">
<rect width="18" height="18" fill="white"/>
</clipPath>
<clipPath id="clip1_103_146">
<rect width="11" height="12" fill="white" transform="translate(3 3)"/>
</clipPath>
</defs>
</svg>
