<svg width="18" height="18" viewBox="0 0 18 18" fill="none" xmlns="http://www.w3.org/2000/svg">
<rect width="18" height="18" rx="9" fill="#d4d4d8"/>
<path d="M5 5L5.4305 9.80592H10.966L10.7803 11.8672L8.99795 12.3468L7.219 11.8679L7.10005 10.5443H5.497L5.72625 13.0958L8.9976 14L12.2731 13.0958L12.7123 8.21687H6.8912L6.74505 6.5894H12.8569L13 5H5Z" fill="#E14E1D"/>
<path d="M9 5H5L5.4305 9.80594H9V8.21688H6.8912L6.74505 6.58941H9V5ZM9 12.3461L8.99795 12.3468L7.219 11.868L7.10005 10.5444H5.497L5.72625 13.0959L8.9976 14L9.00005 13.9993L9 12.3461Z" fill="#242938"/>
</svg>
