<svg width="18" height="18" viewBox="0 0 18 18" fill="none" xmlns="http://www.w3.org/2000/svg">
<g clip-path="url(#clip0_982_272)">
<path d="M18 9C18 4.02944 13.9706 0 9 0C4.02944 0 0 4.02944 0 9C0 13.9706 4.02944 18 9 18C13.9706 18 18 13.9706 18 9Z" fill="#242938"/>
<path d="M8.93414 12.7306H8.92214C8.80198 12.7311 8.68366 12.7012 8.57821 12.6436L6.16345 11.294C6.02096 11.2142 5.9333 11.0661 5.9333 10.9061V8.1603C5.9333 8.04266 5.95464 7.92981 6.00442 7.83111L4.11628 6.78027C4.03805 6.94479 3.99778 7.13055 4.00009 7.32574V11.8608C4.00152 11.9919 4.0376 12.1204 4.10469 12.2331C4.17177 12.3458 4.26747 12.4387 4.38207 12.5025L8.36477 14.7313C8.54042 14.8301 8.73724 14.8771 8.93174 14.8771V14.8748C8.93645 14.5903 8.93414 13.4499 8.93414 12.7306Z" fill="white"/>
<path d="M6.00202 7.82879C6.05495 7.71908 6.13918 7.62749 6.24408 7.56557L8.51643 6.2372C8.62052 6.17608 8.73881 6.14327 8.85952 6.14203C8.98022 6.1408 9.09915 6.17119 9.20447 6.23018L11.5006 7.51621C11.6037 7.57374 11.6922 7.65415 11.7592 7.75125L13.6166 6.65346C13.5062 6.4944 13.361 6.36254 13.192 6.26788L9.39889 4.14497C9.22526 4.04795 9.02929 3.998 8.8304 4.00006C8.63151 4.00212 8.43662 4.05612 8.26503 4.1567L4.5148 6.34774C4.34169 6.44885 4.20288 6.59955 4.11628 6.78036L6.00202 7.82879Z" fill="white"/>
<path d="M13.6142 6.65356L11.7568 7.75135C11.828 7.85477 11.8707 7.97696 11.8729 8.10171V10.7159C11.8744 10.8357 11.844 10.9536 11.7848 11.0577C11.7256 11.1619 11.6398 11.2483 11.5362 11.3084L9.26368 12.6369C9.16334 12.6953 9.04995 12.7276 8.93388 12.7309C8.93637 13.448 8.93637 14.5883 8.93157 14.8727V14.8751C9.13076 14.8729 9.32603 14.8194 9.49854 14.7198L13.2489 12.5264C13.5976 12.3218 13.8111 11.9503 13.8063 11.5483V7.23425C13.8039 7.02501 13.7328 6.82519 13.6142 6.65356Z" fill="white"/>
<path d="M6.95106 8.37902C6.93173 8.42469 6.91973 8.47313 6.9155 8.52254C6.9131 8.54122 6.9131 8.56007 6.9131 8.58132V10.4221C6.9131 10.4361 6.9131 10.448 6.9155 10.4621C6.9203 10.5019 6.93452 10.5396 6.95577 10.5726C6.97008 10.5961 6.98662 10.6148 7.00333 10.6336C7.02235 10.6525 7.0436 10.6688 7.06725 10.6808L8.68514 11.5858C8.75554 11.6247 8.83471 11.6449 8.91512 11.6445H8.93183C9.00725 11.642 9.08075 11.6201 9.14535 11.5811L10.6682 10.6901C10.6777 10.6854 10.6848 10.6783 10.6944 10.6736C10.711 10.6619 10.7276 10.6501 10.7418 10.6359C10.7642 10.6157 10.7847 10.5938 10.8034 10.5701C10.8153 10.5537 10.8272 10.5373 10.8367 10.5208C10.8437 10.5091 10.8486 10.4973 10.8532 10.4855C10.858 10.4739 10.8652 10.4597 10.8699 10.4456C10.8722 10.4408 10.8722 10.4361 10.8746 10.4315C10.889 10.3858 10.8962 10.3382 10.896 10.2904V8.53891C10.896 8.50609 10.8912 8.4755 10.8841 8.445C10.8794 8.42375 10.8721 8.4049 10.8651 8.38605L10.8509 8.35794C10.8462 8.34612 10.8389 8.33678 10.8319 8.32495L10.8177 8.30388C10.8058 8.28734 10.7939 8.27329 10.7821 8.25684C10.7435 8.2118 10.6968 8.17432 10.6445 8.1463L9.10508 7.28363C9.07855 7.26863 9.05073 7.25601 9.02196 7.24593C8.98337 7.23428 8.94354 7.2272 8.90329 7.22485H8.87245C8.86071 7.22485 8.8512 7.22485 8.83937 7.22708C8.81212 7.22952 8.78512 7.23425 8.75866 7.24122C8.75394 7.24353 8.74923 7.24353 8.74443 7.24602C8.70887 7.25544 8.67563 7.27181 8.64238 7.29057L7.11952 8.18169C7.07532 8.20766 7.03661 8.242 7.00556 8.2828C6.99382 8.29925 6.98191 8.3157 6.9724 8.33215C6.96768 8.34158 6.96297 8.3486 6.95817 8.35803L6.95106 8.37902Z" fill="white"/>
</g>
<defs>
<clipPath id="clip0_982_272">
<rect width="18" height="18" fill="white"/>
</clipPath>
</defs>
</svg>
