<svg width="18" height="18" viewBox="0 0 18 18" fill="none" xmlns="http://www.w3.org/2000/svg">
<g clip-path="url(#clip0_982_300)">
<path d="M18 9C18 4.02944 13.9706 0 9 0C4.02944 0 0 4.02944 0 9C0 13.9706 4.02944 18 9 18C13.9706 18 18 13.9706 18 9Z" fill="#D4D4D8"/>
<path d="M8.93414 12.7306H8.92214C8.80198 12.7311 8.68366 12.7012 8.57821 12.6436L6.16345 11.294C6.02096 11.2142 5.9333 11.0661 5.9333 10.9061V8.1603C5.9333 8.04266 5.95464 7.92981 6.00442 7.83111L4.11628 6.78027C4.03805 6.94479 3.99778 7.13055 4.00009 7.32574V11.8608C4.00152 11.9919 4.0376 12.1204 4.10469 12.2331C4.17177 12.3458 4.26747 12.4387 4.38207 12.5025L8.36477 14.7313C8.54042 14.8301 8.73724 14.8771 8.93174 14.8771V14.8748C8.93645 14.5903 8.93414 13.4499 8.93414 12.7306Z" fill="#083042"/>
<path d="M6.00202 7.82879C6.05495 7.71908 6.13918 7.62749 6.24408 7.56557L8.51643 6.2372C8.62052 6.17608 8.73881 6.14327 8.85952 6.14203C8.98022 6.1408 9.09915 6.17119 9.20447 6.23018L11.5006 7.51621C11.6037 7.57374 11.6922 7.65415 11.7592 7.75125L13.6166 6.65346C13.5062 6.4944 13.361 6.36254 13.192 6.26788L9.39889 4.14497C9.22526 4.04795 9.02929 3.998 8.8304 4.00006C8.63151 4.00212 8.43662 4.05612 8.26503 4.1567L4.5148 6.34774C4.34169 6.44885 4.20288 6.59955 4.11628 6.78036L6.00202 7.82879Z" fill="#3DDC84"/>
<path d="M13.6142 6.65356L11.7568 7.75135C11.828 7.85477 11.8707 7.97696 11.8729 8.10171V10.7159C11.8744 10.8357 11.844 10.9536 11.7848 11.0577C11.7256 11.1619 11.6398 11.2483 11.5362 11.3084L9.26368 12.6369C9.16334 12.6953 9.04995 12.7276 8.93388 12.7309C8.93637 13.448 8.93637 14.5883 8.93157 14.8727V14.8751C9.13076 14.8729 9.32603 14.8194 9.49854 14.7198L13.2489 12.5264C13.5976 12.3218 13.8111 11.9503 13.8063 11.5483V7.23425C13.8039 7.02501 13.7328 6.82519 13.6142 6.65356Z" fill="#4285F4"/>
<path d="M6.95106 8.37902C6.93173 8.42469 6.91973 8.47313 6.9155 8.52254C6.9131 8.54122 6.9131 8.56007 6.9131 8.58132V10.4221C6.9131 10.4361 6.9131 10.448 6.9155 10.4621C6.9203 10.5019 6.93452 10.5396 6.95577 10.5726C6.97008 10.5961 6.98662 10.6148 7.00333 10.6336C7.02235 10.6525 7.0436 10.6688 7.06725 10.6808L8.68514 11.5858C8.75554 11.6247 8.83471 11.6449 8.91512 11.6445H8.93183C9.00725 11.642 9.08075 11.6201 9.14535 11.5811L10.6682 10.6901C10.6777 10.6854 10.6848 10.6783 10.6944 10.6736C10.711 10.6619 10.7276 10.6501 10.7418 10.6359C10.7642 10.6157 10.7847 10.5938 10.8034 10.5701C10.8153 10.5537 10.8272 10.5373 10.8367 10.5208C10.8437 10.5091 10.8486 10.4973 10.8532 10.4855C10.858 10.4739 10.8652 10.4597 10.8699 10.4456C10.8722 10.4408 10.8722 10.4361 10.8746 10.4315C10.889 10.3858 10.8962 10.3382 10.896 10.2904V8.53891C10.896 8.50609 10.8912 8.4755 10.8841 8.445C10.8794 8.42375 10.8721 8.4049 10.8651 8.38605L10.8509 8.35794C10.8462 8.34612 10.8389 8.33678 10.8319 8.32495L10.8177 8.30388C10.8058 8.28734 10.7939 8.27329 10.7821 8.25684C10.7435 8.2118 10.6968 8.17432 10.6445 8.1463L9.10508 7.28363C9.07855 7.26863 9.05073 7.25601 9.02197 7.24593C8.98337 7.23428 8.94354 7.2272 8.90329 7.22485H8.87245C8.86071 7.22485 8.8512 7.22485 8.83937 7.22708C8.81212 7.22952 8.78512 7.23425 8.75866 7.24122C8.75395 7.24353 8.74923 7.24353 8.74443 7.24602C8.70888 7.25544 8.67563 7.27181 8.64238 7.29057L7.11952 8.18169C7.07532 8.20766 7.03661 8.242 7.00556 8.2828C6.99382 8.29925 6.98191 8.3157 6.9724 8.33215C6.96768 8.34158 6.96297 8.3486 6.95817 8.35803L6.95106 8.37902Z" fill="#D4D4D8"/>
<path d="M8.93157 11.6444H8.91494C8.83448 11.6448 8.75525 11.6246 8.6848 11.5858L7.06708 10.6806C7.04382 10.6677 7.02229 10.6519 7.00298 10.6336C6.98443 10.6154 6.96846 10.5949 6.95552 10.5724C6.93582 10.5381 6.9222 10.5007 6.91524 10.4618C6.91276 10.4479 6.91276 10.4361 6.91276 10.422V8.58108C6.91276 8.56231 6.91276 8.54124 6.91524 8.5223C6.91978 8.47303 6.93169 8.42462 6.9508 8.37886L6.51424 8.11333L6.00185 7.82886C5.95438 7.92757 5.93073 8.04033 5.93073 8.15797V10.9039C5.93213 10.983 5.95407 11.0603 5.99441 11.1283C6.03475 11.1964 6.09209 11.2527 6.16079 11.2919L8.57341 12.6436C8.67842 12.7023 8.79704 12.7324 8.91734 12.7307H8.92934C8.92934 12.3803 8.92685 12.1312 8.92685 12.1312L8.93157 11.6444Z" fill="#083042"/>
<path d="M8.93157 11.6444H8.91494C8.83448 11.6448 8.75525 11.6246 8.6848 11.5858L7.06708 10.6806C7.04382 10.6677 7.02229 10.6519 7.00298 10.6336C6.98443 10.6154 6.96846 10.5949 6.95552 10.5724C6.93582 10.5381 6.9222 10.5007 6.91524 10.4618C6.91276 10.4479 6.91276 10.4361 6.91276 10.422V8.58108C6.91276 8.56231 6.91276 8.54124 6.91524 8.5223C6.91978 8.47303 6.93169 8.42462 6.9508 8.37886L6.51424 8.11333L6.00185 7.82886C5.95438 7.92757 5.93073 8.04033 5.93073 8.15797V10.9039C5.93213 10.983 5.95407 11.0603 5.99441 11.1283C6.03475 11.1964 6.09209 11.2527 6.16079 11.2919L8.57341 12.6436C8.67842 12.7023 8.79704 12.7324 8.91734 12.7307H8.92934C8.92934 12.3803 8.92685 12.1312 8.92685 12.1312L8.93157 11.6444Z" fill="#041619"/>
<path d="M11.4982 7.51608L9.2019 6.22996C9.09658 6.171 8.97767 6.14063 8.85697 6.14188C8.73628 6.14313 8.61802 6.17595 8.51394 6.23707L6.24159 7.56552C6.13615 7.62683 6.05173 7.71863 5.99945 7.82883L6.51441 8.1133L6.9508 8.37884L6.95783 8.35776C6.96263 8.34825 6.96734 8.33891 6.97205 8.33188C6.98156 8.31543 6.99347 8.29898 7.0053 8.28253C7.03614 8.24251 7.0741 8.2097 7.11926 8.18142L8.64204 7.2903C8.6746 7.27203 8.70862 7.25717 8.74409 7.24575C8.74889 7.24344 8.7536 7.24344 8.75831 7.24095C8.78476 7.23375 8.81164 7.22907 8.83894 7.2269C8.85077 7.2269 8.86028 7.2245 8.87219 7.2245H8.90303C8.94322 7.22707 8.98298 7.23401 9.02162 7.24558C9.05087 7.25483 9.07854 7.26743 9.10465 7.28336L10.6441 8.14621C10.696 8.1748 10.7426 8.21217 10.7818 8.25665C10.7936 8.2707 10.8056 8.28724 10.8173 8.30361L10.8316 8.32469L11.2253 8.06386L11.7591 7.74649C11.6903 7.65472 11.6025 7.57246 11.4982 7.51608Z" fill="#3DDB85"/>
<path d="M11.4982 7.51608L9.2019 6.22996C9.09658 6.171 8.97767 6.14063 8.85697 6.14188C8.73628 6.14313 8.61802 6.17595 8.51394 6.23707L6.24159 7.56552C6.13615 7.62683 6.05173 7.71863 5.99945 7.82883L6.51441 8.1133L6.9508 8.37884L6.95783 8.35776C6.96263 8.34825 6.96734 8.33891 6.97205 8.33188C6.98156 8.31543 6.99347 8.29898 7.0053 8.28253C7.03614 8.24251 7.0741 8.2097 7.11926 8.18142L8.64204 7.2903C8.6746 7.27203 8.70862 7.25717 8.74409 7.24575C8.74889 7.24344 8.7536 7.24344 8.75831 7.24095C8.78476 7.23375 8.81164 7.22907 8.83894 7.2269C8.85077 7.2269 8.86028 7.2245 8.87219 7.2245H8.90303C8.94322 7.22707 8.98298 7.23401 9.02162 7.24558C9.05087 7.25483 9.07854 7.26743 9.10465 7.28336L10.6441 8.14621C10.696 8.1748 10.7426 8.21217 10.7818 8.25665C10.7936 8.2707 10.8056 8.28724 10.8173 8.30361L10.8316 8.32469L11.2253 8.06386L11.7591 7.74649C11.6903 7.65472 11.6025 7.57246 11.4982 7.51608Z" fill="#37BF6E"/>
<path d="M10.8293 8.3296C10.8364 8.34125 10.8412 8.35068 10.8482 8.3625L10.8625 8.39069C10.8825 8.43919 10.8929 8.49104 10.8934 8.54347V10.295C10.8936 10.3429 10.8864 10.3904 10.872 10.4361C10.8697 10.4407 10.8697 10.4455 10.8673 10.4501C10.8628 10.4639 10.8572 10.4773 10.8507 10.4902C10.8458 10.5018 10.8387 10.5136 10.834 10.5253C10.8246 10.5419 10.8127 10.5582 10.8008 10.5748C10.7822 10.5985 10.7616 10.6204 10.7392 10.6405C10.7249 10.6546 10.7083 10.6664 10.6917 10.6782C10.6822 10.6828 10.6752 10.6899 10.6656 10.6947L9.14269 11.5856C9.0772 11.6226 9.00422 11.6443 8.92917 11.6492V12.1358C8.92917 12.1358 8.92917 12.385 8.93157 12.7353C9.0478 12.7332 9.16148 12.7008 9.26137 12.6413L11.5337 11.3129C11.7449 11.1884 11.873 10.9626 11.8706 10.7205V8.10622C11.8683 7.97924 11.8256 7.85928 11.7545 7.75586L11.2206 8.07332L10.8293 8.3296Z" fill="#4285F4"/>
<path d="M10.8293 8.3296C10.8364 8.34125 10.8412 8.35068 10.8482 8.3625L10.8625 8.39069C10.8825 8.43919 10.8929 8.49104 10.8934 8.54347V10.295C10.8936 10.3429 10.8864 10.3904 10.872 10.4361C10.8697 10.4407 10.8697 10.4455 10.8673 10.4501C10.8628 10.4639 10.8572 10.4773 10.8507 10.4902C10.8458 10.5018 10.8387 10.5136 10.834 10.5253C10.8246 10.5419 10.8127 10.5582 10.8008 10.5748C10.7822 10.5985 10.7616 10.6204 10.7392 10.6405C10.7249 10.6546 10.7083 10.6664 10.6917 10.6782C10.6822 10.6828 10.6752 10.6899 10.6656 10.6947L9.14269 11.5856C9.0772 11.6226 9.00422 11.6443 8.92917 11.6492V12.1358C8.92917 12.1358 8.92917 12.385 8.93157 12.7353C9.0478 12.7332 9.16148 12.7008 9.26137 12.6413L11.5337 11.3129C11.7449 11.1884 11.873 10.9626 11.8706 10.7205V8.10622C11.8683 7.97924 11.8256 7.85928 11.7545 7.75586L11.2206 8.07332L10.8293 8.3296Z" fill="#3870B2"/>
</g>
<defs>
<clipPath id="clip0_982_300">
<rect width="18" height="18" fill="white"/>
</clipPath>
</defs>
</svg>
