<svg width="18" height="18" viewBox="0 0 18 18" fill="none" xmlns="http://www.w3.org/2000/svg">
<rect width="18" height="18" rx="9" fill="#242938"/>
<path d="M3.00007 11.5308L4.30852 10.739C4.56099 11.1865 4.79062 11.5652 5.34146 11.5652C5.86945 11.5652 6.20234 11.3587 6.20234 10.5553V5.09191H7.80922V10.5781C7.80922 12.2423 6.83365 12.9999 5.41032 12.9999C4.12491 12.9999 3.37878 12.3342 3 11.5307M8.68199 11.3587L9.99031 10.6012C10.3348 11.1636 10.7824 11.5768 11.5743 11.5768C12.2401 11.5768 12.6647 11.2439 12.6647 10.7848C12.6647 10.2339 12.2285 10.0387 11.4939 9.71745L11.0923 9.54519C9.933 9.05173 9.16396 8.4319 9.16396 7.12345C9.16396 5.91826 10.0822 5 11.517 5C12.5385 5 13.2731 5.35587 13.801 6.28554L12.5499 7.08898C12.2744 6.59546 11.9761 6.40036 11.517 6.40036C11.0464 6.40036 10.7479 6.69879 10.7479 7.08898C10.7479 7.57102 11.0464 7.76619 11.735 8.06468L12.1367 8.2368C13.5025 8.82223 14.2715 9.41895 14.2715 10.7618C14.2715 12.2081 13.1353 13 11.6087 13C10.1167 13 9.15254 12.2884 8.68199 11.3587Z" fill="#F0DB4F"/>
</svg>
