<svg width="18" height="18" viewBox="0 0 18 18" fill="none" xmlns="http://www.w3.org/2000/svg">
<g clip-path="url(#clip0_112_70)">
<path d="M18 9C18 4.02944 13.9706 0 9 0C4.02944 0 0 4.02944 0 9C0 13.9706 4.02944 18 9 18C13.9706 18 18 13.9706 18 9Z" fill="#242938"/>
<path d="M14 14.2549L6.42679 4.5H5V11.282H6.14148V5.94958L13.1038 14.9452C13.4176 14.7353 13.717 14.5047 14 14.2549Z" fill="url(#paint0_linear_112_70)"/>
<path d="M10.7482 4.5H11.879V11.2848H10.7482V4.5Z" fill="url(#paint1_linear_112_70)"/>
</g>
<defs>
<linearGradient id="paint0_linear_112_70" x1="10.1828" y1="10.3895" x2="13.528" y2="14.5358" gradientUnits="userSpaceOnUse">
<stop stop-color="#01D8FF"/>
<stop offset="1" stop-color="#242938" stop-opacity="0"/>
</linearGradient>
<linearGradient id="paint1_linear_112_70" x1="11.3136" y1="4.49999" x2="11.2946" y2="9.48254" gradientUnits="userSpaceOnUse">
<stop stop-color="#01D8FF"/>
<stop offset="1" stop-color="#242938" stop-opacity="0"/>
</linearGradient>
<clipPath id="clip0_112_70">
<rect width="18" height="18" fill="white"/>
</clipPath>
</defs>
</svg>
