<svg width="18" height="18" viewBox="0 0 18 18" fill="none" xmlns="http://www.w3.org/2000/svg">
<rect width="18" height="18" rx="9" fill="#d4d4d8"/>
<path d="M8.54878 4.11735C8.82207 3.96124 9.17796 3.96052 9.45096 4.11735C10.8244 4.89207 12.1983 5.66551 13.5716 6.44067C13.8299 6.5859 14.0026 6.87283 14 7.1699V11.8307C14.0019 12.1401 13.8121 12.4339 13.5396 12.5757C12.1707 13.3462 10.8024 14.1176 9.43363 14.888C9.15479 15.0471 8.79173 15.0349 8.52151 14.8627C8.11112 14.6252 7.7 14.3888 7.28955 14.1516C7.20567 14.1017 7.11111 14.062 7.05188 13.9808C7.10428 13.9104 7.19789 13.9016 7.27394 13.8708C7.44523 13.8165 7.60261 13.7291 7.75995 13.6444C7.79978 13.6173 7.84834 13.6277 7.88651 13.652C8.23745 13.8529 8.58534 14.0596 8.93746 14.2585C9.01257 14.3018 9.08862 14.2443 9.15285 14.2086C10.4962 13.4507 11.8412 12.6957 13.1844 11.9376C13.2342 11.9137 13.2617 11.8609 13.2576 11.8065C13.2585 10.269 13.2578 8.73131 13.2581 7.19375C13.2637 7.13208 13.228 7.0753 13.1721 7.05001C11.8078 6.28312 10.4443 5.51511 9.08034 4.74805C9.05672 4.73184 9.02873 4.72314 9.00006 4.7231C8.97138 4.72304 8.94337 4.73165 8.91968 4.74778C7.55567 5.51511 6.19244 6.28389 4.82843 7.05067C4.7727 7.07602 4.73531 7.13186 4.74193 7.19375C4.7422 8.73131 4.74193 10.269 4.74193 11.8068C4.73955 11.8333 4.74539 11.86 4.75865 11.8831C4.77193 11.9063 4.792 11.9248 4.81615 11.9362C5.1801 12.1422 5.54455 12.3468 5.90877 12.5522C6.11399 12.6623 6.36589 12.7279 6.592 12.6434C6.79144 12.572 6.93128 12.3688 6.9275 12.1573C6.92939 10.6288 6.92655 9.10009 6.92888 7.57174C6.92389 7.50392 6.98839 7.44785 7.0545 7.45428C7.22939 7.45306 7.4045 7.45189 7.57939 7.45473C7.65239 7.45306 7.70262 7.52615 7.69361 7.59448C7.69289 9.13271 7.69551 10.6709 7.69245 12.2091C7.69289 12.6191 7.52417 13.0651 7.14427 13.2658C6.67633 13.5077 6.09788 13.4564 5.63555 13.2244C5.23532 13.025 4.85332 12.7896 4.46021 12.576C4.18698 12.4349 3.99809 12.1399 4.00003 11.8307V7.1699C3.99714 6.86668 4.17681 6.57453 4.44309 6.4314C5.81182 5.66041 7.18034 4.88874 8.54878 4.11735Z" fill="#242938"/>
<path d="M9.74291 7.34601C10.3399 7.30764 10.9789 7.32327 11.5161 7.61686C11.9321 7.84179 12.1626 8.31394 12.17 8.77516C12.1583 8.83733 12.0932 8.87165 12.0337 8.86739C11.8605 8.86716 11.6872 8.86977 11.5141 8.86622C11.4405 8.86904 11.3978 8.80144 11.3887 8.73662C11.3389 8.5159 11.2182 8.29735 11.0102 8.19088C10.6908 8.03127 10.3204 8.03932 9.97206 8.04265C9.7178 8.05606 9.44435 8.07808 9.22891 8.22731C9.06352 8.34039 9.0133 8.56864 9.0723 8.75248C9.12796 8.88446 9.28058 8.92705 9.40546 8.96631C10.1249 9.15414 10.8873 9.1354 11.5928 9.38257C11.8851 9.48333 12.1709 9.67925 12.2709 9.98459C12.4017 10.3939 12.3443 10.883 12.0526 11.2115C11.8161 11.4818 11.4716 11.629 11.128 11.7089C10.6708 11.8107 10.1965 11.8133 9.73225 11.7681C9.29575 11.7184 8.84146 11.6039 8.50451 11.3071C8.21634 11.0573 8.07562 10.6681 8.08957 10.2926C8.0929 10.2292 8.15618 10.1849 8.21707 10.1901C8.39146 10.1887 8.5659 10.1882 8.74029 10.1904C8.80996 10.1854 8.86163 10.2455 8.86518 10.3111C8.89735 10.5213 8.97652 10.742 9.16018 10.8666C9.51469 11.0949 9.95949 11.0793 10.3654 11.0857C10.7017 11.0708 11.0791 11.0663 11.3536 10.8444C11.4983 10.7179 11.5413 10.5061 11.5021 10.324C11.4598 10.1703 11.2986 10.0986 11.1602 10.0517C10.45 9.82754 9.67913 9.90889 8.97585 9.6553C8.69029 9.55459 8.41418 9.36415 8.30451 9.07134C8.15146 8.65693 8.22157 8.1443 8.54385 7.82692C8.85807 7.5111 9.31163 7.38949 9.74291 7.34601Z" fill="#242938"/>
</svg>
