<svg width="18" height="18" viewBox="0 0 18 18" fill="none" xmlns="http://www.w3.org/2000/svg">
<rect width="18" height="18" rx="9" fill="#242938"/>
<path d="M8.9999 9.9932C9.59163 9.9932 10.0713 9.54395 10.0713 8.98977C10.0713 8.43558 9.59163 7.98633 8.9999 7.98633C8.40816 7.98633 7.92847 8.43558 7.92847 8.98977C7.92847 9.54395 8.40816 9.9932 8.9999 9.9932Z" fill="white"/>
<path d="M9 11.2902C7.71221 11.3192 6.42765 11.1567 5.19429 10.8085C4.62455 10.6394 4.09317 10.3729 3.627 10.0226C3.44905 9.90301 3.30087 9.74872 3.19263 9.57039C3.0844 9.39204 3.01868 9.19386 3 8.98948C3 8.326 3.77829 7.67577 5.082 7.25032C6.34839 6.87364 7.67142 6.69093 9 6.70926C10.3109 6.69229 11.6162 6.8717 12.8666 7.24068C13.4152 7.4047 13.9285 7.65826 14.3829 7.98965C14.5575 8.10392 14.7033 8.25266 14.8099 8.42541C14.9166 8.59816 14.9814 8.7907 15 8.98948C15 9.67904 14.13 10.3778 12.7286 10.8121C11.5191 11.149 10.2616 11.3102 9 11.2902ZM9 7.18931C7.72893 7.17375 6.4633 7.34744 5.25043 7.70387C4.05043 8.09602 3.51257 8.63225 3.51257 8.98827C3.51257 9.36075 4.09071 9.94636 5.36014 10.3529C6.54002 10.6845 7.76854 10.8388 9 10.8101C10.207 10.8303 11.4103 10.6774 12.5678 10.3566C13.8857 9.94756 14.4857 9.36115 14.4857 8.98948C14.464 8.86195 14.4143 8.74002 14.3399 8.63136C14.2654 8.5227 14.1676 8.42966 14.0529 8.35811C13.6464 8.06401 13.1879 7.83928 12.6981 7.69424C11.5019 7.34279 10.2535 7.17234 9 7.18931Z" fill="white"/>
<path d="M6.5656 13.9944C6.36567 13.9987 6.16811 13.9533 5.99303 13.8628C5.37931 13.5313 5.16674 12.5752 5.42432 11.3048C5.70863 10.0892 6.20068 8.92454 6.88146 7.85582C7.52049 6.78388 8.33838 5.81451 9.30417 4.98439C9.72994 4.62118 10.2209 4.33135 10.7545 4.12825C10.9475 4.04378 11.1581 4 11.3712 4C11.5843 4 11.7948 4.04378 11.9879 4.12825C12.626 4.47263 12.8373 5.52745 12.5395 6.88128C12.2467 8.03106 11.7674 9.13199 11.1183 10.1457C10.5018 11.205 9.70968 12.166 8.77146 12.9926C8.33037 13.3702 7.81846 13.6681 7.2616 13.8712C7.03873 13.9489 6.80338 13.9906 6.5656 13.9944ZM7.32546 8.09424C6.67613 9.11763 6.20453 10.2312 5.92832 11.3932C5.69131 12.5632 5.91888 13.2668 6.24974 13.4458C6.5926 13.6316 7.42489 13.4554 8.43546 12.6285C9.33124 11.8367 10.0873 10.9168 10.6756 9.90324C11.2974 8.93413 11.7571 7.88157 12.0389 6.78214C12.3192 5.50778 12.077 4.72751 11.7333 4.54207C11.6045 4.49592 11.4668 4.47526 11.329 4.48141C11.1913 4.48756 11.0563 4.52037 10.9328 4.57779C10.4578 4.7614 10.0211 5.02201 9.64274 5.34763C8.72008 6.14284 7.93883 7.07085 7.32845 8.09665L7.32546 8.09424Z" fill="white"/>
<path d="M11.433 13.9998C10.8523 13.9998 10.1147 13.6707 9.34672 13.0521C8.36411 12.2144 7.53241 11.2335 6.88372 10.1474C6.21134 9.09347 5.72318 7.94564 5.43772 6.74736C5.31421 6.22012 5.29128 5.67658 5.37 5.14186C5.38851 4.94356 5.45311 4.75146 5.55928 4.57902C5.66545 4.40658 5.81061 4.25798 5.98458 4.14364C6.62186 3.79806 7.70315 4.15327 8.80672 5.07082C9.72411 5.88247 10.5032 6.82109 11.1167 7.85395C11.7887 8.88326 12.2821 10.006 12.5781 11.1801C12.7072 11.7267 12.7271 12.2909 12.6369 12.8443C12.6155 13.0483 12.5472 13.2456 12.4366 13.4227C12.3261 13.5997 12.176 13.7522 11.9966 13.8698C11.8243 13.959 11.6299 14.0039 11.433 13.9998ZM7.32729 9.90578C7.94964 10.9437 8.74411 11.8825 9.68101 12.6869C10.6449 13.4636 11.4094 13.6305 11.7381 13.4495C12.081 13.2629 12.3339 12.501 12.0733 11.2685C11.7879 10.1474 11.3147 9.07567 10.6715 8.09317C10.0859 7.10463 9.34232 6.20585 8.46643 5.42804C7.42757 4.56428 6.58501 4.37122 6.24172 4.55746C6.13478 4.63894 6.04702 4.74027 5.98395 4.85508C5.92089 4.96989 5.88389 5.09569 5.87529 5.22454C5.8072 5.70141 5.8294 6.18579 5.94086 6.65544C6.21552 7.80135 6.6837 8.89887 7.32772 9.90658L7.32729 9.90578Z" fill="white"/>
</svg>
