<svg width="18" height="18" viewBox="0 0 18 18" fill="none" xmlns="http://www.w3.org/2000/svg">
<g clip-path="url(#clip0_105_9)">
<path d="M18 9C18 4.02944 13.9706 0 9 0C4.02944 0 0 4.02944 0 9C0 13.9706 4.02944 18 9 18C13.9706 18 18 13.9706 18 9Z" fill="#D4D4D8"/>
<g clip-path="url(#clip1_105_9)">
<mask id="mask0_105_9" style="mask-type:luminance" maskUnits="userSpaceOnUse" x="4" y="4" width="10" height="10">
<path d="M4 4H14V14H4V4Z" fill="white"/>
</mask>
<g mask="url(#mask0_105_9)">
<path d="M10.9291 10.9012C11.2979 10.8628 11.5779 10.5416 11.5654 10.1562C11.5592 9.97092 11.4815 9.79526 11.3487 9.66595C11.2159 9.53664 11.0382 9.46371 10.8529 9.46242H10.8271C10.4325 9.47492 10.1271 9.80908 10.1396 10.2074C10.1529 10.4003 10.2291 10.567 10.3437 10.6824C9.91082 11.5437 9.24915 12.1728 8.25623 12.6995C7.58206 13.0595 6.88206 13.1878 6.18248 13.0978C5.60956 13.0208 5.16415 12.7637 4.88415 12.3399C4.47706 11.7108 4.43915 11.0295 4.78248 10.3487C5.02415 9.86075 5.40623 9.50075 5.6479 9.32117C5.58236 9.10545 5.52716 8.88673 5.48248 8.66575C3.63706 10.0149 3.82831 11.8391 4.38748 12.6999C4.80748 13.3424 5.65998 13.7408 6.60206 13.7408C6.85924 13.7423 7.11563 13.712 7.3654 13.6508C8.99456 13.3299 10.2287 12.3533 10.9287 10.9016M13.1683 9.30867C12.2012 8.16534 10.7758 7.53575 9.14706 7.53575H8.94332C8.88518 7.42018 8.79615 7.32299 8.68612 7.25495C8.57608 7.18692 8.44935 7.1507 8.31998 7.15034H8.29415C7.89998 7.16325 7.59415 7.49742 7.60706 7.89575C7.61956 8.28117 7.9379 8.58909 8.31956 8.58909H8.3454C8.47982 8.58218 8.60958 8.53756 8.71982 8.46033C8.83006 8.3831 8.91632 8.27639 8.96873 8.15242H9.1979C10.165 8.15242 11.0812 8.43492 11.9083 8.98742C12.5446 9.41159 13.0029 9.96367 13.2571 10.632C13.4737 11.1712 13.4612 11.6978 13.2321 12.1478C12.8754 12.8287 12.2775 13.2012 11.4883 13.2012C10.9796 13.2012 10.4958 13.047 10.2412 12.9312C10.0581 13.0946 9.86702 13.249 9.66873 13.3937C10.2158 13.6508 10.7758 13.792 11.3104 13.792C12.5321 13.792 13.4354 13.1112 13.7791 12.4303C14.1479 11.6853 14.1225 10.4008 13.1683 9.30867ZM6.70415 11.1195C6.71665 11.5049 7.03498 11.8133 7.41665 11.8133H7.44206C7.83665 11.8008 8.14207 11.4666 8.12956 11.0683C8.12333 10.883 8.04569 10.7073 7.91288 10.578C7.78008 10.4487 7.60242 10.3758 7.41706 10.3745H7.39123C7.36095 10.3721 7.33052 10.3764 7.30206 10.387C6.7804 9.51367 6.56415 8.56325 6.6404 7.53534C6.69123 6.7645 6.94581 6.09659 7.39123 5.54409C7.7604 5.06909 8.4729 4.83784 8.95665 4.82492C10.3054 4.79909 10.8779 6.49492 10.9162 7.17575C11.0816 7.21409 11.3616 7.30409 11.5525 7.36825C11.3996 5.28742 10.1275 4.20825 8.9054 4.20825C7.7604 4.20825 6.70415 5.04325 6.28415 6.27659C5.69873 7.92075 6.0804 9.50075 6.79331 10.747C6.72956 10.837 6.69123 10.9783 6.70415 11.1195Z" fill="black"/>
</g>
</g>
</g>
<defs>
<clipPath id="clip0_105_9">
<rect width="18" height="18" fill="white"/>
</clipPath>
<clipPath id="clip1_105_9">
<rect width="10" height="10" fill="white" transform="translate(4 4)"/>
</clipPath>
</defs>
</svg>
