<svg width="18" height="18" viewBox="0 0 18 18" fill="none" xmlns="http://www.w3.org/2000/svg">
<rect width="18" height="18" rx="9" fill="#d4d4d8"/>
<path d="M13.3338 10.1738C12.915 10.1759 12.5512 10.2768 12.2465 10.4258C12.1347 10.2045 12.023 10.0072 12.0031 9.86247C11.9813 9.6937 11.955 9.59067 11.9813 9.38899C12.0076 9.18732 12.1259 8.90022 12.1237 8.8783C12.1215 8.85639 12.0974 8.75336 11.8564 8.75114C11.6152 8.74891 11.407 8.79719 11.3829 8.86077C11.3587 8.92429 11.3127 9.06899 11.282 9.21806C11.2404 9.43726 10.7997 10.2198 10.5477 10.6297C10.4666 10.4697 10.3965 10.3294 10.3811 10.2176C10.3591 10.0488 10.3328 9.9458 10.3591 9.74413C10.3854 9.54246 10.5039 9.25529 10.5017 9.23337C10.4994 9.21146 10.4754 9.10843 10.2342 9.10627C9.99307 9.10411 9.78483 9.15226 9.76076 9.21584C9.73662 9.27942 9.71032 9.4285 9.65989 9.57314C9.60952 9.71783 9.02425 11.0243 8.87079 11.3618C8.80879 11.4985 8.74376 11.6336 8.67573 11.7673C8.67573 11.7673 8.6735 11.7739 8.66696 11.7849C8.64556 11.8268 8.62362 11.8684 8.60116 11.9098V11.912C8.56832 11.9713 8.53319 12.026 8.51566 12.026C8.50251 12.026 8.47844 11.8682 8.52005 11.6534C8.60776 11.1996 8.81598 10.4938 8.81381 10.4697C8.81381 10.4565 8.85326 10.3338 8.67789 10.2702C8.5069 10.2066 8.44554 10.3119 8.43017 10.3119C8.41486 10.3119 8.40387 10.3491 8.40387 10.3491C8.40387 10.3491 8.59461 9.55561 8.04003 9.55561C7.69366 9.55561 7.21581 9.93481 6.97913 10.2768C6.70999 10.4232 6.44107 10.5701 6.17238 10.7174C6.04311 10.7897 5.90941 10.862 5.78441 10.93C5.77564 10.9212 5.76688 10.9103 5.75811 10.9015C5.08735 10.1847 3.84669 9.67839 3.89929 8.71607C3.91904 8.36532 4.0396 7.44468 6.28201 6.32674C8.12768 5.41709 9.59637 5.66913 9.85064 6.2281C10.2145 7.02602 9.0637 8.50779 7.15667 8.72261C6.42887 8.80373 6.0475 8.52316 5.95107 8.41798C5.85021 8.30835 5.83484 8.3018 5.79756 8.32372C5.7362 8.35656 5.77564 8.4552 5.79756 8.51218C5.85459 8.66125 6.0891 8.92429 6.48585 9.05362C6.83659 9.16763 7.68928 9.23121 8.72172 8.83225C9.87695 8.38508 10.78 7.14214 10.5148 6.101C10.2496 5.04442 8.49597 4.69589 6.83659 5.28554C5.85015 5.63629 4.78048 6.18865 4.01108 6.90763C3.09698 7.76259 2.95235 8.50563 3.01154 8.81688C3.22414 9.92166 4.74758 10.6406 5.35698 11.1733C5.3263 11.1908 5.29778 11.2062 5.27371 11.2193C4.96901 11.3706 3.80725 11.9777 3.51786 12.62C3.18908 13.3478 3.57051 13.8695 3.82256 13.9397C4.60511 14.1566 5.40958 13.7665 5.84144 13.1221C6.27331 12.4775 6.22065 11.6402 6.02114 11.2566C6.01896 11.2518 6.016 11.2473 6.01237 11.2435C6.09132 11.1975 6.17238 11.1492 6.25133 11.1032C6.39639 11.0175 6.54329 10.9349 6.6919 10.8555C6.61739 11.0594 6.56258 11.3027 6.53628 11.6534C6.50344 12.0655 6.67221 12.6003 6.89357 12.8108C6.99222 12.9028 7.1084 12.905 7.18297 12.905C7.44161 12.905 7.55779 12.6902 7.68712 12.4359C7.8449 12.1246 7.98743 11.763 7.98743 11.763C7.98743 11.763 7.80984 12.7406 8.29207 12.7406C8.46745 12.7406 8.64499 12.5127 8.72394 12.3965V12.3986C8.72394 12.3986 8.72832 12.3921 8.73709 12.3768C8.75462 12.3483 8.76554 12.3307 8.76554 12.3307V12.3263C8.83573 12.2036 8.99351 11.9251 9.22809 11.4627C9.53057 10.8665 9.82212 10.1212 9.82212 10.1212C9.82212 10.1212 9.84842 10.3031 9.93825 10.6055C9.99085 10.7831 10.1005 10.9783 10.1882 11.1668C10.1181 11.2654 10.0742 11.3202 10.0742 11.3202L10.0764 11.3224C10.0194 11.3969 9.95806 11.478 9.89009 11.5569C9.65112 11.8419 9.36618 12.1685 9.32673 12.2628C9.28068 12.3746 9.29167 12.4557 9.37933 12.5214C9.44291 12.5697 9.55686 12.5762 9.67304 12.5697C9.88788 12.5543 10.0392 12.5017 10.1136 12.4688C10.2299 12.4272 10.3658 12.3636 10.4929 12.2694C10.7274 12.0962 10.8699 11.8485 10.8568 11.5219C10.8502 11.3421 10.791 11.1624 10.7187 10.9935C10.7406 10.9629 10.7603 10.9322 10.7822 10.9015C11.1527 10.36 11.4398 9.76604 11.4398 9.76604C11.4398 9.76604 11.4661 9.94796 11.556 10.2505C11.5998 10.4039 11.6897 10.5705 11.7687 10.7328C11.4201 11.0155 11.2053 11.3443 11.1286 11.5591C10.9905 11.9581 11.0979 12.1378 11.3018 12.1794C11.3938 12.1992 11.5253 12.1554 11.6218 12.1137C11.7445 12.0742 11.8892 12.0063 12.0273 11.9054C12.2618 11.7323 12.4876 11.4912 12.4745 11.1646C12.4679 11.0155 12.4285 10.8686 12.3736 10.7261C12.6695 10.6034 13.051 10.5354 13.5376 10.5924C14.581 10.7152 14.7871 11.3662 14.7476 11.6402C14.7081 11.9142 14.4889 12.0633 14.4166 12.1093C14.3443 12.1554 14.3202 12.1706 14.3268 12.2036C14.3356 12.2518 14.3706 12.2495 14.432 12.2408C14.5174 12.2255 14.9799 12.0194 14.9997 11.5153C15.0326 10.8708 14.4188 10.1672 13.3338 10.1738ZM5.28464 12.8875C4.93833 13.2645 4.45609 13.407 4.24782 13.2864C4.02423 13.1571 4.11188 12.6003 4.53721 12.2014C4.79579 11.9581 5.12902 11.7323 5.35038 11.5942C5.40081 11.5635 5.47532 11.5197 5.5652 11.4649C5.58057 11.4561 5.58934 11.4517 5.58934 11.4517L5.64194 11.4188C5.79756 11.9888 5.64848 12.4908 5.28464 12.8875ZM7.80552 11.1733C7.68496 11.4671 7.43291 12.2189 7.27945 12.1773C7.14796 12.1422 7.06685 11.5722 7.25315 11.0089C7.34741 10.7261 7.54686 10.3886 7.66304 10.257C7.85157 10.0466 8.05978 9.97648 8.11021 10.062C8.17379 10.1738 7.88008 10.9892 7.80552 11.1733ZM9.88574 12.1685C9.83533 12.1948 9.78711 12.2123 9.7652 12.1992C9.74983 12.1905 9.78712 12.1554 9.78712 12.1554C9.78712 12.1554 10.048 11.8748 10.151 11.7476C10.2101 11.6731 10.2803 11.5854 10.3549 11.4868V11.5153C10.3549 11.8507 10.0305 12.0765 9.88574 12.1685ZM11.4903 11.8024C11.4531 11.7761 11.4596 11.6884 11.5846 11.4144C11.6328 11.307 11.7468 11.1274 11.9418 10.9541C11.9638 11.0243 11.9791 11.0922 11.9769 11.1558C11.9748 11.5789 11.6723 11.7367 11.4903 11.8024Z" fill="#242938"/>
</svg>
