<svg width="18" height="18" viewBox="0 0 18 18" fill="none" xmlns="http://www.w3.org/2000/svg">
<g clip-path="url(#clip0_884_216)">
<mask id="mask0_884_216" style="mask-type:luminance" maskUnits="userSpaceOnUse" x="0" y="0" width="18" height="18">
<path d="M18 0H0V18H18V0Z" fill="white"/>
</mask>
<g mask="url(#mask0_884_216)">
<path d="M18 9C18 4.02944 13.9706 0 9 0C4.02944 0 0 4.02944 0 9C0 13.9706 4.02944 18 9 18C13.9706 18 18 13.9706 18 9Z" fill="#D4D4D8"/>
<mask id="mask1_884_216" style="mask-type:luminance" maskUnits="userSpaceOnUse" x="3" y="4" width="12" height="11">
<path d="M14.9167 4H3V15H14.9167V4Z" fill="white"/>
</mask>
<g mask="url(#mask1_884_216)">
<path d="M10.3538 10.8145L10.1253 11.2224C10.0914 11.2827 10.0427 11.3328 9.98404 11.3676C9.92535 11.4025 9.85876 11.4208 9.79097 11.4208H8.03987C7.97208 11.4208 7.9055 11.4025 7.8468 11.3676C7.78812 11.3328 7.7394 11.2827 7.70555 11.2224L7.47695 10.8145H10.3538ZM10.9937 9.67291L10.5908 10.3919H7.24011L6.83708 9.67291H10.9937ZM10.6055 8.55655L10.9944 9.25031H6.83643L7.2253 8.55655H10.6055ZM9.79093 7.50122C9.85872 7.50122 9.92532 7.51957 9.98401 7.55441C10.0427 7.58927 10.0914 7.6394 10.1253 7.69974L10.3687 8.13396H7.46219L7.7056 7.69974C7.73944 7.6394 7.78816 7.58929 7.84685 7.55443C7.90554 7.51958 7.97213 7.50123 8.03992 7.50122H9.79093Z" fill="#242938"/>
<path d="M5.49148 7.31182C5.2975 6.34545 5.25584 5.60424 5.38125 5.06606C5.45582 4.74596 5.59212 4.48482 5.79944 4.29639C6.01832 4.09748 6.29501 3.99986 6.60596 3.99986C7.11884 3.99986 7.65807 4.24019 8.23426 4.69669C8.46933 4.88292 8.71326 5.10737 8.96658 5.37018C8.98678 5.34354 9.00954 5.31839 9.03496 5.29509C9.75117 4.63939 10.3542 4.23192 10.8699 4.07485C11.1766 3.9814 11.4646 3.97251 11.7267 4.06319C12.0035 4.15884 12.2239 4.35669 12.3796 4.63376C12.6363 5.09102 12.7041 5.69185 12.6083 6.43379C12.5693 6.73619 12.5026 7.06556 12.4084 7.42249C12.4439 7.42689 12.4796 7.43502 12.5149 7.44702C13.4236 7.75646 14.0671 8.08914 14.4566 8.4694C14.6885 8.69562 14.8398 8.94747 14.8945 9.2263C14.9522 9.52057 14.8959 9.81571 14.7405 10.0926C14.4842 10.5492 14.013 10.9093 13.3416 11.1945C13.0721 11.3091 12.767 11.4128 12.4262 11.5061C12.4418 11.5422 12.4539 11.5804 12.462 11.6207C12.6559 12.587 12.6976 13.3283 12.5722 13.8664C12.4976 14.1865 12.3613 14.4477 12.154 14.6361C11.9352 14.835 11.6584 14.9326 11.3475 14.9326C10.8345 14.9326 10.2954 14.6923 9.71919 14.2358C9.4816 14.0476 9.23498 13.8203 8.97872 13.5538C8.95176 13.5972 8.91912 13.6365 8.88172 13.6707C8.1655 14.3265 7.5625 14.7339 7.04674 14.891C6.74007 14.9844 6.45216 14.9933 6.18999 14.9026C5.91321 14.807 5.6927 14.6091 5.53709 14.3321C5.28032 13.8748 5.21264 13.274 5.30834 12.532C5.3488 12.2187 5.41895 11.8763 5.51866 11.5045C5.47891 11.5003 5.43973 11.4917 5.40182 11.4788C4.49313 11.1694 3.84963 10.8367 3.46005 10.4564C3.22824 10.2302 3.0769 9.97836 3.02216 9.69954C2.96444 9.40526 3.02077 9.11009 3.17615 8.83322C3.43245 8.37662 3.90372 8.01649 4.57506 7.7313C4.85262 7.61332 5.16781 7.50685 5.52094 7.41139C5.50821 7.37919 5.49834 7.34586 5.49148 7.31182Z" fill="#242938"/>
<path d="M11.8279 11.7159C11.8713 11.708 11.916 11.7175 11.9527 11.7426C11.9893 11.7676 12.0153 11.8062 12.0251 11.8504L12.0261 11.8557L12.0358 11.9071C12.3481 13.5942 12.1281 14.4378 11.3757 14.4378C10.6396 14.4378 9.70253 13.718 8.56449 12.2783C8.54427 12.2527 8.53144 12.2218 8.52746 12.1892C8.52349 12.1564 8.52851 12.1232 8.54197 12.0933C8.55544 12.0634 8.5768 12.038 8.60363 12.0198C8.63046 12.0018 8.66168 11.9919 8.69376 11.9912H8.69906L8.75901 11.9915C9.23792 11.9942 9.70347 11.977 10.1557 11.9401C10.6894 11.8964 11.2468 11.8217 11.8279 11.7159ZM6.66089 10.4406L6.66378 10.4457L6.69385 10.4996C6.93482 10.9299 7.18588 11.3385 7.44702 11.7251C7.75462 12.1804 8.10048 12.6414 8.48461 13.108C8.51312 13.1426 8.52754 13.1872 8.52486 13.2325C8.52217 13.2778 8.50261 13.3202 8.47023 13.351L8.46589 13.355L8.42726 13.3893C7.15615 14.5082 6.32998 14.7316 5.94878 14.0593C5.5756 13.4014 5.7109 12.205 6.35464 10.4701C6.36604 10.4394 6.38559 10.4126 6.41106 10.3927C6.43655 10.3727 6.46694 10.3606 6.49882 10.3575C6.53069 10.3544 6.56276 10.3606 6.59141 10.3752C6.62005 10.3899 6.64413 10.4126 6.66089 10.4406ZM12.4729 7.95105L12.4781 7.95282L12.526 7.96975C14.0949 8.53053 14.691 9.14676 14.3142 9.81846C13.9458 10.4754 12.8745 10.9538 11.1004 11.2534C11.0683 11.2589 11.0353 11.2548 11.0053 11.2417C10.9753 11.2285 10.9497 11.2069 10.9311 11.1793C10.9127 11.1517 10.9024 11.1192 10.9013 11.0858C10.9001 11.0523 10.9082 11.0192 10.9248 10.9903C11.1789 10.5463 11.4077 10.1044 11.6113 9.66475C11.8422 9.16615 12.0589 8.63097 12.2614 8.05923C12.2761 8.01768 12.3055 7.98332 12.3437 7.96299C12.3819 7.94266 12.4262 7.93783 12.4677 7.94947L12.4729 7.95105ZM6.93088 7.66873C6.95029 7.68045 6.96728 7.69598 6.98085 7.71445C6.99442 7.7329 7.00433 7.75393 7.00999 7.77632C7.01565 7.79871 7.01696 7.82203 7.01385 7.84495C7.01075 7.86786 7.00327 7.88992 6.99185 7.90987C6.7377 8.35392 6.50883 8.79578 6.30525 9.23546C6.07437 9.73404 5.85768 10.2692 5.65519 10.841C5.64016 10.8835 5.60982 10.9184 5.57046 10.9385C5.53109 10.9586 5.48571 10.9625 5.44367 10.9492L5.43845 10.9474L5.3906 10.9304C3.82167 10.3697 3.22558 9.75345 3.60236 9.08175C3.97084 8.42478 5.04212 7.94644 6.81618 7.64673C6.85575 7.64004 6.89634 7.64783 6.93088 7.66873ZM11.9678 4.90682C12.341 5.56482 12.2057 6.76123 11.562 8.49608C11.5505 8.52681 11.531 8.55365 11.5055 8.57356C11.48 8.59347 11.4496 8.60566 11.4178 8.60874C11.3859 8.61182 11.3538 8.60566 11.3252 8.59097C11.2965 8.57629 11.2725 8.55364 11.2557 8.52563L11.2528 8.52061L11.2227 8.46671C10.9817 8.03628 10.7308 7.62773 10.4696 7.24107C10.162 6.78576 9.8161 6.32482 9.43198 5.85822C9.40347 5.8236 9.38906 5.779 9.39173 5.73374C9.39441 5.68847 9.41398 5.646 9.44637 5.61518L9.45069 5.61121L9.48933 5.57701C10.7605 4.45804 11.5866 4.23464 11.9678 4.90682ZM6.60522 4.50647C7.34135 4.50647 8.27842 5.22628 9.41644 6.66592C9.43665 6.6915 9.44948 6.7224 9.45346 6.75511C9.45744 6.78781 9.45241 6.82101 9.43895 6.85092C9.42548 6.88083 9.40412 6.90627 9.37729 6.92433C9.35047 6.94239 9.31923 6.95237 9.28717 6.95311H9.28186L9.2219 6.95272C8.74304 6.95005 8.2775 6.96721 7.82528 7.00418C7.29145 7.04787 6.73402 7.12259 6.15299 7.22835C6.10963 7.23623 6.06498 7.22668 6.02828 7.20165C5.99159 7.17664 5.96567 7.13807 5.9559 7.09395L5.95478 7.08855L5.94515 7.03718C5.63277 5.35004 5.8528 4.50647 6.60522 4.50647Z" fill="#D4D4D8"/>
<path d="M8.18064 7.52344H9.65048C9.75609 7.52343 9.85982 7.55206 9.95121 7.60643C10.0426 7.66081 10.1184 7.739 10.171 7.83312L10.909 9.15435C10.9612 9.24775 10.9887 9.35356 10.9887 9.46125C10.9887 9.56894 10.9612 9.67475 10.909 9.76815L10.171 11.0894C10.1184 11.1835 10.0426 11.2617 9.95121 11.3161C9.85982 11.3705 9.75609 11.3991 9.65048 11.3991H8.18064C7.96567 11.3991 7.76714 11.2809 7.66012 11.0894L6.92217 9.76815C6.86999 9.67475 6.84254 9.56894 6.84254 9.46125C6.84254 9.35356 6.86999 9.24775 6.92217 9.15435L7.66017 7.83312C7.71273 7.73899 7.78854 7.6608 7.87993 7.60642C7.97133 7.55205 8.07502 7.52342 8.18064 7.52344ZM9.42648 7.92221C9.64154 7.92221 9.84022 8.04048 9.94714 8.23218L10.4618 9.15465C10.5138 9.24797 10.5412 9.35367 10.5412 9.46125C10.5412 9.56883 10.5138 9.67454 10.4618 9.76787L9.94714 10.6903C9.8946 10.7845 9.81878 10.8628 9.72736 10.9172C9.63593 10.9716 9.53215 11.0003 9.42648 11.0002H8.40473C8.18967 11.0002 7.99099 10.8821 7.88407 10.6903L7.36942 9.76787C7.31734 9.67454 7.28994 9.56883 7.28994 9.46125C7.28994 9.35367 7.31734 9.24797 7.36942 9.15465L7.88407 8.23218C7.93661 8.138 8.01241 8.05974 8.10383 8.00533C8.19525 7.95091 8.29903 7.92225 8.40468 7.92226L9.42648 7.92221ZM9.18503 8.35838H8.64618C8.54062 8.35837 8.43691 8.38697 8.34554 8.4413C8.25418 8.49564 8.17838 8.57377 8.1258 8.66782L7.85386 9.15407C7.80157 9.24753 7.77406 9.35345 7.77406 9.46125C7.77406 9.56906 7.80157 9.67497 7.85386 9.76845L8.1258 10.2547C8.17838 10.3488 8.25418 10.4269 8.34554 10.4813C8.43691 10.5356 8.54062 10.5642 8.64618 10.5642H9.18503C9.39991 10.5642 9.59839 10.4462 9.70541 10.2547L9.97735 9.76845C10.0296 9.67497 10.0571 9.56906 10.0571 9.46125C10.0571 9.35345 10.0296 9.24753 9.97735 9.15407L9.70541 8.66778C9.65283 8.57372 9.57704 8.49559 9.48567 8.44126C9.3943 8.38693 9.2906 8.35837 9.18503 8.35838ZM8.95257 8.77581C9.16725 8.77581 9.3656 8.89365 9.47266 9.08477L9.51126 9.15364C9.56367 9.24719 9.59126 9.35325 9.59126 9.46121C9.59126 9.56916 9.56367 9.67522 9.51126 9.76878L9.47266 9.83764C9.42005 9.93157 9.34427 10.0096 9.25296 10.0638C9.16165 10.1181 9.05804 10.1466 8.95257 10.1466H8.87865C8.77317 10.1466 8.66956 10.1181 8.57825 10.0638C8.48694 10.0096 8.41116 9.93157 8.35855 9.83764L8.31996 9.76878C8.26754 9.67522 8.23995 9.56916 8.23995 9.46121C8.23995 9.35325 8.26754 9.24719 8.31996 9.15364L8.35855 9.08477C8.41116 8.99085 8.48694 8.91284 8.57825 8.8586C8.66956 8.80435 8.77317 8.7758 8.87865 8.77581H8.95257ZM8.9157 9.18707C8.86882 9.18706 8.82277 9.19972 8.78216 9.22377C8.74155 9.24783 8.70782 9.28245 8.68435 9.32414C8.66092 9.36581 8.64859 9.41308 8.64859 9.46121C8.64859 9.50933 8.66092 9.5566 8.68435 9.59828C8.7078 9.63998 8.74151 9.67461 8.78211 9.69868C8.82271 9.72275 8.86875 9.73543 8.91563 9.73543C8.9625 9.73543 9.00856 9.72275 9.04915 9.69868C9.08974 9.67461 9.12346 9.63998 9.14691 9.59828C9.17034 9.5566 9.18268 9.50933 9.18268 9.46121C9.18268 9.41308 9.17034 9.36581 9.14691 9.32414C9.12345 9.28247 9.08974 9.24787 9.04915 9.22381C9.00857 9.19975 8.96255 9.18709 8.9157 9.18707Z" fill="#D4D4D8"/>
</g>
</g>
</g>
<defs>
<clipPath id="clip0_884_216">
<rect width="18" height="18" fill="white"/>
</clipPath>
</defs>
</svg>
