<svg width="18" height="18" viewBox="0 0 18 18" fill="none" xmlns="http://www.w3.org/2000/svg">
<g clip-path="url(#clip0_112_98)">
<path d="M18 9C18 4.02944 13.9706 0 9 0C4.02944 0 0 4.02944 0 9C0 13.9706 4.02944 18 9 18C13.9706 18 18 13.9706 18 9Z" fill="#D4D4D8"/>
<path d="M12.4639 6.06468C12.8503 6.15089 13.2014 6.34636 13.4724 6.62616C13.6213 6.77772 13.7511 6.9459 13.8589 7.12714C13.8639 7.14687 13.163 7.60183 12.7379 7.85561C12.7225 7.86569 12.6612 7.80126 12.5918 7.7022C12.5143 7.57313 12.4041 7.4652 12.2716 7.38853C12.1391 7.31187 11.9886 7.26898 11.8342 7.26389C11.3456 7.23146 11.0308 7.47866 11.0331 7.89199C11.0288 7.99353 11.0528 8.09432 11.1025 8.1839C11.21 8.39867 11.4096 8.52753 12.0365 8.79008C13.1906 9.27003 13.686 9.58649 13.9918 10.0362C14.1646 10.3203 14.271 10.6376 14.3036 10.9656C14.3362 11.2937 14.2942 11.6246 14.1805 11.9354C14.0244 12.2762 13.7766 12.5705 13.4629 12.7875C13.1492 13.0044 12.781 13.1363 12.3967 13.1692C11.9883 13.214 11.5757 13.2099 11.1682 13.1569C10.5442 13.0579 9.96939 12.7685 9.52783 12.3312C9.36107 12.1496 9.21982 11.9475 9.10774 11.7302C9.15511 11.6968 9.20466 11.6663 9.25609 11.6391C9.32776 11.5996 9.59905 11.4489 9.85491 11.3055L10.3195 11.0425L10.4165 11.1793C10.5803 11.405 10.7884 11.5974 11.029 11.7456C11.2721 11.8745 11.5476 11.9355 11.8246 11.922C12.1016 11.9084 12.3692 11.8208 12.5977 11.6689C12.7156 11.5579 12.7892 11.4104 12.8058 11.2522C12.8224 11.094 12.7809 10.9352 12.6884 10.8037C12.5632 10.6305 12.3074 10.485 11.5802 10.1804C11.0099 9.99462 10.4906 9.68671 10.0609 9.27967C9.85639 9.05426 9.70529 8.78845 9.6181 8.5008C9.55364 8.17304 9.54414 7.83739 9.58998 7.50672C9.67522 7.12614 9.87957 6.78011 10.1753 6.51556C10.471 6.25101 10.8438 6.08075 11.2431 6.02787C11.6496 5.98093 12.0612 5.99334 12.4639 6.06468ZM8.67904 6.71469L8.68403 7.35199H6.58361V13.1149H5.10242V7.35331H3.002V6.7274C2.99643 6.51306 3.00249 6.29858 3.02015 6.08485C3.02786 6.07476 4.3049 6.06994 5.85322 6.07257L8.67087 6.08002L8.67904 6.71469Z" fill="#007ACC"/>
</g>
<defs>
<clipPath id="clip0_112_98">
<rect width="18" height="18" fill="white"/>
</clipPath>
</defs>
</svg>
