<svg width="18" height="18" viewBox="0 0 18 18" fill="none" xmlns="http://www.w3.org/2000/svg">
<rect width="18" height="18" rx="9" fill="#242938"/>
<path fill-rule="evenodd" clip-rule="evenodd" d="M6 7.40001C6.4 5.80001 7.40001 5 9.00001 5C11.4 5 11.7001 6.80001 12.9 7.10001C13.7 7.3001 14.4 7.00009 15 6.20001C14.6 7.80001 13.6001 8.60001 12.0001 8.60001C9.60001 8.60001 9.30001 6.80001 8.10001 6.50001C7.3 6.30001 6.6 6.6 6 7.40001ZM3 11C3.4 9.40002 4.4 8.60001 6 8.60001C8.40001 8.60001 8.70001 10.4 9.90001 10.7C10.7 10.9001 11.4 10.6001 12.0001 9.79999C11.6 11.4 10.6 12.2 9.00001 12.2C6.6 12.2 6.3 10.4 5.1 10.1C4.3 9.89993 3.6 10.1999 3 11Z" fill="white"/>
</svg>
