<svg width="18" height="18" viewBox="0 0 18 18" fill="none" xmlns="http://www.w3.org/2000/svg">
<g clip-path="url(#clip0_878_637)">
<path d="M18 9C18 4.02944 13.9706 0 9 0C4.02944 0 0 4.02944 0 9C0 13.9706 4.02944 18 9 18C13.9706 18 18 13.9706 18 9Z" fill="#242938"/>
<g clip-path="url(#clip1_878_637)">
<path d="M12.0248 3.10329C11.8905 3.1072 11.7577 3.13383 11.6323 3.18204C11.5738 3.20454 11.4901 3.24948 11.3812 3.31686C11.3001 3.36704 11.218 3.4158 11.1351 3.46311C11.0342 3.55443 10.9328 3.64525 10.831 3.73554C10.7331 3.83469 10.6469 3.94475 10.5741 4.06357C10.5723 4.06658 10.5712 4.07012 10.5709 4.07397C10.5705 4.07781 10.571 4.08187 10.5722 4.08589C10.5763 4.09976 10.5727 4.10811 10.5613 4.11092C10.5513 4.11348 10.5434 4.11698 10.5395 4.12067C10.4905 4.16946 10.4563 4.23106 10.4406 4.29842C10.4341 4.32467 10.4234 4.35104 10.4086 4.37754C10.3942 4.40135 10.3836 4.42721 10.3771 4.45423C10.3705 4.48761 10.364 4.52095 10.3577 4.55426C10.3547 4.56528 10.3494 4.57552 10.3421 4.58425C10.3347 4.59299 10.3255 4.6 10.3152 4.60479C9.72352 4.43569 9.1084 4.36335 8.49363 4.39057C8.46656 4.39164 8.43969 4.39563 8.41347 4.40248C8.38722 4.40948 8.3611 4.41717 8.3351 4.42554C7.68564 4.4586 7.04751 4.60889 6.45157 4.86917C6.40793 4.85047 6.37149 4.81818 6.34769 4.77711L6.31169 4.71589C6.21428 4.5772 6.10223 4.44941 5.97747 4.3347C5.93554 4.28195 5.86607 4.22601 5.76907 4.16689C5.54157 4.02814 5.30832 3.95511 5.06932 3.94779L5.01438 3.95032C4.98965 3.95142 4.96491 3.94825 4.94126 3.94095C4.87379 3.93858 4.80723 3.95708 4.75066 3.99392L4.67435 4.04323C4.47522 4.15823 4.31804 4.31276 4.20279 4.50682C4.07172 4.72807 3.97672 4.96957 3.91779 5.23132C3.88141 5.39207 3.86722 5.57026 3.87522 5.76589C3.88229 5.78339 3.88744 5.80139 3.89069 5.81989C3.89332 5.83439 3.89166 5.85245 3.88572 5.87407C3.87766 5.90372 3.87347 5.93429 3.87326 5.96501C3.87288 5.98751 3.87991 6.01645 3.89435 6.05182C3.92372 6.12432 3.9341 6.20039 3.92547 6.28001C3.9731 6.48876 4.01069 6.64348 4.03826 6.74417C4.04563 6.77117 4.04597 6.79417 4.03929 6.81317L4.01219 6.86961C3.94559 6.93096 3.88813 7.00156 3.84157 7.07923C3.78669 7.17073 3.75776 7.21889 3.75476 7.2237C3.72138 7.27826 3.69201 7.33526 3.66663 7.3947C3.34929 7.92778 3.14344 8.51973 3.06157 9.1347C3.03506 9.20637 3.02382 9.28278 3.02857 9.35904C3.0055 9.51706 2.99641 9.6768 3.00138 9.83642L3.01066 10.1236C3.0126 10.2975 3.01857 10.4168 3.02857 10.4815C3.07471 10.7793 3.14654 11.0725 3.24326 11.3579L3.27326 11.4094C3.3622 11.6812 3.47384 11.945 3.60701 12.1981C3.67507 12.3272 3.72732 12.415 3.76376 12.4615C3.85269 12.6073 3.9502 12.7477 4.05579 12.882L4.12741 12.9782C4.16966 13.0346 4.21776 13.086 4.27169 13.1325C4.32838 13.2014 4.38485 13.2703 4.4411 13.3394C4.53652 13.4192 4.62974 13.5017 4.72066 13.5866C4.81154 13.6714 4.89372 13.7384 4.96722 13.7878C5.12011 13.8902 5.27837 13.9843 5.44132 14.0698C5.55899 14.1539 5.67917 14.2345 5.80169 14.3115C5.87782 14.3667 5.96676 14.4137 6.06851 14.4525C6.27676 14.5322 6.46951 14.5965 6.64676 14.6453C6.71238 14.6633 6.80051 14.6991 6.91113 14.7526C6.91854 14.7563 6.92692 14.7578 6.93532 14.757C6.98746 14.7519 7.04 14.7523 7.09207 14.7581C7.17401 14.7789 7.25604 14.7993 7.33816 14.8194C7.40647 14.836 7.67351 14.8598 8.13926 14.8909C8.26875 14.8995 8.39868 14.8992 8.52813 14.8899C8.78327 14.9032 9.03906 14.8964 9.29313 14.8696C9.37094 14.8614 9.46616 14.8443 9.57879 14.8183C9.67344 14.7968 9.76842 14.7767 9.86369 14.7581C9.96614 14.7203 10.0708 14.6889 10.1772 14.6642C10.3397 14.5947 10.5033 14.5278 10.6679 14.4634C10.7139 14.4453 10.7675 14.4178 10.8289 14.381C10.8882 14.345 10.9433 14.3187 10.9939 14.3019C11.1142 14.2625 11.2173 14.2101 11.3033 14.1449C11.3288 14.1255 11.3591 14.1103 11.3943 14.0992C11.4491 14.082 11.5004 14.055 11.5457 14.0195C11.6602 13.9601 11.7703 13.8925 11.8753 13.8174C11.9798 13.7422 12.0819 13.6638 12.1814 13.5821C12.3583 13.4384 12.5218 13.279 12.6699 13.1058C12.7143 13.0537 12.766 13.0083 12.8234 12.971C12.8968 12.8866 12.9654 12.7982 13.029 12.7062C13.3402 12.3229 13.5937 11.8961 13.7814 11.4395C13.8003 11.4057 13.8179 11.3714 13.8343 11.3366C13.845 11.314 13.8551 11.2774 13.8647 11.2267C13.8705 11.1946 13.8806 11.1633 13.8946 11.1337C13.9054 11.1106 13.9137 11.0838 13.9194 11.0533C13.9247 11.025 13.9346 10.9977 13.9488 10.9726C13.965 10.9441 13.9749 10.92 13.9786 10.9003C13.9834 10.8739 13.988 10.8476 13.9924 10.8214C13.9936 10.8143 13.9919 10.8063 13.9874 10.7989C13.9716 10.7726 13.9782 10.752 14.0071 10.7371C14.0315 10.7029 14.0435 10.6613 14.041 10.6193C14.0406 10.611 14.0424 10.6029 14.0462 10.5961C14.0747 10.5436 14.0899 10.4848 14.0902 10.4251C14.1205 10.2561 14.1421 10.0863 14.1551 9.91554C14.1553 9.91492 14.1604 9.87867 14.1705 9.80679C14.1761 9.76648 14.176 9.72436 14.1703 9.68042C14.1575 9.58216 14.156 9.48278 14.1656 9.38417C14.1531 9.33468 14.1521 9.28296 14.1628 9.23304C14.1644 9.2254 14.1635 9.21722 14.1603 9.20961C14.1546 9.19592 14.1508 9.18176 14.1487 9.16714C14.147 9.15589 14.1494 9.13789 14.1559 9.11314C14.1617 9.09107 14.1612 9.07223 14.1545 9.05661C14.1382 9.01705 14.1292 8.97487 14.1278 8.93211C14.1276 8.92634 14.1297 8.92072 14.1335 8.91641C14.1373 8.9121 14.1427 8.90943 14.1484 8.90895C14.2513 8.90132 14.3504 8.86644 14.4353 8.80789C14.4958 8.76657 14.5539 8.7219 14.6094 8.67411C14.6762 8.64029 14.7284 8.58344 14.7564 8.51407C14.78 8.4822 14.8024 8.4497 14.8234 8.41657C14.8275 8.41029 14.8289 8.40205 14.8275 8.39351C14.8235 8.3697 14.8304 8.35367 14.8481 8.34542C14.8568 8.34153 14.8635 8.33638 14.8669 8.33089C14.9555 8.18878 14.9982 8.02283 14.9893 7.85557C14.9892 7.8475 14.9909 7.8395 14.9943 7.83214C15.0009 7.81809 15.0017 7.80199 14.9966 7.78732L14.9851 7.7532C14.9637 7.65325 14.9255 7.55766 14.8721 7.47054C14.8661 7.4604 14.8577 7.45189 14.8476 7.44579C14.8123 7.42436 14.7919 7.40398 14.7864 7.38467C14.7823 7.3707 14.773 7.35887 14.7604 7.35167C14.685 7.30852 14.6135 7.25889 14.5466 7.20336C14.5226 7.18336 14.4625 7.16201 14.3662 7.13932C14.3227 7.14007 14.2793 7.13842 14.236 7.13436C14.1724 7.12854 14.1295 7.12642 14.1071 7.12798C14.0147 7.13422 13.9249 7.16114 13.8442 7.20673C13.7694 7.22957 13.6959 7.25613 13.6237 7.28632C13.6206 7.28763 13.6171 7.28773 13.6138 7.28659C13.6106 7.28545 13.6079 7.28315 13.6062 7.28014C13.3516 6.80632 13.0296 6.37195 12.6503 5.99061C12.6287 5.96898 12.6238 5.94351 12.6357 5.9142L12.7923 5.52842C12.9021 5.24117 12.9732 4.9357 13.0055 4.61201C13.037 4.29676 12.9988 3.99623 12.8912 3.71042C12.8828 3.69206 12.8728 3.67449 12.8613 3.65792C12.7504 3.44204 12.5906 3.27948 12.3819 3.17023H12.3817C12.3132 3.13436 12.2381 3.11277 12.1609 3.10676C12.1157 3.10304 12.0702 3.10185 12.0248 3.1032V3.10329ZM11.985 3.27598C12.0294 3.27781 12.0736 3.28358 12.117 3.29323C12.1457 3.29984 12.174 3.30814 12.2017 3.31807C12.1321 3.29301 12.059 3.27881 11.985 3.27598ZM12.5863 3.59004C12.588 3.59648 12.5889 3.60308 12.5892 3.60973C12.5891 3.61487 12.588 3.61995 12.5859 3.62464C12.587 3.62253 12.5878 3.6202 12.5883 3.61789C12.5894 3.61214 12.5895 3.60622 12.5884 3.60045C12.5879 3.59694 12.5872 3.59347 12.5863 3.59004ZM11.792 3.72045C11.7667 3.72071 11.7413 3.72212 11.7161 3.72467C11.741 3.72204 11.7663 3.72061 11.7919 3.72036L11.792 3.72045ZM11.8705 3.72317C11.9237 3.72723 11.9765 3.73633 12.028 3.75036C12.1264 3.77713 12.2178 3.8247 12.2962 3.88986V3.88995C12.2178 3.8248 12.1264 3.77723 12.028 3.75045C11.9765 3.73639 11.9238 3.72726 11.8705 3.72317ZM11.3069 3.89689C11.2422 3.94945 11.1779 4.00267 11.1141 4.05654C11.0335 4.12412 10.9614 4.20129 10.8994 4.28632C10.8378 4.37176 10.7867 4.4643 10.7472 4.56195L10.6459 4.8177L10.747 4.56195C10.7874 4.46257 10.8382 4.3707 10.8994 4.28632C10.9613 4.20124 11.0334 4.12401 11.1139 4.05636C11.1778 4.00261 11.2421 3.94939 11.3069 3.89689ZM11.8361 3.85461C11.9563 3.85217 12.0664 3.88629 12.1664 3.95698C12.2014 3.98154 12.2292 4.01595 12.2498 4.0602C12.3071 4.18121 12.3522 4.30757 12.3846 4.43745L12.4071 4.61848C12.4078 4.62447 12.4118 4.63216 12.4182 4.64004C12.4371 4.66348 12.4377 4.68867 12.4201 4.71561C12.3902 4.76061 12.3813 4.81389 12.3933 4.87545C12.3954 4.88661 12.3951 4.89809 12.3924 4.9091C12.3897 4.9201 12.3846 4.93037 12.3775 4.9392C12.3688 4.94924 12.3631 4.96158 12.3612 4.97474C12.3593 4.98791 12.3612 5.00134 12.3667 5.01345C12.3411 5.0362 12.3327 5.06339 12.3416 5.09501L12.3229 5.18267L12.2979 5.24548C12.2973 5.25244 12.2944 5.25899 12.2897 5.26414L12.29 5.26526L12.2895 5.26414C12.2849 5.27647 12.2833 5.28971 12.2848 5.30278C12.2862 5.31585 12.2907 5.3284 12.2979 5.33942C12.2529 5.37317 12.2257 5.41704 12.2164 5.47104H12.2162C12.2083 5.4979 12.2061 5.52609 12.2098 5.55382C12.2135 5.58695 12.2027 5.59292 12.1772 5.57173C11.759 5.22548 11.3016 4.95804 10.8049 4.76942C10.803 4.76866 10.8013 4.76757 10.8001 4.76625C10.7989 4.76493 10.7981 4.76343 10.7979 4.76192L10.7972 4.75639L10.9226 4.56195C11.0972 4.2817 11.3287 4.06692 11.6171 3.91761C11.6954 3.87711 11.7684 3.85611 11.8361 3.85461ZM12.3948 4.12911H12.3957V4.12929L12.3948 4.12911ZM5.16963 4.20232C5.17351 4.20196 5.17722 4.20227 5.1806 4.20326C5.17374 4.20142 5.16571 4.20232 5.15791 4.20579C5.16177 4.204 5.16574 4.20283 5.16963 4.20232ZM12.501 4.22426C12.5088 4.22882 12.5135 4.23414 12.515 4.2402C12.5165 4.24639 12.5149 4.25329 12.5101 4.26092C12.5148 4.25323 12.5164 4.24626 12.515 4.2402C12.5135 4.23407 12.5088 4.22886 12.501 4.22436V4.22426ZM5.3291 4.22867L5.33622 4.22942L5.34119 4.23111C5.33957 4.23054 5.33791 4.23004 5.33622 4.22961L5.3291 4.22867ZM5.57763 4.26682L5.58091 4.26804L5.58194 4.26823H5.58091L5.57763 4.26682ZM12.9204 4.37211L12.9191 4.37679C12.9194 4.37517 12.9199 4.37361 12.9204 4.37211ZM12.9183 4.41617L12.9188 4.41898C12.9276 4.45536 12.9351 4.49207 12.9413 4.52914H12.9411C12.935 4.49215 12.9275 4.45541 12.9186 4.41898L12.9183 4.41617ZM10.4899 4.43032C10.4921 4.43481 10.4949 4.43892 10.4984 4.44251C10.5079 4.45232 10.5204 4.45423 10.5361 4.44823C10.5205 4.45423 10.5079 4.45236 10.4983 4.44261C10.4948 4.43899 10.4921 4.43484 10.4899 4.43032ZM10.5586 4.4457C10.5588 4.4457 10.5591 4.4457 10.5593 4.4457C10.5621 4.44636 10.5648 4.44748 10.5676 4.44823L10.5593 4.44589C10.5591 4.44582 10.5588 4.44576 10.5586 4.4457ZM9.02304 4.47879C9.01553 4.47865 9.00801 4.47897 9.00054 4.47973C9.00779 4.47879 9.01529 4.47848 9.02304 4.47879ZM12.8424 4.54836C12.8499 4.55236 12.8542 4.55726 12.8555 4.56307C12.857 4.5687 12.8555 4.57523 12.851 4.58267C12.8555 4.57529 12.8571 4.56873 12.8556 4.56298C12.8542 4.55736 12.8497 4.55248 12.8424 4.54836ZM7.51854 4.61211C7.48866 4.61729 7.37604 4.65007 7.18066 4.71045C7.37616 4.65007 7.48876 4.61729 7.51844 4.61211H7.51854ZM12.9019 4.61286C12.9037 4.61242 12.9055 4.61248 12.9072 4.61304C12.9002 4.61129 12.8914 4.61623 12.8807 4.62786C12.8888 4.61898 12.8959 4.61398 12.9019 4.61286ZM12.9231 4.63939C12.9276 4.6607 12.9294 4.68164 12.9285 4.7022C12.9275 4.72276 12.9239 4.74292 12.9177 4.76267C12.9187 4.83719 12.9081 4.91141 12.8864 4.9827C12.882 4.99707 12.8684 5.02261 12.8457 5.05929C12.8684 5.02273 12.882 4.9972 12.8864 4.9827C12.9081 4.91164 12.9185 4.83829 12.9177 4.76267C12.9304 4.72277 12.9322 4.68024 12.9231 4.63939ZM10.3273 4.62626C10.3291 4.63898 10.3267 4.65195 10.3205 4.6632C10.3236 4.65745 10.3257 4.65129 10.3269 4.64492C10.3281 4.63873 10.3282 4.63249 10.3273 4.62626ZM8.71619 4.63995L8.71929 4.64014L8.71291 4.64032L8.71619 4.63995ZM8.46551 4.64192L8.4686 4.64211L8.46241 4.64229L8.46551 4.64192ZM8.8136 4.64417L8.81651 4.64436H8.81669V4.64454L8.8136 4.64417ZM8.61935 4.6482L8.61597 4.64876L8.6141 4.64857H8.61579L8.61935 4.6482ZM8.17685 4.64961C8.17179 4.65885 8.16534 4.66726 8.15772 4.67454C8.16435 4.66873 8.17066 4.66042 8.17685 4.64961ZM9.08772 4.65439H9.09372L9.08772 4.65457V4.65439ZM8.44169 4.67154C8.38994 4.67795 8.33841 4.68608 8.28719 4.69592C8.31528 4.69155 8.34328 4.68668 8.37119 4.68129C8.39463 4.67773 8.41813 4.67442 8.44169 4.67154ZM10.3083 4.68092C10.3423 4.69467 10.3759 4.70936 10.4093 4.72498C10.4303 4.72861 10.4502 4.73345 10.469 4.73951C10.4495 4.73334 10.4295 4.72854 10.4093 4.72498C10.376 4.70943 10.3423 4.69467 10.3083 4.68092ZM7.65879 4.68842C7.65894 4.68842 7.6591 4.68842 7.65926 4.68842C7.6591 4.68848 7.65894 4.68854 7.65879 4.68861V4.68842ZM7.67847 4.68842C7.67866 4.68842 7.67885 4.68842 7.67904 4.68842C7.69372 4.69823 7.70966 4.70461 7.72685 4.70754L7.73182 4.70698L7.72713 4.70764C7.70992 4.70481 7.69352 4.69832 7.67904 4.68861C7.67888 4.68854 7.67863 4.68848 7.67847 4.68842ZM9.00251 4.70351C9.00251 4.70445 9.00204 4.70539 9.0011 4.70632C9.00204 4.70526 9.00251 4.70439 9.00251 4.70351ZM7.41822 4.91932C7.24929 4.94095 7.11066 4.96751 7.00235 4.99901C6.96904 5.00858 6.93619 5.01969 6.90391 5.03229C6.90316 5.03267 6.90279 5.03257 6.90204 5.03286L6.90391 5.03229C6.93619 5.01969 6.96904 5.00858 7.00235 4.99901C7.11072 4.96745 7.24941 4.94089 7.41822 4.91932ZM7.71701 4.77382C7.71479 4.77385 7.7126 4.77426 7.71054 4.77504C7.71257 4.77413 7.71478 4.77371 7.71701 4.77382ZM12.7512 4.89467C12.7492 4.91529 12.7489 4.94036 12.7502 4.96986L12.75 4.97342V4.97004C12.7487 4.94492 12.7491 4.91974 12.7512 4.89467ZM5.17254 4.97304C5.1764 4.97312 5.18041 4.97405 5.18426 4.97576C5.20132 4.98345 5.22276 4.98551 5.24857 4.98195C5.26226 4.9802 5.27813 4.98301 5.29619 4.99039C5.31049 4.99672 5.32546 5.00141 5.34082 5.00436C5.52632 5.03529 5.66851 5.13079 5.76738 5.29086C5.77801 5.30798 5.7991 5.32417 5.83066 5.33942L6.10863 5.65301L6.29613 5.92901C6.29833 5.93226 6.29959 5.93606 6.29978 5.94C6.29996 5.94393 6.29905 5.94785 6.29716 5.95132C6.27376 5.99586 6.23862 6.03315 6.19554 6.05914C6.19384 6.06012 6.19198 6.0608 6.1901 6.06114C6.18821 6.06149 6.18633 6.06148 6.18457 6.06113C6.1828 6.06078 6.18121 6.06008 6.17987 6.0591C6.17853 6.05811 6.17748 6.05685 6.17679 6.05539L6.15879 6.01667C6.15847 5.99123 6.14797 5.9742 6.12729 5.96557C6.12387 5.96417 6.12004 5.96371 6.11613 5.96423C6.11222 5.96476 6.10836 5.96625 6.10488 5.96857C6.02894 6.0182 6.02982 6.06939 6.10751 6.12214V6.12232C6.11369 6.12689 6.11613 6.13348 6.11482 6.14211C6.10538 6.15068 6.09828 6.16152 6.09419 6.17361L6.09485 6.17651L6.09391 6.1737L5.97982 6.27964C5.9766 6.28264 5.97269 6.2848 5.96845 6.28594C5.9642 6.28708 5.95975 6.28715 5.95548 6.28616C5.95122 6.28517 5.94728 6.28313 5.94402 6.28024C5.94076 6.27736 5.93827 6.2737 5.93679 6.26961L5.89619 6.1557C5.89486 6.15203 5.8926 6.14886 5.88974 6.14666C5.88688 6.14445 5.88356 6.14332 5.88026 6.14342C5.82807 6.14467 5.81307 6.17207 5.83526 6.22564C5.85528 6.27427 5.86624 6.32615 5.8676 6.37873C5.86786 6.38683 5.86535 6.39483 5.86047 6.40142C5.80975 6.47208 5.7484 6.53447 5.6786 6.58639C5.67534 6.58881 5.67146 6.59013 5.66779 6.59006C5.66411 6.58999 5.66092 6.58854 5.65891 6.58601C5.65247 6.57739 5.64966 6.56326 5.65047 6.54364C5.65067 6.54011 5.65004 6.53658 5.64862 6.53334C5.6472 6.5301 5.64504 6.52725 5.64231 6.525C5.63958 6.52275 5.63635 6.52118 5.6329 6.52041C5.62945 6.51964 5.62587 6.5197 5.62244 6.52057C5.53138 6.54332 5.52588 6.58404 5.60594 6.64273L5.57969 6.7002L5.39904 6.87054C5.38018 6.84877 5.3672 6.82253 5.36135 6.79432C5.35382 6.74955 5.33505 6.70742 5.30679 6.67189C5.30587 6.6707 5.30468 6.66975 5.30331 6.66913C5.30194 6.66851 5.30044 6.66823 5.29894 6.66833C5.29745 6.66842 5.29599 6.66888 5.29471 6.66966C5.29343 6.67045 5.29236 6.67153 5.2916 6.67282C5.28311 6.68557 5.27639 6.69942 5.27163 6.71398C5.26788 6.72561 5.26132 6.73926 5.25194 6.75495C5.23682 6.78051 5.24544 6.79726 5.27782 6.8052C5.28041 6.80585 5.28275 6.80738 5.28449 6.80956C5.28624 6.81175 5.28732 6.81448 5.28757 6.81739L5.29966 6.95736C5.28404 7.03242 5.23807 7.07214 5.16176 7.07651C5.15585 7.0256 5.13596 6.97731 5.10429 6.93701C5.10194 6.93411 5.09869 6.93211 5.0951 6.93134C5.0915 6.93057 5.08779 6.93108 5.0846 6.93279C5.0551 6.94829 5.05072 6.97367 5.07147 7.00892C5.08579 7.06317 5.10122 7.11707 5.11779 7.17064C5.07316 7.21557 5.01879 7.23645 4.95466 7.23326C4.90695 7.14449 4.8673 7.05162 4.83616 6.95576C4.81145 6.91193 4.79631 6.86337 4.79172 6.81326L4.76454 6.75045C4.74877 6.75522 4.73212 6.75627 4.71588 6.75354C4.70312 6.75097 4.69184 6.74359 4.68438 6.73292C4.67788 6.72361 4.66994 6.70154 4.66057 6.66673C4.65582 6.64859 4.65259 6.63009 4.65091 6.61142C4.65266 6.63048 4.65588 6.64892 4.66057 6.66673C4.66994 6.70161 4.67788 6.72373 4.68438 6.73292C4.69184 6.74359 4.70312 6.75097 4.71588 6.75354C4.72919 6.75648 4.74535 6.75539 4.76454 6.75045H4.76482C4.76243 6.72434 4.75708 6.69858 4.74888 6.67367C4.74004 6.64953 4.73455 6.6243 4.73257 6.59867C4.72627 6.47804 4.7085 6.35828 4.67951 6.24101C4.67294 6.21445 4.66794 6.16898 4.66451 6.10461C4.66357 6.10489 4.66263 6.1047 4.66169 6.10498L4.66422 6.10442C4.66902 6.062 4.66441 6.01904 4.65072 5.97861C4.64815 5.97068 4.64757 5.96225 4.64904 5.95404C4.66047 5.89404 4.66591 5.83339 4.66535 5.77207C4.67322 5.73762 4.66867 5.7015 4.65251 5.67007C4.65093 5.66692 4.65033 5.66334 4.6508 5.65976C4.65127 5.65618 4.65277 5.65276 4.65513 5.64992C4.66218 5.64232 4.66744 5.63324 4.67053 5.62335C4.67361 5.61345 4.67444 5.60299 4.67294 5.59273C4.66813 5.56256 4.6716 5.53165 4.68297 5.50329C4.71943 5.40952 4.7642 5.31919 4.81676 5.23339C4.84505 5.18751 4.88268 5.14809 4.92719 5.1177C5.00234 5.06526 5.08075 5.01766 5.16194 4.9752C5.16507 4.97367 5.16869 4.97294 5.17254 4.97304ZM5.70391 4.97707C5.72004 4.99889 5.73669 5.02017 5.75388 5.04092C5.73669 5.02029 5.72004 4.99901 5.70391 4.97707ZM8.32291 4.98054C8.35591 4.97792 8.38654 4.99117 8.41479 5.02029C8.46783 5.07512 8.51134 5.13843 8.54351 5.20761C8.54638 5.21386 8.55138 5.22011 8.55851 5.22636C8.57644 5.24286 8.58932 5.26801 8.59713 5.30182C8.60769 5.3477 8.62669 5.39114 8.65413 5.43214C8.65599 5.43501 8.65711 5.4383 8.6574 5.4417C8.65769 5.44511 8.65715 5.44854 8.6558 5.45169C8.65446 5.45483 8.65237 5.4576 8.64971 5.45975C8.64704 5.4619 8.6439 5.46336 8.64054 5.46401C8.59647 5.47189 8.56335 5.46039 8.54116 5.42951C8.52617 5.40828 8.51095 5.38722 8.49551 5.36632C8.40049 5.26716 8.3253 5.15077 8.27397 5.02339C8.27266 5.02008 8.272 5.01655 8.27204 5.013C8.27208 5.00945 8.27282 5.00595 8.27421 5.0027C8.27561 4.99944 8.27763 4.99651 8.28016 4.99406C8.2827 4.99161 8.28569 4.98969 8.28897 4.98842C8.30054 4.98404 8.31185 4.98142 8.32291 4.98054ZM6.64854 5.04786L6.64544 5.04954L6.6431 5.05029C6.64404 5.05001 6.64432 5.04964 6.64526 5.04936L6.64854 5.04786ZM6.60279 5.07486L6.6026 5.07532L6.60241 5.07514L6.60279 5.07486ZM6.42719 5.10101C6.43407 5.09966 6.44114 5.10025 6.44751 5.10272C6.45389 5.10518 6.45931 5.10941 6.4631 5.11489V5.11507C6.45931 5.1096 6.45389 5.10537 6.44751 5.1029C6.44114 5.10044 6.43407 5.09985 6.42719 5.1012L6.30194 5.12623C6.29303 5.12844 6.28384 5.12932 6.27466 5.12886C6.28122 5.12936 6.29032 5.12842 6.30194 5.12604L6.42719 5.10101ZM11.1034 5.11086C11.1068 5.11236 11.1109 5.11367 11.1143 5.11507C11.2284 5.16392 11.3395 5.21939 11.4471 5.2812C11.4906 5.30626 11.597 5.37011 11.7662 5.47273C11.6603 5.40812 11.5538 5.34433 11.4469 5.28139C11.3932 5.25042 11.3385 5.22104 11.2831 5.19326C11.2276 5.16563 11.1713 5.13962 11.1143 5.11526L11.1034 5.11086ZM12.3529 5.17892C12.357 5.18329 12.3606 5.18667 12.3636 5.18904C12.3667 5.19154 12.3692 5.1932 12.3711 5.19401C12.3684 5.19277 12.3658 5.19109 12.3636 5.18904C12.3599 5.18584 12.3563 5.1824 12.3529 5.17892ZM6.66504 5.19692C6.6716 5.21079 6.67788 5.22467 6.68613 5.23761C6.7076 5.27942 6.73076 5.32029 6.75363 5.36136C6.73076 5.32029 6.70741 5.27951 6.68594 5.23761C6.67769 5.22467 6.6716 5.2107 6.66504 5.19692ZM5.83572 5.20348C5.84272 5.20867 5.84982 5.21357 5.85701 5.2182C5.92038 5.25801 5.96579 5.29682 5.99322 5.33464C5.96572 5.29689 5.92032 5.25814 5.85701 5.21839C5.84974 5.2137 5.84265 5.20866 5.83572 5.20348ZM6.59638 5.20559C6.59986 5.20639 6.60271 5.20826 6.60447 5.21089V5.21107C6.60276 5.20839 6.59986 5.20644 6.59638 5.20559ZM10.0827 5.24979C10.0923 5.25201 10.1013 5.25636 10.109 5.26254C10.1276 5.27667 10.1411 5.30229 10.1495 5.33942C10.202 5.57454 10.228 5.69373 10.2275 5.69698C10.2219 5.73711 10.2299 5.77336 10.2514 5.80573C10.2537 5.8092 10.2552 5.81304 10.2557 5.81687C10.2562 5.8207 10.2557 5.82439 10.2542 5.82757C10.2391 5.8607 10.2129 5.87657 10.1755 5.8752C10.1719 5.87504 10.1683 5.87373 10.1652 5.87142C10.1622 5.8691 10.1597 5.86589 10.1583 5.86217C10.1319 5.79945 10.1151 5.73316 10.1083 5.66548C10.0632 5.56265 10.0262 5.45645 9.99766 5.34786C9.99568 5.34031 9.99526 5.33245 9.99644 5.32479C9.99762 5.31713 10.0004 5.30982 10.0045 5.30332C10.0303 5.2627 10.0563 5.24489 10.0827 5.24989V5.24979ZM11.6682 5.27201C11.7867 5.33251 11.8972 5.40735 11.9974 5.49486C11.8972 5.40743 11.7866 5.33259 11.6682 5.27201ZM7.40144 5.2722C7.40392 5.27191 7.40648 5.27222 7.40891 5.27308C7.41134 5.27395 7.41357 5.27535 7.41541 5.27717C7.46479 5.32504 7.5086 5.37789 7.54685 5.4357C7.56354 5.46101 7.59054 5.4982 7.62785 5.54726C7.6561 5.58395 7.67976 5.62386 7.69882 5.66698C7.72338 5.72286 7.70666 5.73542 7.64866 5.70467C7.6059 5.68225 7.56591 5.65491 7.52951 5.6232C7.48869 5.58795 7.43069 5.50745 7.35551 5.3817C7.35312 5.37772 7.35158 5.37352 7.35103 5.36951C7.35049 5.36551 7.35097 5.36182 7.35241 5.35882L7.3901 5.28026C7.39111 5.27808 7.39268 5.27621 7.39465 5.2748C7.39662 5.2734 7.39895 5.27251 7.40144 5.2722ZM12.2957 5.27511L12.2964 5.27604H12.2962L12.2957 5.27511ZM6.60091 5.30754C6.60798 5.31097 6.6156 5.31309 6.62341 5.31382C6.63035 5.31464 6.63689 5.3175 6.64218 5.32202C6.63691 5.31752 6.63042 5.31475 6.62351 5.31392C6.61568 5.31316 6.60797 5.311 6.60091 5.30754ZM4.10032 5.31767C4.09104 5.35329 4.07426 5.46251 4.05101 5.63661C4.07438 5.46098 4.09082 5.35467 4.10032 5.31767ZM6.79425 5.44109C6.79449 5.44471 6.79388 5.4482 6.79244 5.45126C6.78619 5.46314 6.77829 5.4697 6.76872 5.47095C6.77822 5.4697 6.78607 5.46314 6.79226 5.45126C6.79372 5.44821 6.79446 5.44471 6.79425 5.44109ZM12.4954 5.45989C12.5167 5.47955 12.5404 5.49646 12.5659 5.51023C12.5543 5.50192 12.5421 5.4944 12.5295 5.48773C12.5176 5.47912 12.5062 5.46983 12.4954 5.45989ZM6.1166 5.50695C6.12641 5.52589 6.13619 5.55017 6.14594 5.57979C6.14857 5.58755 6.15339 5.59438 6.15982 5.59948C6.20695 5.63682 6.23828 5.69054 6.24757 5.74995C6.23826 5.69053 6.20689 5.6368 6.15972 5.59948C6.15333 5.59437 6.14854 5.58754 6.14594 5.57979C6.13806 5.55479 6.12825 5.53043 6.1166 5.50695ZM12.2945 5.50461C12.2925 5.5124 12.2891 5.51981 12.2847 5.52654C12.2817 5.53087 12.2793 5.53561 12.2776 5.54061C12.2792 5.53562 12.2815 5.53088 12.2845 5.52654C12.289 5.51982 12.2924 5.51241 12.2945 5.50461ZM9.25216 5.6322C9.25903 5.63252 9.26568 5.63473 9.27138 5.63857C9.27411 5.64039 9.27626 5.64329 9.27759 5.64695C9.27891 5.65062 9.27936 5.65489 9.27888 5.65929C9.27419 5.69929 9.28266 5.73348 9.30429 5.76186C9.33785 5.80611 9.35513 5.82923 9.35613 5.83123C9.37188 5.86661 9.38488 5.91014 9.39513 5.96182C9.39813 5.97714 9.40454 5.99073 9.41435 6.00261C9.4506 6.04592 9.47079 6.09407 9.47491 6.14707C9.47679 6.17145 9.46704 6.17773 9.44566 6.16592C9.42681 6.15582 9.41172 6.1399 9.40263 6.12054C9.39436 6.10241 9.38561 6.0845 9.37638 6.06682C9.35522 6.03426 9.33633 6.00027 9.31985 5.96511C9.25345 5.87019 9.21187 5.76015 9.19891 5.64504C9.19869 5.64322 9.19885 5.64134 9.19938 5.63959C9.1999 5.63783 9.20077 5.63626 9.2019 5.63503C9.20303 5.63379 9.20439 5.63294 9.20584 5.63254C9.20728 5.63214 9.20877 5.63222 9.21016 5.63276L9.21766 5.63604C9.22027 5.63705 9.22285 5.63762 9.22521 5.63771C9.22756 5.63781 9.22963 5.63743 9.23126 5.63661C9.23779 5.63355 9.24495 5.63204 9.25216 5.6322ZM4.0496 5.64664V5.64682H4.04866L4.0496 5.64664ZM10.1878 5.75379C10.1835 5.75411 10.1747 5.76039 10.1613 5.77264C10.1584 5.77531 10.1564 5.77882 10.1556 5.78267C10.1543 5.79192 10.1585 5.79479 10.1684 5.79129C10.1716 5.79017 10.1747 5.78821 10.1774 5.78553C10.1802 5.78286 10.1825 5.77952 10.1843 5.77573C10.1914 5.76073 10.1926 5.75342 10.1878 5.75379ZM12.5196 5.88523C12.5204 5.88594 12.5214 5.88649 12.5224 5.88683C12.5234 5.88717 12.5244 5.8873 12.5255 5.88721C12.5265 5.88712 12.5275 5.88682 12.5285 5.88632C12.5294 5.88581 12.5302 5.88512 12.5308 5.88429L12.5317 5.88289L12.531 5.88429C12.5309 5.88429 12.5309 5.88429 12.5308 5.88429C12.5302 5.88512 12.5294 5.88581 12.5285 5.88632C12.5275 5.88682 12.5265 5.88712 12.5255 5.88721C12.5244 5.8873 12.5234 5.88717 12.5224 5.88683C12.5214 5.88649 12.5204 5.88594 12.5196 5.88523ZM6.26388 5.82851C6.28138 5.8292 6.29585 5.8317 6.30729 5.83601C6.2933 5.83125 6.27865 5.82872 6.26388 5.82851ZM8.3696 5.85889C8.41148 5.85714 8.44779 5.88532 8.47854 5.94345C8.49004 5.9652 8.50607 5.98279 8.52663 5.99623C8.54182 6.00623 8.54588 6.02154 8.53882 6.04217C8.53481 6.05381 8.5343 6.06636 8.53735 6.07825C8.5404 6.09014 8.54688 6.10084 8.55597 6.10901C8.63816 6.18245 8.68479 6.25367 8.69585 6.32267C8.7001 6.34848 8.69172 6.35361 8.67072 6.33804C8.56217 6.25757 8.46124 6.16729 8.36922 6.06832C8.36382 6.06263 8.36028 6.05509 8.3591 6.04676C8.35223 6.00182 8.32885 5.96567 8.28897 5.93829C8.28546 5.93586 8.28257 5.93263 8.28054 5.92887C8.2785 5.9251 8.27739 5.92092 8.27728 5.91664C8.27717 5.91237 8.27807 5.90813 8.27991 5.90427C8.28174 5.9004 8.28446 5.89703 8.28785 5.89442C8.3171 5.87179 8.34435 5.85992 8.3696 5.85879V5.85889ZM6.32501 5.95611L6.32538 5.95704C6.32532 5.95704 6.32526 5.95704 6.32519 5.95704C6.32501 5.95676 6.32519 5.95639 6.32501 5.95611ZM4.60966 6.18242H4.60985L4.60966 6.18279V6.18242ZM12.4974 6.28039C12.5054 6.28004 12.5133 6.28264 12.5196 6.2877C12.6415 6.38582 12.7003 6.50929 12.6959 6.65811C12.6936 6.73304 12.6742 6.79011 12.6378 6.82929C12.6016 6.86811 12.555 6.88436 12.4981 6.87804C12.4542 6.87323 12.4143 6.85211 12.3783 6.81467C12.2584 6.69029 12.2479 6.5432 12.3469 6.37339C12.3811 6.31489 12.4313 6.28389 12.4974 6.28039ZM10.3094 6.37048V6.37123L10.2831 6.45692L10.3092 6.37123C10.3092 6.37092 10.3093 6.37067 10.3094 6.37048ZM4.66563 6.38736C4.66605 6.38775 4.66645 6.38816 4.66685 6.38857C4.66642 6.38813 4.66599 6.38769 4.66554 6.38726L4.66563 6.38736ZM12.8564 6.41107C12.8971 6.4592 12.938 6.51045 12.9792 6.56482C13.0553 6.66557 13.1326 6.76551 13.211 6.86464C13.2492 6.91732 13.2815 6.96445 13.3079 7.00601C13.277 6.95798 13.2446 6.91089 13.2109 6.86482C13.1325 6.76578 13.0552 6.66587 12.979 6.56511C12.9396 6.51261 12.8987 6.46125 12.8564 6.41107ZM4.62101 6.42682C4.63021 6.43585 4.63604 6.44777 4.63751 6.46057C4.63589 6.44781 4.63009 6.43594 4.62101 6.42682ZM10.8169 6.48073C10.8618 6.48136 10.9066 6.48629 10.9515 6.49554C10.9965 6.50473 11.0415 6.51826 11.0867 6.53614L11.3124 6.60082C11.4037 6.62195 11.4914 6.65332 11.5758 6.69495C11.6687 6.7317 11.7559 6.77807 11.8372 6.83407C11.8937 6.87307 11.971 6.93364 12.0694 7.01576C12.2869 7.19778 12.4724 7.41494 12.6182 7.65823C12.6214 7.66368 12.6278 7.66703 12.636 7.66757C12.6442 7.66811 12.6535 7.66581 12.662 7.66114C12.6893 7.64614 12.7183 7.63582 12.7489 7.6302C12.7793 7.62476 12.7902 7.63148 12.7815 7.65036C12.7803 7.65287 12.778 7.65551 12.7748 7.65809C12.7717 7.66068 12.7677 7.66316 12.7631 7.66536L12.671 7.70932C12.668 7.71088 12.6658 7.71361 12.6646 7.717C12.6635 7.7204 12.6636 7.72424 12.6649 7.72779C12.6897 7.79363 12.7236 7.85564 12.7657 7.91201C12.8652 8.14285 12.94 8.38356 12.9888 8.63014C12.9902 8.63676 12.989 8.64493 12.9855 8.65339C12.9744 8.67951 12.9754 8.72217 12.9883 8.78136C12.9908 8.79286 12.9924 8.80457 12.9932 8.81651C12.995 8.85532 13 8.89426 13.008 8.93332C13.0141 8.96395 13.015 8.99295 13.0107 9.02032C13.0035 9.0657 12.9997 9.09501 12.9992 9.10826C12.9703 9.86939 12.6803 10.499 12.1291 10.9971C11.7596 11.3313 11.3211 11.5363 10.8138 11.6123C10.8123 11.6126 10.7942 11.6177 10.7596 11.6277C10.7391 11.6335 10.7173 11.6332 10.697 11.6268C10.6893 11.6243 10.6811 11.6237 10.673 11.625C10.498 11.655 10.3391 11.6585 10.1962 11.6353C10.1308 11.6245 10.079 11.6214 10.041 11.6257C10.0329 11.6267 10.0247 11.6256 10.0172 11.6224C9.93755 11.5878 9.85394 11.5631 9.76826 11.549C9.69898 11.5154 9.62825 11.4849 9.55629 11.4574C9.30869 11.3636 9.0807 11.2245 8.88391 11.0473C8.50629 10.7079 8.24413 10.2814 8.09744 9.76761C8.09509 9.75934 8.09355 9.75086 8.09285 9.74229C8.08654 9.65692 8.07366 9.59026 8.05422 9.54233C8.03955 9.50591 8.03054 9.46747 8.02751 9.42832L8.03313 9.35304C8.03788 9.29173 8.0031 9.26029 7.92879 9.25873C7.89879 9.25823 7.89763 9.2522 7.92532 9.24064C7.95213 9.22939 7.98151 9.23439 8.01344 9.25564C8.02332 9.2622 8.02776 9.25989 8.02676 9.2487L8.00866 9.05932C8.00849 9.05623 8.00721 9.05292 8.00492 9.04971C8.00263 9.04649 7.99941 9.04345 7.99554 9.04086C7.97535 9.02729 7.97535 9.01367 7.99554 8.99998C8.00273 8.99498 8.00788 8.98861 8.01016 8.98189C8.02404 8.93751 8.02916 8.89189 8.02554 8.84501V8.79476L8.02441 8.79439L8.02554 8.79457C8.04562 8.67891 8.07708 8.56552 8.11948 8.45604C8.16079 8.22036 8.24209 7.99347 8.35985 7.78517C8.38172 7.77492 8.38766 7.75848 8.37766 7.73586L8.47704 7.60948C8.56921 7.44432 8.69106 7.29758 8.83648 7.17664V7.17682L9.00476 7.0587C9.01287 7.05389 9.01963 7.04712 9.02444 7.03901C9.07269 7.0112 9.12204 6.98557 9.17247 6.96214C9.23238 6.90274 9.30113 6.85299 9.37629 6.81467C9.54316 6.75217 9.70826 6.68529 9.87157 6.61404C9.93673 6.60771 10.0011 6.59483 10.0637 6.57561C10.3059 6.50129 10.5444 6.48017 10.7794 6.51223C10.9055 6.52942 11.0079 6.53739 11.0867 6.53614C11.0429 6.51868 10.9976 6.5051 10.9515 6.49554C10.9072 6.48635 10.8622 6.48139 10.8169 6.48073ZM7.78882 6.49404C7.7922 6.49464 7.79552 6.49595 7.79858 6.49791C7.80164 6.49987 7.80435 6.50242 7.80654 6.50539C7.87309 6.59691 7.94493 6.68446 8.02169 6.76761C8.05032 6.79204 8.07735 6.81817 8.10279 6.84598C8.12216 6.86692 8.13144 6.88632 8.13063 6.9042C8.12926 6.93057 8.11119 6.94582 8.07644 6.94995C8.06879 6.95099 8.06064 6.94906 8.05347 6.94451C7.98179 6.89951 7.90332 6.82901 7.81807 6.73301C7.76538 6.67395 7.73016 6.62145 7.71241 6.57551C7.71073 6.57118 7.71001 6.56673 7.71036 6.56275C7.71071 6.55877 7.71211 6.55544 7.71438 6.5532L7.77082 6.49901C7.77308 6.49685 7.77585 6.49529 7.77894 6.49443C7.78203 6.49357 7.78546 6.49344 7.78882 6.49404ZM9.42166 6.72879C9.43435 6.72786 9.44747 6.72786 9.46104 6.72879C9.40666 6.72517 9.35966 6.73611 9.32004 6.76161C9.31973 6.76167 9.31941 6.76173 9.3191 6.76179C9.31941 6.76167 9.31973 6.76155 9.32004 6.76142C9.35064 6.7422 9.38559 6.73098 9.42166 6.72879ZM9.25544 6.76948C9.24934 6.7695 9.24324 6.76981 9.23716 6.77042C9.24279 6.76973 9.24888 6.76942 9.25544 6.76948ZM6.79432 6.79714C6.81713 6.79364 6.84582 6.81311 6.88038 6.85554C6.90069 6.89317 6.92791 6.92323 6.96204 6.94573C7.00485 6.97417 7.02663 6.9887 7.02738 6.98932C7.08963 7.03832 7.15147 7.08776 7.21291 7.13764C7.22954 7.14576 7.24301 7.16036 7.25332 7.18142C7.25503 7.18496 7.2558 7.18889 7.25555 7.19282C7.2553 7.19676 7.25404 7.20055 7.25189 7.20385C7.24974 7.20716 7.24677 7.20984 7.24328 7.21166C7.23978 7.21348 7.23588 7.21436 7.23194 7.21423C7.11969 7.20942 7.03357 7.16076 6.97357 7.06826C6.96917 7.06161 6.96253 7.05659 6.95472 7.05401C6.89328 7.03469 6.8418 6.99218 6.81119 6.93551C6.80747 6.92875 6.80093 6.92363 6.79301 6.92126C6.77711 6.91635 6.76244 6.9081 6.74997 6.89707C6.74715 6.89457 6.74506 6.89128 6.74391 6.88754C6.74276 6.88381 6.74259 6.87975 6.74341 6.87579C6.75454 6.82673 6.77151 6.80057 6.79432 6.79714ZM9.12579 6.94151C9.12 6.94634 9.11199 6.94869 9.10347 6.94807C9.07316 6.94582 9.05141 6.95226 9.03822 6.96739C9.05141 6.95226 9.07323 6.94579 9.10366 6.94798C9.11207 6.9486 9.12 6.94622 9.12579 6.94151ZM4.12685 7.07764C4.10545 7.10631 4.08175 7.13318 4.05597 7.15798C4.05117 7.20462 4.03041 7.24817 3.99719 7.28126C3.997 7.28148 3.99682 7.2817 3.99663 7.28192C3.99675 7.28161 3.99687 7.28129 3.99701 7.28098C4.03063 7.24723 4.05032 7.20623 4.05607 7.15798C4.08182 7.13317 4.10541 7.10639 4.12685 7.07764ZM8.74769 7.09545C8.75144 7.0987 8.75369 7.1027 8.75444 7.10745C8.75509 7.11308 8.75445 7.11879 8.75257 7.12414C8.74851 7.13645 8.73876 7.15157 8.72332 7.16951C8.73851 7.1517 8.74854 7.13632 8.75257 7.12414C8.75445 7.11879 8.75509 7.11308 8.75444 7.10745C8.75365 7.10276 8.75127 7.09849 8.74769 7.09536V7.09545ZM8.66323 7.16482C8.67485 7.17607 8.6856 7.18223 8.69547 7.18329C8.6856 7.18236 8.67485 7.17626 8.66323 7.16482ZM4.20391 7.17298C4.23335 7.25182 4.27132 7.32579 4.32241 7.39254C4.27132 7.32598 4.23335 7.25192 4.20391 7.17298ZM14.1999 7.23598C14.364 7.22586 14.4988 7.28732 14.6044 7.42039C14.6098 7.42239 14.6122 7.42689 14.6118 7.43389L14.7099 7.50457C14.7302 7.5192 14.7281 7.52707 14.7038 7.5282C14.6393 7.53145 14.6439 7.55904 14.7174 7.61098C14.7395 7.62673 14.7551 7.64729 14.7643 7.67267C14.7832 7.72536 14.7913 7.78942 14.7887 7.86486C14.7883 7.87249 14.791 7.88048 14.7962 7.88745C14.8155 7.91314 14.8039 7.92326 14.7614 7.91782C14.7628 7.9226 14.7653 7.92701 14.7686 7.93077C14.7719 7.93453 14.7759 7.93756 14.7804 7.93967C14.7842 7.94139 14.7878 7.94352 14.7912 7.94604C14.8021 7.95667 14.7987 7.96154 14.7812 7.96067C14.7882 8.00754 14.7866 8.0537 14.7765 8.09914C14.7762 8.10042 14.7756 8.10161 14.7748 8.10261C14.7739 8.10361 14.7728 8.1044 14.7715 8.10492C14.7702 8.10544 14.7688 8.10567 14.7673 8.10559C14.7659 8.10551 14.7645 8.10513 14.7632 8.10448C14.7482 8.09679 14.7357 8.09832 14.7259 8.10907C14.7237 8.11149 14.7226 8.11479 14.7227 8.11844C14.7228 8.12208 14.7241 8.12585 14.7264 8.12914C14.7697 8.19164 14.7579 8.24626 14.6913 8.29301C14.6888 8.3292 14.6783 8.33342 14.6599 8.30567C14.6087 8.34598 14.6115 8.35942 14.6684 8.34598C14.6729 8.34494 14.6773 8.34469 14.681 8.34528C14.6847 8.34586 14.6876 8.34725 14.6892 8.34926C14.6918 8.35257 14.6932 8.35679 14.6932 8.36192C14.7355 8.37898 14.7508 8.40595 14.7392 8.44282C14.738 8.44641 14.7356 8.44943 14.7324 8.45125C14.7292 8.45307 14.7255 8.45355 14.722 8.45257L14.6421 8.43007L14.5594 8.53001C14.5541 8.53645 14.5466 8.54049 14.5385 8.54126C14.5071 8.54482 14.4933 8.55614 14.497 8.5752C14.5133 8.59176 14.5181 8.60948 14.5113 8.62836C14.5101 8.63143 14.5079 8.63419 14.5047 8.63631C14.5016 8.63843 14.4977 8.63983 14.4934 8.64036C14.4776 8.64281 14.4625 8.64836 14.4488 8.65667C14.4359 8.67842 14.4146 8.69514 14.3851 8.70682C14.3555 8.71851 14.3092 8.74361 14.2461 8.78211C14.2248 8.80373 14.1979 8.81386 14.1655 8.81248L14.0667 8.81192C14.0373 8.81186 14.0033 8.80401 13.9649 8.78839L13.6968 8.68029C13.6745 8.67123 13.6406 8.64873 13.595 8.61279C13.39 8.45142 13.3096 8.23929 13.3538 7.97642C13.354 7.97548 13.3547 7.96482 13.3559 7.94445C13.3569 7.92582 13.3652 7.91032 13.3807 7.89795L13.4014 7.86045C13.4004 7.81989 13.4164 7.78848 13.4496 7.76623C13.4489 7.75676 13.4503 7.74724 13.4537 7.73839C13.4572 7.72954 13.4626 7.72159 13.4696 7.71514C13.479 7.70673 13.4861 7.69608 13.4903 7.68418C13.4945 7.67229 13.4956 7.65952 13.4936 7.64707C13.4866 7.62614 13.4744 7.61864 13.457 7.62457C13.4548 7.62543 13.4523 7.62748 13.4498 7.63054C13.4474 7.6336 13.445 7.63758 13.443 7.64211L13.4064 7.7232C13.4048 7.72663 13.4022 7.72966 13.3988 7.73206C13.3954 7.73445 13.3914 7.73614 13.387 7.73698C13.3726 7.73973 13.3672 7.73326 13.3707 7.71757C13.3823 7.6672 13.4098 7.62532 13.4532 7.59195C13.456 7.58972 13.4594 7.58809 13.4633 7.58714C13.4672 7.58619 13.4714 7.58594 13.4758 7.58642C13.5089 7.58998 13.5358 7.57889 13.5564 7.55314C13.5853 7.49856 13.6287 7.45296 13.6818 7.42132C13.8041 7.30182 13.9528 7.24298 14.1278 7.24479H14.128C14.1518 7.24053 14.1758 7.23759 14.1999 7.23598ZM3.98735 7.3017C3.98735 7.30189 3.98735 7.30208 3.98735 7.30226L3.99429 7.35757L3.98716 7.30207C3.98722 7.30195 3.98729 7.30182 3.98735 7.3017ZM10.48 7.36357C10.4508 7.36298 10.4216 7.36483 10.3926 7.36911C10.1206 7.40879 9.88419 7.50614 9.68332 7.66114C9.59557 7.72901 9.54735 7.82161 9.53866 7.93892C9.53554 7.98154 9.54635 8.01773 9.5711 8.04748C9.60194 8.08468 9.6413 8.11389 9.68585 8.13261C9.75316 8.16173 9.82294 8.17945 9.89519 8.18576L9.99026 8.2017C10.023 8.2072 10.0561 8.2042 10.0894 8.1927C10.1087 8.18601 10.1693 8.18767 10.2713 8.19767C10.2749 8.19803 10.2782 8.19957 10.2808 8.20203C10.2833 8.20449 10.2849 8.20772 10.2852 8.21117C10.2953 8.31792 10.3114 8.42382 10.3336 8.52889C10.3398 8.55857 10.3429 8.59826 10.3429 8.64795C10.3427 8.68857 10.3476 8.72879 10.3577 8.76861C10.3584 8.77139 10.36 8.77443 10.3624 8.77753C10.3648 8.78064 10.3679 8.78375 10.3716 8.7867L10.3979 8.80723C10.3979 8.81297 10.3967 8.81865 10.3944 8.82389C10.392 8.82912 10.3886 8.8338 10.3843 8.83761C10.366 8.85979 10.3621 8.88354 10.3726 8.90886C10.3759 8.91638 10.3777 8.92446 10.378 8.93267C10.3782 9.01267 10.3966 9.08779 10.4331 9.15804C10.4337 9.15926 10.434 9.16061 10.434 9.16197C10.434 9.16333 10.4337 9.16466 10.433 9.16585C10.4324 9.16704 10.4315 9.16806 10.4304 9.16883C10.4293 9.16959 10.4281 9.17007 10.4268 9.17023C10.2798 9.18423 10.2029 9.19073 10.1961 9.18973C10.1449 9.18136 10.0923 9.18783 10.0446 9.20839V9.20857L10.0331 9.2097V9.20951C9.98989 9.18717 9.94089 9.1786 9.89266 9.18495C9.85229 9.19039 9.82047 9.19089 9.79722 9.18645C9.7139 9.1708 9.62986 9.15919 9.54541 9.15167C9.53729 9.1508 9.52953 9.14783 9.52291 9.14304C9.4831 9.11573 9.43997 9.11073 9.39354 9.12804L9.26801 9.13442V9.13423C9.20332 9.14179 9.14551 9.16454 9.09457 9.20248C9.05707 9.23048 9.03291 9.24904 9.0221 9.25817C8.99828 9.27867 8.97903 9.30393 8.96557 9.33232C8.94548 9.37391 8.92261 9.41409 8.89713 9.45261C8.87096 9.4908 8.85721 9.53615 8.85776 9.58245C8.85788 9.61539 8.86319 9.65892 8.87369 9.71304C8.88501 9.77204 8.91019 9.82545 8.94926 9.87326C8.95019 9.87795 8.95229 9.88207 8.95554 9.88564V9.88582C8.96116 9.91376 8.97701 9.93308 9.00307 9.94376C9.05214 9.98875 9.10636 10.0278 9.1646 10.06C9.16844 10.0622 9.17262 10.0634 9.17661 10.0635C9.18061 10.0636 9.18425 10.0626 9.1871 10.0606C9.19143 10.0574 9.19491 10.0532 9.19722 10.0483C9.19898 10.0447 9.20125 10.0416 9.20382 10.0393C9.20639 10.0371 9.20916 10.0357 9.21185 10.0354C9.22385 10.0342 9.22635 10.0391 9.21935 10.0503C9.1931 10.0928 9.20098 10.1194 9.24298 10.1303C9.38529 10.1671 9.52957 10.1919 9.67582 10.2047C9.67955 10.2049 9.6831 10.2063 9.68596 10.2087C9.68882 10.211 9.69085 10.2142 9.69176 10.2177C9.70238 10.2596 9.69329 10.2959 9.66447 10.3266C9.65863 10.333 9.65523 10.3406 9.65491 10.348C9.65151 10.4824 9.65427 10.6169 9.66316 10.751C9.67241 10.8998 9.70204 11.0395 9.75204 11.17C9.77235 11.2235 9.80382 11.2631 9.84644 11.2888C9.97907 11.3686 10.1169 11.3805 10.2599 11.3244C10.3075 11.3054 10.337 11.2921 10.3484 11.2844C10.3775 11.2649 10.3955 11.2354 10.4024 11.196C10.4051 11.1792 10.4126 11.1636 10.4239 11.151C10.4397 11.1337 10.4493 11.121 10.4527 11.113C10.5065 10.996 10.5242 10.8657 10.5034 10.7386C10.5224 10.5965 10.517 10.4522 10.4873 10.312C10.4863 10.3072 10.4847 10.3029 10.4826 10.2994C10.4805 10.2959 10.478 10.2932 10.4752 10.2917C10.4649 10.2859 10.4578 10.2928 10.454 10.3125C10.4503 10.3312 10.4411 10.3406 10.4264 10.3406C10.4228 10.3406 10.4192 10.3392 10.4165 10.3366C10.4137 10.3339 10.4119 10.3304 10.4114 10.3265C10.4093 10.3154 10.4103 10.3039 10.4145 10.2934C10.4187 10.2829 10.4258 10.2739 10.435 10.2673C10.4424 10.2617 10.4472 10.2548 10.4485 10.2483C10.4553 10.2145 10.4401 10.2003 10.4031 10.2056C10.3902 10.2075 10.3823 10.2058 10.3795 10.2006C10.3788 10.1993 10.3786 10.1978 10.3788 10.1963C10.3791 10.1947 10.3798 10.1931 10.3809 10.1916C10.3821 10.19 10.3836 10.1886 10.3855 10.1874C10.3873 10.1862 10.3894 10.1852 10.3916 10.1845C10.4594 10.1625 10.5286 10.1475 10.5993 10.1397C10.6266 10.1366 10.6603 10.1274 10.7001 10.1119C10.7473 10.0936 10.7982 10.0871 10.8484 10.0928C10.8549 10.0934 10.8925 10.0851 10.9612 10.0677L11.0356 10.0489C11.178 9.99319 11.3198 9.93594 11.4609 9.87711C11.4816 9.86855 11.5016 9.85852 11.5208 9.84711C11.54 9.83592 11.5584 9.82339 11.5758 9.80961L11.6312 9.73592C11.6439 9.71911 11.6665 9.69942 11.6991 9.67686C11.726 9.65829 11.7481 9.63439 11.7654 9.60514C11.8547 9.51042 11.9336 9.40639 12.0007 9.29482C12.0207 9.22025 12.0437 9.14651 12.0695 9.07376C12.0749 9.05864 12.0749 9.04711 12.0695 9.03917C12.062 9.02854 12.0484 9.02464 12.0288 9.02745C12.0072 9.03057 12.0053 9.02589 12.0231 9.01339C12.037 9.00364 12.0491 9.00095 12.0595 9.00532C12.0627 9.00671 12.0661 9.00713 12.0691 9.00649C12.0721 9.00585 12.0746 9.00419 12.0759 9.00186C12.104 8.95086 12.1066 8.89739 12.0836 8.84145C12.0731 8.81545 12.0485 8.77217 12.0098 8.71161C11.9606 8.63404 11.8954 8.60042 11.8141 8.61073C11.8064 8.61176 11.7984 8.60994 11.7914 8.60557C11.7737 8.59401 11.7562 8.59017 11.7389 8.59404V8.59386C11.5894 8.62667 11.4477 8.69901 11.3139 8.81089C11.3 8.82242 11.284 8.83118 11.2669 8.83667C11.1777 8.86498 11.0878 8.90479 10.9973 8.95611C10.8861 8.99584 10.7772 9.04172 10.6711 9.09354C10.6697 9.09417 10.6523 9.10689 10.6188 9.1317C10.5977 9.14745 10.5718 9.15182 10.541 9.14482C10.5164 9.11761 10.5027 9.08232 10.5023 9.04564V9.04545C10.5143 9.00482 10.5063 8.96898 10.4784 8.93792L10.4773 8.82607C10.4694 8.6349 10.4409 8.44514 10.3922 8.26011C10.3894 8.22948 10.3648 8.20554 10.3184 8.18829C10.3088 8.18492 10.3089 8.18189 10.3186 8.1792C10.397 8.15714 10.4769 8.13607 10.5584 8.11601C10.613 8.10239 10.6976 8.05526 10.8122 7.97464C10.8947 7.91682 10.9455 7.83289 10.9647 7.72282C10.9809 7.63064 10.961 7.56026 10.9048 7.5117C10.8775 7.48826 10.8186 7.45873 10.7282 7.42311C10.6745 7.40202 10.6193 7.38531 10.563 7.37314H10.5628C10.5355 7.3675 10.5078 7.3643 10.48 7.36357ZM11.5758 9.80961C11.5407 9.83716 11.5021 9.85986 11.4609 9.87711C11.3198 9.93594 11.178 9.99319 11.0356 10.0489L10.9578 10.1044C10.9486 10.1108 10.9407 10.1174 10.9346 10.1239C10.9284 10.1304 10.9242 10.1365 10.9221 10.1419C10.9039 10.1917 10.9126 10.2061 10.9482 10.185C10.996 10.1569 11.0458 10.1331 11.0974 10.1137C11.1816 10.0822 11.2327 10.0621 11.2507 10.0534C11.4163 9.97342 11.5737 9.87733 11.7205 9.76658C11.7238 9.76417 11.7263 9.76094 11.7276 9.7574C11.7289 9.75386 11.7288 9.75022 11.7275 9.74708C11.72 9.72933 11.7065 9.73117 11.687 9.75261C11.6591 9.78336 11.622 9.80242 11.5758 9.80961ZM13.5163 7.38776C13.5153 7.39073 13.5139 7.39351 13.5121 7.39601H13.5119C13.5138 7.39353 13.5153 7.39074 13.5163 7.38776ZM4.37707 7.43998H4.37726C4.39788 7.45686 4.40966 7.47998 4.4126 7.50936C4.41404 7.52286 4.41747 7.53245 4.42291 7.53814H4.42263C4.41732 7.53251 4.41397 7.52292 4.4126 7.50936C4.4117 7.49598 4.40808 7.48292 4.40195 7.47099C4.39582 7.45906 4.38733 7.44851 4.37697 7.43998H4.37707ZM3.88816 7.4997L3.8876 7.50186L3.88704 7.50279L3.88741 7.50186L3.88816 7.4997ZM3.89951 7.57723H3.90157C3.90044 7.57723 3.89935 7.57732 3.89829 7.57751L3.89951 7.57723ZM3.86341 7.60217L3.8636 7.60311V7.60329L3.80941 7.68279C3.80928 7.6831 3.80916 7.68342 3.80904 7.68373C3.80909 7.68342 3.80916 7.68311 3.80922 7.68279L3.86341 7.60311V7.60217ZM10.7478 7.63001H10.748C10.7483 7.63037 10.7485 7.63075 10.7487 7.63114C10.7484 7.63074 10.7482 7.63036 10.7478 7.63001ZM3.8036 7.70492C3.80563 7.72316 3.80381 7.74162 3.79826 7.75911C3.79263 7.77786 3.78326 7.79745 3.77013 7.81789L3.76938 7.81901L3.76985 7.81789C3.78213 7.79978 3.7917 7.77998 3.79826 7.75911C3.80388 7.74029 3.80566 7.72223 3.8036 7.70492ZM6.75447 7.71776C6.76727 7.71713 6.78008 7.71868 6.79235 7.72236C6.8696 7.74504 6.90526 7.78142 6.89932 7.83148C6.89874 7.83704 6.8997 7.84264 6.9021 7.84767C6.9045 7.85271 6.90824 7.85696 6.91291 7.85998C6.95154 7.88473 6.96732 7.91411 6.96026 7.94811C6.95544 7.97136 6.96132 8.01742 6.97788 8.08629C6.98495 8.1135 6.98638 8.14186 6.9821 8.16963C6.97781 8.19741 6.96789 8.22402 6.95294 8.24782C6.91827 8.30625 6.87012 8.35553 6.81251 8.39154C6.80927 8.39357 6.8056 8.39493 6.8017 8.39552C6.79781 8.39612 6.79377 8.39594 6.78982 8.39501L6.62763 8.35845C6.61957 8.35651 6.61252 8.35234 6.60747 8.34654C6.51247 8.23479 6.48097 8.10698 6.51297 7.96311C6.51677 7.9405 6.51813 7.91756 6.51701 7.89467C6.51607 7.86454 6.52541 7.84214 6.54504 7.82745C6.59807 7.78678 6.65595 7.75287 6.71735 7.72648C6.7296 7.72136 6.74197 7.71845 6.75447 7.71776ZM13.2611 7.81479C13.2341 7.87186 13.2202 7.92764 13.2194 7.98214C13.2191 8.00032 13.2204 8.01832 13.223 8.03614C13.2241 8.04417 13.2228 8.05244 13.2193 8.05995C13.2062 8.08795 13.1997 8.1112 13.1998 8.1297C13.1997 8.11114 13.2062 8.08789 13.2194 8.05995C13.2228 8.05241 13.224 8.04415 13.2229 8.03614C13.2203 8.01826 13.2191 8.0002 13.2194 7.98214C13.2201 7.92776 13.234 7.87204 13.2609 7.81498L13.2611 7.81479ZM10.3675 7.83973L10.3684 7.84001C10.3678 7.83985 10.3672 7.83985 10.3666 7.84001C10.3669 7.84001 10.3672 7.83964 10.3675 7.83973ZM10.3654 7.84039L10.3648 7.84076V7.84057C10.365 7.84039 10.3653 7.84057 10.3654 7.84039ZM8.26385 7.85726C8.25717 7.86036 8.25088 7.86423 8.2451 7.86879C8.23427 7.87754 8.22609 7.88913 8.22147 7.90226C8.22493 7.89218 8.2305 7.88295 8.23781 7.87519C8.24512 7.86743 8.25399 7.86132 8.26385 7.85726ZM10.0094 7.90761C10.0104 7.91192 10.0118 7.91611 10.0138 7.92007C10.0158 7.92429 10.0182 7.92828 10.0211 7.93198C10.017 7.92644 10.0136 7.92035 10.0112 7.91389L10.0094 7.90761ZM3.50257 8.05573H3.50276V8.05629L3.50257 8.05573ZM3.65801 8.09511L3.65472 8.10486L3.65801 8.10739L3.65472 8.10504L3.6536 8.10664L3.65454 8.10476C3.65594 8.10082 3.65669 8.09904 3.65801 8.09511ZM3.60401 8.25242V8.25382C3.60369 8.2592 3.58122 8.33701 3.5366 8.48726L3.53585 8.48989L3.53641 8.48736C3.58104 8.33704 3.60351 8.25923 3.60382 8.25392L3.60401 8.25242ZM13.0259 8.3007C13.0203 8.30364 13.0164 8.31311 13.0144 8.32911C13.014 8.33266 13.0144 8.33647 13.0156 8.34028C13.0169 8.34409 13.019 8.34782 13.0218 8.35123C13.0283 8.35917 13.0332 8.36698 13.0364 8.37467C13.0396 8.38172 13.0413 8.3894 13.0412 8.39716C13.0412 8.40493 13.0394 8.41258 13.036 8.41957C13.0322 8.42747 13.0271 8.43471 13.021 8.44104C13.0181 8.44408 13.0159 8.44761 13.0147 8.45132C13.0135 8.45502 13.0133 8.45877 13.0141 8.46223C13.0153 8.46721 13.0171 8.472 13.0196 8.47648H13.0194C13.017 8.47199 13.0152 8.4672 13.0141 8.46223C13.0132 8.45879 13.0134 8.45504 13.0146 8.45134C13.0158 8.44763 13.0179 8.44409 13.0208 8.44104C13.027 8.43472 13.0321 8.42748 13.036 8.41957C13.0394 8.41258 13.0412 8.40493 13.0412 8.39716C13.0413 8.3894 13.0396 8.38172 13.0364 8.37467C13.0326 8.36617 13.0276 8.35827 13.0216 8.35123C13.0188 8.34782 13.0167 8.34409 13.0154 8.34028C13.0142 8.33647 13.0138 8.33266 13.0143 8.32911C13.0163 8.31311 13.0203 8.30364 13.0259 8.3007ZM14.7939 8.34232C14.794 8.34232 14.7941 8.34232 14.7942 8.34232C14.794 8.34244 14.7938 8.34257 14.7936 8.3427C14.7937 8.34257 14.7938 8.34245 14.7939 8.34232ZM13.0899 8.43317C13.0932 8.43567 13.0964 8.43964 13.0998 8.44507C13.1016 8.44791 13.1026 8.45144 13.1029 8.4554C13.1026 8.45144 13.1014 8.44788 13.0996 8.44507C13.097 8.4406 13.0938 8.43658 13.0899 8.43317ZM13.1288 8.53676L13.129 8.53695C13.1439 8.57976 13.1565 8.62273 13.1667 8.66586C13.1977 8.79501 13.2076 8.92831 13.1962 9.06064L13.1765 9.29482L13.196 9.06045C13.2075 8.9282 13.1975 8.79497 13.1667 8.66586C13.1564 8.62267 13.1438 8.57964 13.1288 8.53676ZM13.3137 8.56882L13.4941 8.74226L13.3137 8.56901V8.56882ZM3.52441 8.61167L3.5246 8.61401C3.52469 8.61458 3.52481 8.61515 3.52497 8.6157C3.52475 8.61515 3.52456 8.61459 3.52441 8.61401V8.61167ZM11.9624 8.72192C11.9667 8.72219 11.9708 8.72414 11.9738 8.72736V8.72754C11.9708 8.7243 11.9667 8.72231 11.9624 8.72202C11.9581 8.72172 11.9539 8.72313 11.9507 8.72595C11.9538 8.7231 11.958 8.72165 11.9624 8.72192ZM11.7061 8.73157C11.7236 8.73138 11.7412 8.73241 11.7586 8.73467C11.7469 8.73417 11.7352 8.73323 11.7235 8.73186C11.7008 8.73112 11.6782 8.73243 11.6557 8.73579C11.6447 8.73742 11.6339 8.73961 11.6231 8.74236C11.6125 8.74523 11.602 8.74861 11.5916 8.75248C11.6123 8.74471 11.6338 8.73911 11.6557 8.73579C11.6724 8.73326 11.6892 8.73185 11.7061 8.73157ZM7.97791 8.74639V8.74939L7.9781 8.75032L7.97772 8.74939L7.97791 8.74639ZM7.87741 8.77957L7.8776 8.7807H7.87741C7.87722 8.78014 7.87751 8.78004 7.87741 8.77957ZM11.9024 8.79636C11.8899 8.80305 11.8785 8.81172 11.8688 8.82204C11.8749 8.81754 11.8805 8.81252 11.8857 8.80704C11.8909 8.80311 11.8965 8.79954 11.9024 8.79636ZM13.763 8.84492C13.8334 8.87204 13.8977 8.89964 13.9561 8.9277C13.9561 8.92776 13.9561 8.92782 13.9561 8.92789C13.8929 8.89767 13.8285 8.86999 13.763 8.84492ZM11.3547 8.84951C11.321 8.87609 11.2859 8.90073 11.2494 8.92329C11.2613 8.91502 11.2735 8.90714 11.2859 8.89967C11.3253 8.87217 11.3482 8.85545 11.3547 8.84951ZM11.5977 8.90286C11.5977 8.90282 11.5977 8.90289 11.5977 8.90286ZM7.87882 8.93501C7.87888 8.93501 7.87894 8.93501 7.87901 8.93501C7.87894 8.93514 7.87888 8.93526 7.87882 8.93539C7.87882 8.93526 7.87882 8.93514 7.87882 8.93501ZM11.575 8.96829C11.5563 8.99744 11.5409 9.02857 11.5291 9.06111C11.525 9.07197 11.5214 9.08297 11.5182 9.09411C11.5245 9.07189 11.5325 9.05018 11.542 9.02914C11.5515 9.00807 11.5625 8.98773 11.575 8.96829ZM7.86438 8.96886C7.86532 8.97973 7.86769 8.99086 7.87151 9.00223C7.87366 9.0086 7.87386 9.01683 7.87207 9.02586L7.85997 9.08164C7.85935 9.08441 7.85945 9.08792 7.86025 9.09195C7.85941 9.08792 7.85922 9.08444 7.85979 9.08164L7.87188 9.02604C7.87367 9.01702 7.87347 9.00879 7.87132 9.00242C7.86765 8.99156 7.86532 8.98028 7.86438 8.96886ZM11.5324 8.98226H11.5325L11.5314 8.98357L11.5324 8.98226ZM10.4242 9.03317H10.4247L10.4237 9.03354L10.4242 9.03317ZM11.9985 9.0447C11.9985 9.04482 11.9986 9.04495 11.9987 9.04507H11.9985C11.9985 9.04495 11.9985 9.04482 11.9985 9.0447ZM11.1994 9.08904C11.2053 9.08889 11.211 9.09067 11.2158 9.09411C11.211 9.09074 11.2052 9.08903 11.1994 9.08923H11.1956L11.1994 9.08904ZM11.7819 9.17051C11.782 9.17064 11.782 9.17076 11.7821 9.17089C11.7822 9.17095 11.7823 9.17102 11.7825 9.17107C11.7823 9.17108 11.7821 9.17108 11.7819 9.17107C11.7819 9.17089 11.7819 9.1707 11.7819 9.17051ZM9.34498 9.19648C9.34248 9.20104 9.33723 9.20451 9.32923 9.20689C9.33716 9.20439 9.34241 9.20086 9.34498 9.19648ZM9.30869 9.21448C9.30876 9.21448 9.30882 9.21448 9.30888 9.21448C9.30827 9.21575 9.30798 9.21717 9.30805 9.21859C9.30811 9.22002 9.30853 9.22141 9.30926 9.22264L9.30907 9.22245C9.30836 9.22123 9.30795 9.21986 9.30788 9.21845C9.30782 9.21705 9.3081 9.21574 9.30869 9.21448ZM10.2735 9.21645C10.2737 9.21651 10.274 9.21657 10.2742 9.21664C10.274 9.21663 10.2737 9.21663 10.2735 9.21664H10.27L10.2735 9.21645ZM6.30344 9.22179C6.42719 9.22511 6.53747 9.25029 6.63429 9.29736C6.65504 9.28836 6.67213 9.29242 6.68557 9.30954C6.68726 9.31165 6.68984 9.31364 6.69313 9.31541C6.69643 9.31718 6.70039 9.31869 6.70479 9.31986L6.73647 9.32801C6.73942 9.32874 6.7419 9.33102 6.74343 9.33441C6.74496 9.3378 6.74542 9.34205 6.74472 9.34629C6.73597 9.39579 6.75385 9.43136 6.79835 9.45298C6.83035 9.48048 6.86285 9.50704 6.89585 9.53267C6.90704 9.54111 6.91329 9.54929 6.9146 9.55723C6.91539 9.56139 6.91522 9.56568 6.91412 9.56977C6.91301 9.57386 6.911 9.57765 6.90822 9.58086C6.90625 9.58351 6.90518 9.58668 6.90522 9.58982C6.90525 9.59296 6.90638 9.59586 6.90841 9.59801C6.92654 9.61676 6.93569 9.63954 6.93588 9.66636C6.93598 9.67486 6.93826 9.68281 6.94244 9.68923C6.97294 9.73494 6.99197 9.78733 6.99794 9.84195C7.00551 9.85914 7.01532 9.87483 7.02738 9.88901C7.0291 9.89111 7.03062 9.89415 7.03184 9.89795C7.03306 9.90175 7.03397 9.90623 7.03451 9.91114L7.05429 10.0724C7.05641 10.089 7.05588 10.1015 7.05269 10.11C7.03246 10.1674 7.01082 10.2243 6.98782 10.2806L6.95013 10.3835C6.90663 10.5029 6.82888 10.6003 6.71688 10.6756C6.706 10.6829 6.69661 10.6922 6.68922 10.703C6.66629 10.7358 6.63804 10.7525 6.60447 10.7533C6.5964 10.7532 6.58841 10.7549 6.58104 10.7582C6.47997 10.806 6.38488 10.8266 6.29576 10.82C6.26632 10.8179 6.24826 10.8285 6.24157 10.8517C6.24123 10.8531 6.24058 10.8544 6.23968 10.8554C6.23879 10.8565 6.23767 10.8574 6.23643 10.8579C6.23518 10.8585 6.23385 10.8587 6.23254 10.8586C6.23123 10.8585 6.22999 10.858 6.22891 10.8573C6.18379 10.8289 6.14332 10.8186 6.10751 10.8265C6.06813 10.835 6.03572 10.8384 6.01029 10.8369C5.99136 10.8358 5.97242 10.8348 5.95347 10.834C5.89465 10.8347 5.83702 10.8174 5.78819 10.7846C5.76235 10.7676 5.73694 10.7499 5.71197 10.7316C5.68679 10.7115 5.66738 10.685 5.65572 10.6549C5.65429 10.6515 5.65198 10.6484 5.64902 10.646C5.64606 10.6437 5.64253 10.6421 5.63876 10.6414L5.59469 10.6333C5.58724 10.6319 5.58023 10.6271 5.57519 10.62L5.43804 10.4222C5.43342 10.4156 5.43094 10.4078 5.43094 10.3998C5.43094 10.3919 5.43342 10.3841 5.43804 10.3777C5.44835 10.3635 5.44751 10.352 5.43551 10.3434C5.39169 10.3564 5.37422 10.3437 5.3831 10.3054C5.38478 10.2975 5.38455 10.2893 5.38244 10.2815C5.3791 10.2699 5.37821 10.2578 5.37982 10.2458C5.38144 10.2338 5.38552 10.2223 5.39182 10.212L5.43569 9.99242C5.43032 9.97072 5.42986 9.9481 5.43435 9.9262C5.43885 9.9043 5.44818 9.88368 5.46166 9.86586L5.48585 9.78551C5.53635 9.6077 5.63491 9.46311 5.78154 9.35173C5.79747 9.32542 5.82013 9.30698 5.84951 9.29642C5.92776 9.26111 6.03629 9.23757 6.1751 9.22582C6.21941 9.22207 6.26219 9.22073 6.30344 9.22179ZM11.3445 9.22639C11.3329 9.23801 11.3201 9.24851 11.306 9.25789V9.2577C11.3201 9.24839 11.3329 9.23795 11.3445 9.22639ZM11.4367 9.22742L11.5418 9.31883C11.5446 9.3213 11.5479 9.32317 11.5516 9.3243C11.5479 9.3232 11.5446 9.32146 11.5418 9.31901L11.4367 9.22742ZM11.8849 9.26276L11.8858 9.26314C11.8858 9.2632 11.8858 9.26326 11.8858 9.26332L11.8849 9.26276ZM10.8673 9.26314C10.8579 9.26745 10.8485 9.27195 10.84 9.2772C10.8494 9.27314 10.8586 9.26844 10.8673 9.26314ZM11.6217 9.27504C11.6216 9.27523 11.6216 9.27542 11.6215 9.27561C11.6213 9.27592 11.6211 9.27623 11.6209 9.27654C11.6211 9.27623 11.6212 9.27592 11.6213 9.27561C11.6214 9.27542 11.6216 9.27523 11.6217 9.27504ZM9.69851 9.27851C9.69857 9.27851 9.69863 9.27851 9.69869 9.27851C9.69883 9.27882 9.69896 9.27913 9.69907 9.27945C9.6989 9.27913 9.69871 9.27882 9.69851 9.27851ZM11.1701 9.27851C11.1608 9.28799 11.1523 9.29821 11.1447 9.30907C11.1299 9.32995 11.119 9.35328 11.1124 9.37798C11.1092 9.39052 11.107 9.40332 11.1059 9.41623C11.109 9.37768 11.1224 9.34067 11.1447 9.30907C11.1522 9.29851 11.1607 9.28826 11.1701 9.27851ZM9.58188 9.28442C9.58402 9.28465 9.58613 9.28512 9.58816 9.28583C9.58436 9.28403 9.58007 9.28357 9.57597 9.28451C9.57792 9.28414 9.57992 9.28417 9.58188 9.28442ZM9.69982 9.28892C9.69978 9.2893 9.69972 9.28967 9.69963 9.29004H9.69944C9.69959 9.28968 9.69972 9.2893 9.69982 9.28892ZM11.4377 9.2974C11.4342 9.29921 11.4313 9.30187 11.4292 9.30514C11.417 9.32387 11.4083 9.34464 11.4034 9.36645C11.4017 9.37387 11.4005 9.38138 11.3997 9.38895C11.4014 9.37397 11.4047 9.35923 11.4096 9.34498C11.4146 9.33093 11.4212 9.31753 11.4293 9.30504C11.4314 9.30179 11.4343 9.29921 11.4377 9.2974ZM11.4917 9.30232C11.4988 9.3045 11.5054 9.30823 11.511 9.31326C11.5165 9.31828 11.5209 9.32448 11.5237 9.33139C11.5199 9.32224 11.5135 9.31442 11.5053 9.30889C11.5009 9.30634 11.4964 9.30414 11.4917 9.30232ZM9.8591 9.30748C9.8651 9.31067 9.87104 9.31311 9.87691 9.31479C9.8882 9.31815 9.90018 9.31841 9.9116 9.31554C9.90576 9.31552 9.89994 9.31618 9.89426 9.31751C9.88838 9.31736 9.88254 9.3165 9.87691 9.31479C9.87074 9.313 9.86477 9.31049 9.8591 9.30748ZM10.6068 9.31948L10.6066 9.32014C10.5872 9.34341 10.5694 9.368 10.5534 9.39373C10.5614 9.38095 10.5697 9.36844 10.5785 9.35623C10.5873 9.34386 10.5967 9.33183 10.6066 9.32014H10.6064L10.6068 9.31948ZM9.53979 9.32061C9.5346 9.32244 9.52958 9.32473 9.52479 9.32745C9.52076 9.32972 9.5169 9.33229 9.51326 9.33514C9.51007 9.33772 9.50723 9.34072 9.50482 9.34404C9.50039 9.35027 9.49797 9.35769 9.49788 9.36533C9.4979 9.35944 9.49929 9.35364 9.50197 9.3484C9.50464 9.34315 9.5085 9.33861 9.51326 9.33514C9.5169 9.33229 9.52076 9.32972 9.52479 9.32745C9.52922 9.32501 9.53423 9.32273 9.53979 9.32061ZM11.2984 9.33636C11.3127 9.33613 11.3269 9.33958 11.3396 9.34639C11.3327 9.34462 11.326 9.34207 11.3197 9.33879C11.3127 9.33716 11.3055 9.33635 11.2984 9.33636ZM11.2984 9.33636C11.2908 9.33636 11.2829 9.33729 11.2747 9.33917C11.2622 9.34268 11.2498 9.34707 11.2379 9.35229C11.228 9.35658 11.2186 9.36186 11.2098 9.36804C11.2176 9.36242 11.227 9.35717 11.2379 9.35229C11.2487 9.34742 11.261 9.34304 11.2747 9.33917C11.2825 9.3374 11.2904 9.33646 11.2984 9.33636ZM9.48007 9.34292C9.4758 9.34651 9.47071 9.34899 9.46526 9.35014C9.45825 9.35154 9.45106 9.3518 9.44398 9.35089L9.43104 9.34939C9.43591 9.34995 9.43901 9.35004 9.44416 9.3507C9.45118 9.35165 9.4583 9.35146 9.46526 9.35014C9.47066 9.34889 9.47572 9.34636 9.48007 9.34292ZM10.3037 9.34367C10.3103 9.35169 10.3178 9.35889 10.3261 9.36514C10.3222 9.36236 10.3185 9.35929 10.315 9.35595C10.3111 9.35206 10.3073 9.34799 10.3038 9.34376L10.3037 9.34367ZM9.21991 9.34404C9.21935 9.34461 9.2186 9.34479 9.21804 9.34536V9.34517L9.21991 9.34404ZM9.83472 9.34442C9.83639 9.34425 9.83807 9.34438 9.83969 9.34479C9.83634 9.34403 9.83283 9.34451 9.82985 9.34614C9.82687 9.34777 9.82463 9.35043 9.82357 9.35361C9.82435 9.35118 9.82582 9.34903 9.82781 9.34741C9.8298 9.34578 9.83214 9.34474 9.83472 9.34442ZM11.7216 9.34536L11.7222 9.34592L11.7209 9.34554L11.7216 9.34536ZM9.28038 9.34554C9.29644 9.34553 9.31212 9.35037 9.32538 9.35942C9.30949 9.34818 9.28992 9.34339 9.27063 9.34601C9.26407 9.34689 9.25729 9.34845 9.25029 9.3507C9.25998 9.34751 9.27018 9.34577 9.28038 9.34554ZM10.416 9.34648H10.4162L10.4158 9.34704L10.416 9.34648ZM10.245 9.36279C10.2541 9.3644 10.2626 9.36838 10.2696 9.37432C10.2732 9.37732 10.2764 9.38086 10.2793 9.38492C10.2823 9.38931 10.2849 9.39395 10.2872 9.39879C10.2896 9.40404 10.2917 9.40979 10.2934 9.41604C10.2918 9.41014 10.2897 9.40438 10.2872 9.39879C10.2849 9.39395 10.2823 9.38931 10.2793 9.38492C10.2739 9.37717 10.2666 9.37092 10.2581 9.36673C10.2539 9.36486 10.2495 9.3636 10.245 9.36279ZM10.3993 9.36204C10.3891 9.36866 10.3794 9.37605 10.3703 9.38417C10.3432 9.40838 10.3227 9.43905 10.3106 9.47333H10.3105C10.3148 9.46151 10.3199 9.45036 10.3259 9.43986C10.3434 9.40816 10.3687 9.3814 10.3993 9.36204ZM9.40151 9.37001C9.40342 9.36945 9.40536 9.36945 9.40713 9.37001C9.40438 9.36912 9.40129 9.3696 9.3985 9.37134C9.39571 9.37309 9.39343 9.37597 9.39213 9.37939C9.393 9.3771 9.39433 9.37504 9.39597 9.37339C9.39761 9.37175 9.39952 9.37059 9.40151 9.37001ZM9.50276 9.41079C9.50352 9.41535 9.50296 9.42004 9.50116 9.42429C9.50298 9.42001 9.50353 9.41529 9.50276 9.4107V9.41079ZM9.96897 9.41314C9.96923 9.41325 9.96948 9.41337 9.96973 9.41351C9.96948 9.41344 9.96923 9.41337 9.96897 9.41332H9.96766L9.96897 9.41314ZM7.8671 9.46909C7.87006 9.47227 7.87363 9.47482 7.8776 9.47661H7.87741C7.87348 9.4748 7.87003 9.47227 7.8671 9.46909ZM9.61048 9.46189L9.60354 9.46714C9.60579 9.46526 9.6081 9.46358 9.61048 9.46189ZM9.41529 9.52611C9.41152 9.53083 9.40894 9.53639 9.40779 9.54233C9.40663 9.54831 9.40695 9.55449 9.40873 9.56032C9.41076 9.56737 9.41396 9.57402 9.41819 9.58001C9.42338 9.58801 9.42857 9.59489 9.43376 9.60064C9.42804 9.59413 9.42277 9.58724 9.41801 9.58001C9.41381 9.57402 9.41073 9.56736 9.40873 9.56032C9.40695 9.55449 9.40663 9.54831 9.40779 9.54233C9.40894 9.53639 9.41152 9.53083 9.41529 9.52611ZM9.73244 9.52808L9.73169 9.53117C9.72875 9.54406 9.72213 9.55573 9.71266 9.56473H9.71247C9.72194 9.55573 9.72856 9.54406 9.73151 9.53117L9.73244 9.52808ZM11.0465 9.55395C11.0446 9.55986 11.0439 9.56608 11.0445 9.57226C11.045 9.57844 11.0468 9.58445 11.0496 9.58995C11.044 9.57876 11.0429 9.56593 11.0465 9.55395ZM14.0039 9.55114C14.0038 9.56145 14.0002 9.62536 13.993 9.74286L13.9929 9.74304C14.0002 9.62554 14.0038 9.56157 14.0039 9.55114ZM7.94969 9.56567C7.94982 9.56583 7.94994 9.56598 7.95007 9.56614C7.95001 9.56614 7.94994 9.56614 7.94988 9.56614C7.94982 9.56598 7.94975 9.56582 7.94969 9.56567ZM10.6272 9.57186C10.6121 9.61607 10.5938 9.6591 10.5723 9.70057C10.5873 9.65636 10.6057 9.61333 10.6272 9.57186ZM10.45 9.58236C10.4209 9.6221 10.3964 9.665 10.3769 9.71023C10.3678 9.76079 10.3581 9.76289 10.3476 9.71651C10.3527 9.71754 10.3579 9.71752 10.363 9.71643C10.368 9.71535 10.3728 9.71324 10.377 9.71023C10.3966 9.66504 10.4211 9.62222 10.45 9.58236ZM9.40919 9.61414C9.40469 9.61304 9.39997 9.61316 9.39553 9.61447C9.39108 9.61579 9.38706 9.61826 9.38388 9.62164C9.35143 9.656 9.321 9.69221 9.29276 9.73011C9.32104 9.69224 9.35149 9.65606 9.38398 9.62173C9.38716 9.61836 9.39117 9.61588 9.39562 9.61457C9.40007 9.61325 9.40478 9.61313 9.40929 9.61423L9.40919 9.61414ZM9.87304 9.62827C9.87288 9.63219 9.8735 9.63625 9.87485 9.6402L9.89023 9.68407V9.68464L9.89004 9.68407L9.87485 9.6402C9.8735 9.63625 9.87288 9.63219 9.87304 9.62827ZM9.45682 9.64217C9.458 9.64522 9.45863 9.64846 9.45869 9.65173C9.45864 9.65552 9.458 9.65928 9.45682 9.66289C9.45801 9.65925 9.45865 9.65546 9.45869 9.65164C9.45861 9.64843 9.45797 9.64516 9.45682 9.64217ZM10.2229 9.65632L10.2153 9.66832C10.218 9.6642 10.2206 9.66026 10.2229 9.65632ZM10.0257 9.65726C10.0075 9.67016 9.99195 9.68634 9.97976 9.70498C9.97557 9.71161 9.96973 9.73307 9.96223 9.76939C9.96966 9.73314 9.97544 9.71167 9.97957 9.70498C9.99181 9.68629 10.0075 9.67017 10.0257 9.65726ZM9.47313 9.65961H9.47332C9.4708 9.66189 9.46904 9.66497 9.46826 9.66846C9.46901 9.66497 9.47065 9.66191 9.47313 9.65961ZM9.96344 9.66383C9.94949 9.70457 9.9309 9.74357 9.90804 9.78007C9.90106 9.79117 9.89247 9.80115 9.88254 9.8097C9.88745 9.80554 9.89203 9.80099 9.89622 9.79611C9.90054 9.79117 9.90447 9.78582 9.90804 9.78007C9.93069 9.74346 9.94927 9.70448 9.96344 9.66383ZM9.8426 9.67864C9.85039 9.67878 9.85811 9.68014 9.86548 9.68267C9.8604 9.68107 9.85519 9.67991 9.84991 9.6792C9.84524 9.67861 9.84052 9.67861 9.83585 9.6792C9.82703 9.68052 9.81877 9.68432 9.81204 9.69017C9.82051 9.68278 9.83136 9.67869 9.8426 9.67864ZM9.60166 9.74033C9.59974 9.74832 9.59536 9.7554 9.58919 9.76048H9.58901C9.59525 9.75543 9.59969 9.74835 9.60166 9.74033ZM9.45026 9.74801C9.43612 9.76043 9.42367 9.77464 9.41322 9.79029C9.41938 9.78341 9.42502 9.77607 9.4301 9.76836C9.43629 9.76123 9.44301 9.75445 9.45026 9.74801ZM7.93066 9.78448C7.92735 9.79604 7.92297 9.80342 7.91754 9.80661C7.92297 9.80361 7.92735 9.79623 7.93066 9.78448ZM9.13957 9.83276C9.12649 9.83732 9.11288 9.84016 9.09907 9.8412C9.09875 9.84131 9.09844 9.84143 9.09813 9.84157C9.09843 9.84137 9.09874 9.84118 9.09907 9.84101C9.11369 9.83989 9.12726 9.83714 9.13957 9.83276ZM9.54513 9.80089H9.54532L9.54148 9.80511L9.54513 9.80089ZM7.95916 9.82329L7.98691 9.84298C7.99379 9.85048 8.00004 9.85842 8.00566 9.86679C7.99988 9.85853 7.99356 9.85067 7.98673 9.84326C7.97772 9.8364 7.96847 9.82974 7.95916 9.82329ZM9.92079 9.82817C9.91397 9.83223 9.90754 9.83691 9.90157 9.84214C9.90626 9.83783 9.91266 9.83317 9.92079 9.82817ZM10.9695 9.86154L10.968 9.86229C10.967 9.86257 10.9667 9.86248 10.9658 9.86286L10.968 9.86211L10.9695 9.86154ZM10.1105 9.86464L10.1052 9.87326C10.1071 9.87045 10.1089 9.86757 10.1105 9.86464ZM10.3173 9.93111L10.3217 9.97986V9.98182L10.3215 9.97986L10.3173 9.93111ZM9.89923 9.91723C9.8881 9.92309 9.87727 9.9295 9.86679 9.93645C9.87679 9.9297 9.88766 9.92329 9.89923 9.91723ZM9.28469 9.92764C9.27818 9.93978 9.27011 9.95103 9.26069 9.96111C9.26475 9.95562 9.2691 9.95037 9.27372 9.94536C9.27772 9.93979 9.28138 9.93395 9.28469 9.92764ZM9.69138 9.93748L9.6881 9.94264C9.68804 9.94264 9.68797 9.94264 9.68791 9.94264L9.69138 9.93748ZM9.4451 9.94095L9.44276 9.94564C9.43746 9.95444 9.43158 9.96286 9.42513 9.97086L9.42419 9.97226C9.42457 9.97179 9.42457 9.97133 9.42494 9.97086C9.43463 9.95798 9.44051 9.94954 9.44257 9.94554L9.4451 9.94095ZM10.0142 10.031C10.0075 10.0554 10.0007 10.0796 9.99354 10.1036C9.9786 10.1532 9.99616 10.1881 10.0462 10.2083C10.05 10.2099 10.0534 10.2121 10.0561 10.2151C10.0589 10.218 10.061 10.2214 10.0624 10.2252C10.0805 10.2748 10.0723 10.2855 10.0378 10.2572C9.99279 10.2205 9.97873 10.2305 9.9956 10.2872C10.0153 10.354 10.0243 10.4225 10.0226 10.4925C10.0224 10.5003 10.0248 10.5081 10.0295 10.515C10.057 10.555 10.0665 10.6004 10.0581 10.6509C10.0556 10.6665 10.0634 10.7059 10.0814 10.769C10.0839 10.7779 10.0887 10.785 10.0948 10.7887C10.1075 10.7966 10.1168 10.7931 10.1229 10.7783C10.1261 10.7688 10.1267 10.7585 10.1246 10.7487C10.1119 10.6708 10.1085 10.5916 10.1146 10.5128C10.1036 10.3996 10.0939 10.2721 10.0856 10.1303C10.0849 10.1179 10.0814 10.1058 10.0753 10.095C10.0608 10.0689 10.0575 10.0494 10.0654 10.0364C10.1272 10.0311 10.1817 10.0557 10.2289 10.11C10.2468 10.1302 10.2715 10.1362 10.3033 10.1278C10.3051 10.1273 10.3071 10.1271 10.3089 10.1273C10.3108 10.1274 10.3126 10.1278 10.3142 10.1286C10.3157 10.1293 10.3171 10.1303 10.3182 10.1315C10.3192 10.1327 10.32 10.1342 10.3204 10.1357C10.3217 10.1418 10.3219 10.1482 10.3207 10.1544C10.3188 10.1638 10.319 10.1723 10.3213 10.1785C10.381 10.3456 10.4061 10.5164 10.3966 10.691C10.3882 10.8451 10.3834 10.9273 10.3822 10.9375C10.3724 11.0223 10.3413 11.1032 10.2918 11.1727C10.2642 11.2115 10.227 11.2393 10.1802 11.2561C10.1377 11.2715 10.0917 11.2749 10.0473 11.2659C9.98779 11.2544 9.94047 11.2255 9.90541 11.1793C9.87654 11.1414 9.84891 11.0863 9.82254 11.014C9.80058 10.9545 9.79066 10.8913 9.79338 10.8279C9.77651 10.7418 9.75994 10.6555 9.74369 10.5692L9.75476 10.489C9.75519 10.4858 9.75475 10.4822 9.75346 10.4786C9.75216 10.4749 9.75005 10.4712 9.74726 10.4678C9.73038 10.4471 9.72951 10.4249 9.74463 10.401C9.77044 10.39 9.77932 10.3686 9.77126 10.3369C9.76296 10.3039 9.75877 10.27 9.75879 10.236C9.75879 10.201 9.76982 10.1704 9.79188 10.1442C9.84807 10.0772 9.92216 10.0395 10.0142 10.031ZM7.19022 10.1071L7.18797 10.119C7.18879 10.115 7.18954 10.1111 7.19022 10.1071ZM10.7528 10.1468C10.7358 10.147 10.7188 10.1492 10.7023 10.1532C10.6433 10.1676 10.5833 10.1767 10.5223 10.1805C10.4732 10.1914 10.4609 10.2147 10.4852 10.2506C10.4873 10.2537 10.4902 10.2562 10.4937 10.2579C10.4972 10.2597 10.5012 10.2606 10.5053 10.2605C10.5958 10.2609 10.685 10.2509 10.7732 10.2306C10.814 10.236 10.8479 10.224 10.875 10.1946C10.8927 10.1754 10.8884 10.1639 10.8623 10.1601L10.7817 10.1486C10.7721 10.1472 10.7625 10.1467 10.7528 10.1468ZM10.4364 10.4431C10.4367 10.4431 10.437 10.4432 10.4374 10.4433C10.4368 10.4434 10.4362 10.4435 10.4357 10.4436C10.4359 10.4434 10.4362 10.4433 10.4364 10.4431ZM13.8694 10.6613C13.8522 10.734 13.8348 10.8058 13.816 10.8717H13.8158C13.8346 10.8058 13.8522 10.734 13.8694 10.6613ZM9.71501 10.6871C9.72401 10.6869 9.73482 10.6912 9.74744 10.7001C9.74897 10.7012 9.75026 10.7025 9.75122 10.7041C9.75219 10.7057 9.75281 10.7074 9.75305 10.7093C9.75329 10.7111 9.75314 10.713 9.75261 10.7147C9.75208 10.7165 9.75118 10.7181 9.74998 10.7195C9.72404 10.7514 9.70488 10.7533 9.69251 10.7252C9.69081 10.7213 9.69 10.7172 9.69013 10.7131C9.69026 10.709 9.69133 10.7051 9.69326 10.7017C9.69876 10.6922 9.70601 10.6874 9.71501 10.6871ZM12.5091 10.8342C12.4806 10.8678 12.4515 10.9002 12.4219 10.9312H12.4217C12.4514 10.9002 12.4806 10.8678 12.5091 10.8342ZM6.10122 10.9518L6.10366 10.9519C6.10282 10.9518 6.10207 10.952 6.10122 10.9519L6.09485 10.9521L6.10122 10.9518ZM12.2835 11.0663C12.1953 11.1477 12.1004 11.2215 11.9999 11.2871C11.9474 11.3215 11.8913 11.3555 11.8313 11.3893V11.3891C11.8886 11.3571 11.9448 11.3231 11.9998 11.2872C12.1003 11.2216 12.1953 11.1477 12.2835 11.0663ZM13.6964 11.2517C13.7003 11.2673 13.7104 11.2806 13.7267 11.2916V11.2918C13.7119 11.2827 13.7011 11.2684 13.6964 11.2517ZM13.6487 11.3449H13.6489C13.6401 11.356 13.6333 11.3691 13.6285 11.384C13.6237 11.399 13.6209 11.4159 13.6201 11.4346C13.6201 11.435 13.6195 11.4358 13.6195 11.4362L13.6199 11.4346C13.6208 11.4158 13.6237 11.399 13.6285 11.384C13.6333 11.3691 13.64 11.356 13.6487 11.3449ZM8.29957 11.3975C8.35256 11.4221 8.40242 11.453 8.44807 11.4894V11.4897C8.40248 11.4531 8.35262 11.4221 8.29957 11.3975ZM12.1234 11.5866C12.058 11.6382 11.9886 11.6844 11.9159 11.7248V11.7246C11.9858 11.6862 12.0549 11.6401 12.1234 11.5866ZM8.28298 11.4167C8.2971 11.4174 8.29522 11.432 8.27735 11.4605C8.18579 11.6052 8.1356 11.6948 8.12679 11.7293C8.11244 11.7894 8.0776 11.8426 8.02826 11.8797C8.01845 11.8879 8.00624 11.8927 7.99347 11.8934C7.96554 11.8946 7.96035 11.878 7.97791 11.8438C8.00791 11.8107 8.02919 11.7728 8.04176 11.7301C8.07026 11.6345 8.10647 11.5417 8.15041 11.4519C8.15666 11.4234 8.17613 11.4134 8.20882 11.4221C8.22669 11.427 8.24569 11.4265 8.26338 11.4206C8.26962 11.4181 8.27626 11.4168 8.28298 11.4167ZM13.5994 11.5003C13.5859 11.5303 13.566 11.5671 13.5388 11.6119C13.5367 11.6154 13.5355 11.6193 13.5355 11.6231C13.5355 11.6269 13.5367 11.6305 13.5388 11.6334C13.5524 11.6515 13.5718 11.6559 13.5972 11.6465C13.5718 11.6559 13.5522 11.6516 13.5386 11.6336C13.5365 11.6307 13.5353 11.6271 13.5353 11.6233C13.5353 11.6194 13.5365 11.6155 13.5386 11.612C13.5657 11.5674 13.5859 11.5302 13.5994 11.5003ZM7.20363 11.6098C7.22726 11.6114 7.23038 11.6203 7.21301 11.6365C7.16599 11.6803 7.13317 11.7372 7.11879 11.7998C7.1161 11.8111 7.10391 11.8244 7.08222 11.8399C7.07561 11.8445 7.07101 11.8513 7.06938 11.859C7.05338 11.9325 7.0165 11.9999 6.96316 12.053C6.96031 12.0558 6.95681 12.0578 6.95307 12.0587C6.94933 12.0597 6.94551 12.0595 6.94207 12.0582C6.91094 12.0468 6.90191 12.0224 6.91497 11.985C6.92754 11.9485 6.94854 11.9263 6.97797 11.9183C6.97948 11.9179 6.98089 11.9171 6.98208 11.9161C6.98327 11.9151 6.98421 11.9139 6.98483 11.9126C6.98545 11.9113 6.98573 11.9099 6.98565 11.9085C6.98556 11.9071 6.98512 11.9058 6.98435 11.9046L6.97469 11.8894C6.97226 11.8858 6.97052 11.8819 6.9696 11.8782C6.96867 11.8744 6.96859 11.8708 6.96935 11.8676C6.98047 11.819 6.99841 11.7729 7.02316 11.7293C7.05397 11.6432 7.11419 11.6034 7.20363 11.6098ZM10.3795 11.7184C10.4272 11.7259 10.4749 11.7332 10.5227 11.7404C10.5315 11.7418 10.5596 11.7423 10.6068 11.742C10.5596 11.7424 10.5315 11.7419 10.5227 11.7406C10.4749 11.7333 10.4272 11.7259 10.3795 11.7184ZM13.4562 11.7627C13.4471 11.7841 13.441 11.8066 13.4383 11.8297L13.4379 11.8305L13.4381 11.8297C13.4414 11.8045 13.4474 11.7822 13.4562 11.7627ZM3.65088 11.946L3.6971 11.99V11.9903L3.65097 11.9462C3.65097 11.9461 3.65088 11.946 3.65088 11.946ZM5.79935 11.9506C5.81591 11.9515 5.81885 11.9619 5.80816 11.9817C5.77935 12.0203 5.75356 12.061 5.73101 12.1036C5.70924 12.1459 5.6835 12.186 5.65413 12.2234C5.60145 12.2882 5.5514 12.3551 5.50413 12.4239C5.49207 12.4351 5.48335 12.4354 5.47797 12.4249C5.47652 12.4219 5.47592 12.4182 5.47621 12.4141C5.47651 12.41 5.47769 12.4057 5.47966 12.4015C5.54904 12.2508 5.64804 12.1036 5.77666 11.9599C5.77946 11.9568 5.78295 11.9543 5.78688 11.9527C5.7908 11.9511 5.79506 11.9504 5.79935 11.9506ZM11.202 11.9896C11.0421 12.024 10.8799 12.0464 10.7166 12.0566L10.753 12.0735C10.7568 12.0753 10.76 12.0776 10.7622 12.0803C10.7644 12.083 10.7655 12.0858 10.7655 12.0885C10.7649 12.1214 10.7533 12.1569 10.7307 12.195C10.7095 12.2309 10.6941 12.2827 10.6844 12.3502H10.6842L10.6615 12.4365C10.6605 12.4402 10.6585 12.4436 10.6558 12.4461C10.6532 12.4487 10.65 12.4504 10.6465 12.451L10.5613 12.4656C10.5573 12.4663 10.5534 12.4659 10.5498 12.4646C10.5463 12.4633 10.5433 12.461 10.5413 12.4581C10.5226 12.431 10.52 12.4013 10.5336 12.3691H10.5338C10.5379 12.3611 10.5441 12.3543 10.5517 12.3496C10.5593 12.3448 10.5681 12.3422 10.577 12.342C10.5783 12.342 10.5796 12.3416 10.5807 12.341C10.5818 12.3403 10.5827 12.3394 10.5833 12.3383C10.584 12.3372 10.5843 12.336 10.5844 12.3347C10.5844 12.3334 10.5841 12.3321 10.5835 12.331C10.5712 12.3046 10.5753 12.2749 10.5959 12.242C10.6241 12.1968 10.6443 12.1469 10.6554 12.0947C10.6594 12.0832 10.6668 12.0732 10.6766 12.0661C10.6865 12.0589 10.6982 12.0549 10.7104 12.0545L10.7166 12.0566C10.8799 12.0465 11.0421 12.0241 11.202 11.9896ZM12.0337 12.0618C12.039 12.0615 12.0466 12.0648 12.0563 12.0716C12.0642 12.0771 12.0722 12.0799 12.0788 12.0797L12.1257 12.0776C12.1273 12.0775 12.1288 12.0778 12.1303 12.0783C12.1317 12.0788 12.133 12.0797 12.1341 12.0807C12.1351 12.0818 12.1359 12.083 12.1364 12.0844C12.1368 12.0857 12.137 12.0872 12.1368 12.0886C12.1298 12.1264 12.1073 12.1532 12.0694 12.169C12.067 12.17 12.0644 12.1705 12.0618 12.1705C12.0592 12.1705 12.0566 12.1699 12.0543 12.1689C12.0519 12.1678 12.0498 12.1663 12.048 12.1644C12.0462 12.1625 12.0449 12.1602 12.044 12.1578C12.0209 12.0944 12.0175 12.0625 12.0337 12.0618ZM9.32313 12.1417L9.32923 12.1446L9.33119 12.1461L9.32923 12.1448L9.32313 12.1417ZM12.0046 12.1629C12.0064 12.1615 12.0091 12.1616 12.0124 12.1631C12.0148 12.164 12.0167 12.166 12.0182 12.1688C12.0196 12.1716 12.0203 12.175 12.0203 12.1787C12.0203 12.2133 12.0444 12.2274 12.0926 12.221C12.0952 12.2207 12.0978 12.221 12.1002 12.2218C12.1027 12.2227 12.1049 12.224 12.1067 12.2258C12.1086 12.2277 12.1099 12.2299 12.1107 12.2323C12.1116 12.2347 12.1118 12.2373 12.1114 12.2398C12.096 12.3426 12.0728 12.444 12.0421 12.5433C12.028 12.5888 12.0041 12.5855 11.9704 12.5334C11.9593 12.5162 11.9554 12.4953 11.9597 12.4753C11.9645 12.4522 11.9703 12.4188 11.9771 12.3752C11.9677 12.3115 11.9748 12.2465 11.9977 12.1864C11.9994 12.1816 12.0004 12.1766 12.0009 12.1715C12.0014 12.1672 12.0026 12.1644 12.0046 12.1629ZM9.48616 12.2199L9.49198 12.2219C9.4901 12.2211 9.48804 12.2208 9.48616 12.2199ZM10.2785 12.3281C10.2964 12.3293 10.3029 12.33 10.3217 12.3312L10.3304 12.3331C10.3275 12.3324 10.3244 12.3321 10.3215 12.3314C10.2949 12.3295 10.3032 12.3298 10.2785 12.3281ZM10.4456 12.3538L10.4533 12.3548V12.355L10.4456 12.3538ZM13.1035 12.3832C13.0958 12.396 13.0866 12.4078 13.076 12.4184C13.0565 12.4375 13.0397 12.4592 13.0259 12.4828H13.0257C13.0368 12.4628 13.0535 12.4413 13.0759 12.4184C13.0864 12.4078 13.0957 12.396 13.1035 12.3832ZM8.65723 12.4272C8.67629 12.4249 8.69819 12.4278 8.72294 12.4359C8.72446 12.4364 8.72585 12.4372 8.72702 12.4383C8.72819 12.4394 8.72911 12.4408 8.72972 12.4422C8.73032 12.4437 8.7306 12.4453 8.73053 12.4469C8.73046 12.4485 8.73005 12.4501 8.72932 12.4515C8.68322 12.5381 8.64154 12.6271 8.60444 12.7179C8.55463 12.8401 8.48213 12.9399 8.38694 13.0172C8.36019 13.0387 8.35007 13.0326 8.35657 12.9988C8.36607 12.9489 8.38747 12.9174 8.42079 12.9043C8.42235 12.9037 8.42378 12.9028 8.425 12.9016C8.42621 12.9005 8.42718 12.8991 8.42786 12.8976C8.42853 12.8962 8.42889 12.8946 8.42892 12.893C8.42894 12.8914 8.42863 12.8898 8.42801 12.8884L8.41394 12.8509C8.4109 12.8433 8.4109 12.835 8.41394 12.8278C8.46712 12.7002 8.53246 12.5779 8.60904 12.4628C8.62341 12.4411 8.63948 12.4293 8.65723 12.4272ZM9.65585 12.5312C9.67379 12.5278 9.67854 12.5406 9.6701 12.5696C9.6545 12.623 9.63594 12.6756 9.61451 12.7269C9.60932 12.7393 9.59526 12.7785 9.57232 12.8447C9.5585 12.8845 9.53993 12.9226 9.51701 12.958C9.49032 12.9996 9.47166 13.026 9.46104 13.0372C9.43701 13.0618 9.40641 13.0788 9.37291 13.0864C9.34341 13.0935 9.33616 13.0839 9.35116 13.0576C9.35641 13.0488 9.36638 13.0402 9.38107 13.0318C9.38452 13.0298 9.38747 13.0271 9.38971 13.024C9.39195 13.0209 9.39342 13.0173 9.39401 13.0136C9.40911 12.9324 9.43922 12.8546 9.48279 12.7844C9.49635 12.7365 9.51626 12.6916 9.54251 12.6497C9.55788 12.6002 9.58819 12.5635 9.63344 12.5398C9.64054 12.536 9.64801 12.5331 9.65585 12.5312ZM11.5046 12.6048C11.4303 12.6528 11.354 12.6976 11.2759 12.739C11.2669 12.7793 11.2553 12.8189 11.2412 12.8576C11.2281 12.8933 11.2184 12.9327 11.2121 12.9759C11.1985 13.0681 11.1655 13.1564 11.1152 13.2349C11.0885 13.2769 11.0668 13.2745 11.0502 13.2277C11.0325 13.1779 11.0374 13.1161 11.065 13.0424C11.0828 12.9944 11.098 12.9456 11.1107 12.8959V12.8958C11.1334 12.8302 11.1463 12.7863 11.1493 12.764C11.1573 12.7056 11.1985 12.6703 11.273 12.6581C11.276 12.6576 11.2791 12.658 11.282 12.6591C11.2848 12.6602 11.2873 12.6621 11.2893 12.6646C11.2913 12.667 11.2926 12.67 11.2932 12.6731C11.2939 12.6763 11.2937 12.6796 11.2928 12.6828L11.2759 12.739C11.3541 12.6975 11.4302 12.6528 11.5046 12.6048ZM4.13472 12.6238C4.15024 12.6216 4.16603 12.6224 4.18122 12.6262C4.22354 12.6366 4.24594 12.642 4.24844 12.6424V12.6425C4.22597 12.6374 4.20356 12.6321 4.18122 12.6264C4.166 12.6228 4.15026 12.6219 4.13472 12.6238ZM4.36066 12.6862C4.38082 12.6965 4.40247 12.7082 4.41597 12.7121V12.7123C4.40238 12.7084 4.38091 12.6966 4.36066 12.6862ZM7.38279 12.7434C7.38765 12.7435 7.39242 12.7447 7.39672 12.747C7.40101 12.7493 7.40471 12.7525 7.40752 12.7565C7.41032 12.7605 7.41215 12.7651 7.41285 12.7699C7.41356 12.7747 7.41312 12.7796 7.41157 12.7842C7.39668 12.8292 7.37196 12.8703 7.33919 12.9045C7.2924 12.9531 7.25491 13.0099 7.22857 13.0721C7.22582 13.0786 7.22546 13.0869 7.22754 13.0958C7.23591 13.1305 7.21594 13.1603 7.16763 13.1853C7.13657 13.2014 7.11838 13.1922 7.11307 13.1574C7.10876 13.1293 7.11744 13.0909 7.13913 13.0422C7.20076 12.9023 7.24357 12.82 7.26757 12.7954C7.30238 12.7597 7.34072 12.7424 7.38279 12.7434ZM11.0181 12.8809C11.0076 12.8831 10.9975 12.8866 10.9878 12.8912V12.891C10.9979 12.8864 11.008 12.883 11.0181 12.8809ZM4.95869 12.8977C4.98401 12.9095 5.00941 12.9207 5.03369 12.9348V12.9349C5.00932 12.9209 4.98401 12.9095 4.95869 12.8977ZM10.3211 13.0883C10.3687 13.0886 10.3772 13.1181 10.3465 13.177H10.3467C10.3133 13.2398 10.2755 13.3002 10.2335 13.3577C10.2157 13.382 10.1952 13.4188 10.1719 13.4679C10.1474 13.52 10.1119 13.5661 10.0677 13.6029C10.0649 13.6053 10.0615 13.6066 10.0579 13.6066C10.0544 13.6066 10.051 13.6054 10.0485 13.6031C10.029 13.5857 10.0238 13.5635 10.0331 13.5364L10.2277 13.1267C10.2311 13.1195 10.2357 13.1132 10.2413 13.1082C10.247 13.1032 10.2534 13.0997 10.2603 13.0979C10.2801 13.0921 10.3005 13.0889 10.3211 13.0883ZM6.17416 13.1698C6.19641 13.1664 6.20063 13.1824 6.18682 13.2178C6.15293 13.3072 6.10323 13.3898 6.0401 13.4615C6.03191 13.4709 6.02129 13.4955 6.00822 13.5353C5.9986 13.5541 5.97791 13.5839 5.94616 13.6247C5.89404 13.6915 5.87085 13.6785 5.8766 13.5855C5.9381 13.4757 5.97697 13.3979 5.99322 13.352C6.02116 13.2729 6.07201 13.2155 6.14576 13.1799C6.15473 13.1753 6.16429 13.1718 6.17416 13.1698ZM12.3354 13.266C12.3346 13.2688 12.3348 13.2717 12.3358 13.2744C12.3369 13.2771 12.3388 13.2794 12.3412 13.281C12.336 13.2772 12.334 13.2722 12.3354 13.266ZM5.56591 13.3509C5.60654 13.3695 5.63479 13.3838 5.65066 13.3938C5.67241 13.4077 5.69266 13.4183 5.71329 13.4299C5.69266 13.4183 5.67241 13.4078 5.65066 13.394C5.62324 13.378 5.59495 13.3637 5.56591 13.3509ZM4.94219 13.3603C5.06088 13.4369 5.18307 13.5112 5.30876 13.5834C5.18465 13.5122 5.06243 13.4378 4.94219 13.3603ZM12.3109 13.372C12.3109 13.372 12.311 13.372 12.3109 13.372ZM12.1039 13.4518H12.1041C12.0706 13.484 12.0369 13.5204 12.0029 13.5609C11.9956 13.57 11.9895 13.5798 11.9848 13.5903H11.9846C11.9895 13.5798 11.9956 13.5699 12.0029 13.5609C12.0368 13.5204 12.0704 13.484 12.1039 13.4518ZM6.08885 13.5494C6.10285 13.5545 6.11735 13.558 6.13235 13.5599C6.17391 13.5648 6.20235 13.5704 6.21766 13.5765C6.20235 13.5703 6.17391 13.5648 6.13235 13.5601C6.11747 13.5583 6.10287 13.5547 6.08885 13.5494ZM9.89041 13.5557C9.83916 13.5925 9.78901 13.6135 9.73994 13.6185C9.78888 13.6134 9.83904 13.5924 9.89041 13.5557ZM8.2601 13.5874C8.29366 13.5898 8.29988 13.6085 8.27876 13.6436C8.26813 13.6616 8.26173 13.6882 8.25954 13.7233V13.7236C8.25304 13.7514 8.23694 13.7761 8.21407 13.7933C8.20734 13.7979 8.20191 13.8041 8.19832 13.8114C8.15265 13.9074 8.09085 13.9948 8.0156 14.0698C8.01466 14.0708 8.00735 14.0802 7.99366 14.0979C7.98141 14.1137 7.96616 14.1171 7.94791 14.1082C7.94321 14.1059 7.93907 14.1025 7.93577 14.0984C7.93247 14.0943 7.9301 14.0895 7.92879 14.0843C7.92749 14.0792 7.92729 14.0738 7.92821 14.0685C7.92913 14.0632 7.93115 14.0581 7.93413 14.0537L8.12782 13.7674C8.14744 13.7456 8.16163 13.7205 8.17038 13.6921C8.18294 13.6523 8.20519 13.6199 8.23713 13.5949C8.24396 13.5895 8.25214 13.5868 8.2601 13.5874ZM7.16107 13.6298C7.16845 13.6293 7.17663 13.6314 7.18451 13.6358C7.19719 13.6428 7.21032 13.648 7.22388 13.6514C7.21007 13.648 7.19676 13.6429 7.18432 13.636C7.17651 13.6316 7.1684 13.6295 7.16107 13.63V13.6298ZM7.26616 13.6561C7.3541 13.6725 7.44241 13.6866 7.5311 13.6983C7.61399 13.6916 7.69741 13.6973 7.7786 13.7153C7.80197 13.7203 7.82832 13.7219 7.85763 13.7199V13.7201C7.83123 13.7223 7.80465 13.7207 7.77869 13.7154C7.6975 13.6975 7.61407 13.6918 7.53119 13.6985C7.44248 13.6868 7.3541 13.6727 7.26616 13.6561ZM6.56726 13.6723C6.56876 13.6725 6.57022 13.6729 6.57166 13.6732V13.6734L6.56726 13.6723ZM10.5738 13.7107C10.6049 13.711 10.6068 13.7413 10.5794 13.8016C10.5779 13.8047 10.5757 13.8076 10.5726 13.8101C10.5696 13.8127 10.566 13.8149 10.5619 13.8166C10.5396 13.8258 10.5325 13.8429 10.5405 13.868C10.5514 13.9025 10.543 13.9299 10.5154 13.9503C10.5125 13.9524 10.5103 13.9554 10.5092 13.9587C10.5081 13.9621 10.5081 13.9656 10.5092 13.9689C10.5262 14.0231 10.5118 14.0705 10.4658 14.1111C10.4367 14.1352 10.4029 14.1526 10.3665 14.1624C10.3705 14.0843 10.3894 14.0077 10.422 13.9367C10.4304 13.8739 10.4506 13.8159 10.4827 13.7629C10.4951 13.7428 10.5118 13.7287 10.5328 13.7205C10.5497 13.7139 10.5633 13.7107 10.5738 13.7107ZM9.13516 13.7305C9.15173 13.7286 9.16885 13.7308 9.18654 13.7371C9.18604 13.7476 9.1761 13.7686 9.15672 13.8003C9.09267 13.905 9.02682 14.0086 8.95919 14.111C8.94419 14.1334 8.93229 14.132 8.92347 14.1068C8.91054 14.0709 8.9151 14.0356 8.93716 14.0009C8.97629 13.9103 9.02629 13.8262 9.08716 13.7487H9.08735C9.10266 13.7384 9.1186 13.7324 9.13516 13.7305ZM9.2186 13.748C9.21173 13.7569 9.20563 13.7605 9.20032 13.7587C9.20557 13.7606 9.21166 13.757 9.2186 13.748ZM7.10885 13.7677C7.12797 13.7612 7.1391 13.7694 7.14222 13.7924C7.1486 13.8386 7.1361 13.8801 7.10472 13.9169C7.07491 13.9516 7.05597 13.9779 7.04791 13.9956C7.02541 14.0455 7.00369 14.0957 6.98276 14.1462C6.97269 14.1703 6.96097 14.1851 6.9476 14.1906C6.92979 14.1981 6.90866 14.1969 6.88422 14.1869C6.88126 14.1857 6.87855 14.1839 6.87627 14.1817C6.87399 14.1794 6.87218 14.1767 6.87093 14.1738C6.86969 14.1708 6.86904 14.1677 6.86902 14.1645C6.869 14.1612 6.86961 14.1581 6.87082 14.1551C6.92383 14.0236 6.99523 13.9002 7.08288 13.7887C7.08944 13.7794 7.09842 13.7722 7.10885 13.7677ZM11.5671 13.8347H11.5673C11.5519 13.8513 11.538 13.8693 11.5259 13.8884C11.5258 13.8884 11.5258 13.8884 11.5257 13.8884C11.5379 13.8693 11.5517 13.8513 11.5671 13.8347ZM11.2197 14.0248C11.2198 14.0248 11.2199 14.0248 11.22 14.0248H11.2197ZM5.96829 14.0654C5.97173 14.0696 5.97588 14.0733 5.98057 14.0761V14.0763C5.9759 14.0734 5.97168 14.0697 5.96829 14.0654ZM8.07879 14.7522C8.04485 14.7529 8.01104 14.7566 7.97772 14.7631L7.97754 14.7629C8.01129 14.7564 8.04504 14.7528 8.07879 14.7522Z" fill="#D4D4D8"/>
</g>
</g>
<defs>
<clipPath id="clip0_878_637">
<rect width="18" height="18" fill="white"/>
</clipPath>
<clipPath id="clip1_878_637">
<rect width="12" height="12" fill="white" transform="translate(3 3)"/>
</clipPath>
</defs>
</svg>
