<svg width="21" height="27" viewBox="0 0 21 27" fill="none" xmlns="http://www.w3.org/2000/svg">
<path d="M1.03907 13.9007L3.26102 14.8884C3.4746 14.9833 3.70504 15.0345 3.93873 15.0389C4.17242 15.0433 4.40463 15.0009 4.62164 14.9141L5.32055 14.6341C5.56483 14.5363 5.78394 14.3848 5.96156 14.1907C6.13919 13.9966 6.27076 13.7649 6.34649 13.513L6.85071 11.8368C6.89659 11.6531 6.98169 11.4815 7.10016 11.3337C7.21863 11.186 7.36767 11.0656 7.53704 10.9809L8.74672 10.375V13.1274C8.74682 13.615 8.61113 14.0929 8.35488 14.5077C8.09862 14.9224 7.73192 15.2576 7.29586 15.4757L4.16664 17.0425C3.44022 17.4061 2.82938 17.9648 2.40256 18.656C1.97573 19.3472 1.74978 20.1436 1.75 20.9559V21.75H19.2423V11.25C19.2423 5.45312 14.5436 0.75 8.74672 0.75H0.656254C0.482206 0.75 0.315286 0.81914 0.192215 0.942211C0.0691444 1.06528 3.94664e-06 1.2322 3.94664e-06 1.40625C-8.50919e-05 1.55016 0.0334352 1.69211 0.0978946 1.82078L0.875004 3.375L0.382816 3.86719C0.261038 3.98939 0.164547 4.1344 0.09886 4.29392C0.0331734 4.45345 -0.000419108 4.62436 3.94664e-06 4.79688V12.3005C-0.000203633 12.6392 0.0978567 12.9706 0.282292 13.2547C0.466727 13.5387 0.729613 13.7631 1.03907 13.9007ZM2.84375 6C3.06008 6 3.27154 6.06415 3.45141 6.18433C3.63128 6.30451 3.77146 6.47533 3.85425 6.67519C3.93703 6.87505 3.95869 7.09496 3.91649 7.30713C3.87429 7.5193 3.77012 7.71418 3.61715 7.86715C3.46419 8.02011 3.2693 8.12428 3.05713 8.16648C2.84497 8.20869 2.62505 8.18703 2.42519 8.10424C2.22534 8.02146 2.05452 7.88127 1.93433 7.7014C1.81415 7.52154 1.75 7.31007 1.75 7.09375C1.75 6.80367 1.86524 6.52547 2.07036 6.32035C2.27547 6.11523 2.55367 6 2.84375 6ZM20.125 23.5H0.875004C0.64294 23.5 0.42038 23.5922 0.256286 23.7563C0.0921912 23.9204 3.94664e-06 24.1429 3.94664e-06 24.375V26.125C3.94664e-06 26.3571 0.0921912 26.5796 0.256286 26.7437C0.42038 26.9078 0.64294 27 0.875004 27H20.125C20.3571 27 20.5796 26.9078 20.7437 26.7437C20.9078 26.5796 21 26.3571 21 26.125V24.375C21 24.1429 20.9078 23.9204 20.7437 23.7563C20.5796 23.5922 20.3571 23.5 20.125 23.5Z" fill="white"/>
</svg>
