<svg width="16" height="16" viewBox="0 0 16 16" fill="none" xmlns="http://www.w3.org/2000/svg">
<path d="M3.92675 0.6875H8.69825C9.15125 0.6875 9.52475 0.6875 9.82925 0.71225C10.145 0.7385 10.436 0.794 10.709 0.93275C11.1323 1.14846 11.4765 1.49265 11.6923 1.916C11.8318 2.189 11.8872 2.48 11.9127 2.79575C11.9375 3.10025 11.9375 3.47375 11.9375 3.92675V4.0625H12.2375C12.6147 4.0625 12.926 4.0625 13.1803 4.07975C13.4443 4.09775 13.6888 4.13675 13.9235 4.2335C14.1966 4.34657 14.4447 4.51234 14.6537 4.72133C14.8627 4.93032 15.0284 5.17843 15.1415 5.4515C15.239 5.68625 15.2765 5.93075 15.2952 6.194C15.3125 6.449 15.3125 6.76025 15.3125 7.13675V7.17575C15.3125 7.55225 15.3125 7.8635 15.2952 8.11775C15.2844 8.36107 15.2366 8.60132 15.1535 8.83025C14.7209 10.3046 13.9307 11.6492 12.853 12.7444C11.7753 13.8396 10.4437 14.6515 8.9765 15.1077L8.83475 15.152C8.60476 15.237 8.36277 15.2851 8.11775 15.2945C7.86275 15.3125 7.55225 15.3125 7.17575 15.3125H7.13675C6.76025 15.3125 6.449 15.3125 6.19475 15.2952C5.93075 15.2772 5.68625 15.2382 5.4515 15.1415C5.17843 15.0284 4.93032 14.8627 4.72133 14.6537C4.51234 14.4447 4.34657 14.1966 4.2335 13.9235C4.136 13.6888 4.0985 13.4443 4.07975 13.181C4.0625 12.926 4.0625 12.6147 4.0625 12.2382V11.9375H3.9275C3.4745 11.9375 3.10025 11.9375 2.79575 11.9127C2.48 11.8865 2.189 11.8318 1.916 11.6923C1.49265 11.4765 1.14846 11.1323 0.93275 10.709C0.794 10.436 0.73775 10.145 0.71225 9.82925C0.6875 9.52475 0.6875 9.15125 0.6875 8.69825V3.92675C0.6875 3.47375 0.6875 3.10025 0.71225 2.79575C0.7385 2.48 0.794 2.189 0.93275 1.916C1.14846 1.49265 1.49265 1.14846 1.916 0.93275C2.189 0.794 2.48 0.73775 2.79575 0.71225C3.10025 0.6875 3.47375 0.6875 3.92675 0.6875ZM5.1875 12.2188C5.1875 12.6192 5.1875 12.8923 5.2025 13.1038C5.216 13.3108 5.24225 13.418 5.273 13.493C5.32954 13.6295 5.41242 13.7536 5.51691 13.8581C5.62141 13.9626 5.74547 14.0455 5.882 14.102C5.957 14.1327 6.06425 14.159 6.27125 14.1725C6.48275 14.1875 6.75575 14.1875 7.15625 14.1875C7.55675 14.1875 7.82975 14.1875 8.04125 14.1725C8.24825 14.159 8.3555 14.1327 8.4305 14.102C8.56703 14.0455 8.69109 13.9626 8.79559 13.8581C8.90008 13.7536 8.98296 13.6295 9.0395 13.493C9.07025 13.418 9.09575 13.3108 9.11 13.1038C9.125 12.8923 9.125 12.6192 9.125 12.2188V12.1993C9.125 11.8228 9.125 11.5115 9.14225 11.2572C9.16025 10.9932 9.19925 10.7487 9.296 10.514C9.40907 10.2409 9.57484 9.99282 9.78383 9.78383C9.99282 9.57484 10.2409 9.40907 10.514 9.296C10.7487 9.1985 10.9932 9.161 11.2565 9.14225C11.5115 9.125 11.8228 9.125 12.1993 9.125H12.2188C12.6192 9.125 12.8923 9.125 13.1038 9.11C13.3108 9.09575 13.418 9.07025 13.493 9.0395C13.6295 8.98296 13.7536 8.90008 13.8581 8.79559C13.9626 8.69109 14.0455 8.56703 14.102 8.4305C14.1327 8.3555 14.159 8.24825 14.1725 8.04125C14.1875 7.82975 14.1875 7.55675 14.1875 7.15625C14.1875 6.75575 14.1875 6.48275 14.1725 6.27125C14.159 6.06425 14.1327 5.957 14.102 5.882C14.0455 5.74547 13.9626 5.62141 13.8581 5.51691C13.7536 5.41242 13.6295 5.32954 13.493 5.273C13.418 5.24225 13.3108 5.216 13.1038 5.2025C12.8923 5.1875 12.6192 5.1875 12.2188 5.1875H7.325C6.8435 5.1875 6.515 5.1875 6.26225 5.2085C6.0155 5.22875 5.8895 5.2655 5.80175 5.30975C5.58988 5.41764 5.41764 5.58988 5.30975 5.80175C5.26475 5.8895 5.22875 6.0155 5.2085 6.26225C5.18825 6.51575 5.1875 6.8435 5.1875 7.325V12.2188Z" fill="black"/>
</svg>
