<svg width="15" height="15" viewBox="0 0 15 15" fill="none" xmlns="http://www.w3.org/2000/svg">
<path d="M3.23925 0H8.01075C8.46375 0 8.83725 -5.58794e-09 9.14175 0.02475C9.4575 0.051 9.7485 0.1065 10.0215 0.24525C10.4448 0.460962 10.789 0.805154 11.0048 1.2285C11.1443 1.5015 11.1997 1.7925 11.2252 2.10825C11.25 2.41275 11.25 2.78625 11.25 3.23925V3.375H11.55C11.9272 3.375 12.2385 3.375 12.4928 3.39225C12.7568 3.41025 13.0013 3.44925 13.236 3.546C13.5091 3.65907 13.7572 3.82484 13.9662 4.03383C14.1752 4.24282 14.3409 4.49093 14.454 4.764C14.5515 4.99875 14.589 5.24325 14.6077 5.5065C14.625 5.7615 14.625 6.07275 14.625 6.44925V6.48825C14.625 6.86475 14.625 7.176 14.6077 7.43025C14.5969 7.67357 14.5491 7.91382 14.466 8.14275C14.0334 9.61711 13.2432 10.9617 12.1655 12.0569C11.0878 13.1521 9.75619 13.964 8.289 14.4202L8.14725 14.4645C7.91726 14.5495 7.67527 14.5976 7.43025 14.607C7.17525 14.625 6.86475 14.625 6.48825 14.625H6.44925C6.07275 14.625 5.7615 14.625 5.50725 14.6077C5.24325 14.5897 4.99875 14.5507 4.764 14.454C4.49093 14.3409 4.24282 14.1752 4.03383 13.9662C3.82484 13.7572 3.65907 13.5091 3.546 13.236C3.4485 13.0013 3.411 12.7568 3.39225 12.4935C3.375 12.2385 3.375 11.9272 3.375 11.5507V11.25H3.24C2.787 11.25 2.41275 11.25 2.10825 11.2252C1.7925 11.199 1.5015 11.1443 1.2285 11.0048C0.805154 10.789 0.460962 10.4448 0.24525 10.0215C0.1065 9.7485 0.05025 9.4575 0.02475 9.14175C-5.58794e-09 8.83725 0 8.46375 0 8.01075V3.23925C0 2.78625 -5.58794e-09 2.41275 0.02475 2.10825C0.051 1.7925 0.1065 1.5015 0.24525 1.2285C0.460962 0.805154 0.805154 0.460962 1.2285 0.24525C1.5015 0.1065 1.7925 0.05025 2.10825 0.02475C2.41275 -5.58794e-09 2.78625 0 3.23925 0ZM4.5 11.5312C4.5 11.9317 4.5 12.2048 4.515 12.4163C4.5285 12.6233 4.55475 12.7305 4.5855 12.8055C4.64204 12.942 4.72492 13.0661 4.82941 13.1706C4.93391 13.2751 5.05797 13.358 5.1945 13.4145C5.2695 13.4452 5.37675 13.4715 5.58375 13.485C5.79525 13.5 6.06825 13.5 6.46875 13.5C6.86925 13.5 7.14225 13.5 7.35375 13.485C7.56075 13.4715 7.668 13.4452 7.743 13.4145C7.87953 13.358 8.00359 13.2751 8.10809 13.1706C8.21258 13.0661 8.29546 12.942 8.352 12.8055C8.38275 12.7305 8.40825 12.6233 8.4225 12.4163C8.4375 12.2048 8.4375 11.9317 8.4375 11.5312V11.5118C8.4375 11.1353 8.4375 10.824 8.45475 10.5697C8.47275 10.3057 8.51175 10.0612 8.6085 9.8265C8.72157 9.55343 8.88734 9.30532 9.09633 9.09633C9.30532 8.88734 9.55343 8.72157 9.8265 8.6085C10.0612 8.511 10.3057 8.4735 10.569 8.45475C10.824 8.4375 11.1353 8.4375 11.5118 8.4375H11.5312C11.9317 8.4375 12.2048 8.4375 12.4163 8.4225C12.6233 8.40825 12.7305 8.38275 12.8055 8.352C12.942 8.29546 13.0661 8.21258 13.1706 8.10809C13.2751 8.00359 13.358 7.87953 13.4145 7.743C13.4452 7.668 13.4715 7.56075 13.485 7.35375C13.5 7.14225 13.5 6.86925 13.5 6.46875C13.5 6.06825 13.5 5.79525 13.485 5.58375C13.4715 5.37675 13.4452 5.2695 13.4145 5.1945C13.358 5.05797 13.2751 4.93391 13.1706 4.82941C13.0661 4.72492 12.942 4.64204 12.8055 4.5855C12.7305 4.55475 12.6233 4.5285 12.4163 4.515C12.2048 4.5 11.9317 4.5 11.5312 4.5H6.6375C6.156 4.5 5.8275 4.5 5.57475 4.521C5.328 4.54125 5.202 4.578 5.11425 4.62225C4.90238 4.73014 4.73014 4.90238 4.62225 5.11425C4.57725 5.202 4.54125 5.328 4.521 5.57475C4.50075 5.82825 4.5 6.156 4.5 6.6375V11.5312Z" fill="#F3F5F5"/>
</svg>
