<svg width="20" height="20" viewBox="0 0 20 20" fill="none" xmlns="http://www.w3.org/2000/svg">
<path d="M1.84375 19.1H9.71875C9.81986 19.1 9.91684 19.0598 9.98833 18.9883C10.0598 18.9168 10.1 18.8199 10.1 18.7188C10.1 18.6176 10.0598 18.5207 9.98833 18.4492C9.91684 18.3777 9.81986 18.3375 9.71875 18.3375H1.84375C1.79568 18.3375 1.74958 18.3184 1.71559 18.2844C1.6816 18.2504 1.6625 18.2043 1.6625 18.1562V1.84375C1.6625 1.79568 1.6816 1.74958 1.71559 1.71559C1.74958 1.6816 1.79568 1.6625 1.84375 1.6625H13.6562C13.7043 1.6625 13.7504 1.6816 13.7844 1.71559C13.8184 1.74958 13.8375 1.79568 13.8375 1.84375V4.65625C13.8375 4.75736 13.8777 4.85434 13.9492 4.92583C14.0207 4.99733 14.1176 5.0375 14.2188 5.0375C14.3199 5.0375 14.4168 4.99733 14.4883 4.92583C14.5598 4.85434 14.6 4.75736 14.6 4.65625V1.84375C14.6 1.32333 14.1767 0.9 13.6562 0.9H1.84375C1.32333 0.9 0.9 1.32333 0.9 1.84375V18.1562C0.9 18.6767 1.32333 19.1 1.84375 19.1Z" fill="white" stroke="white" stroke-width="0.2"/>
<path d="M11.025 6.90625V18.1562C11.025 18.6767 11.4483 19.1 11.9688 19.1H18.1562C18.6767 19.1 19.1 18.6767 19.1 18.1562V6.90625C19.1 6.38583 18.6767 5.9625 18.1562 5.9625H11.9688C11.4483 5.9625 11.025 6.38583 11.025 6.90625ZM18.3375 6.90625V18.1562C18.3375 18.2043 18.3184 18.2504 18.2844 18.2844C18.2504 18.3184 18.2043 18.3375 18.1562 18.3375H11.9688C11.9207 18.3375 11.8746 18.3184 11.8406 18.2844C11.8066 18.2504 11.7875 18.2043 11.7875 18.1562V6.90625C11.7875 6.85818 11.8066 6.81208 11.8406 6.77809C11.8746 6.7441 11.9207 6.725 11.9688 6.725H18.1562C18.2043 6.725 18.2504 6.7441 18.2844 6.77809C18.3184 6.81208 18.3375 6.85818 18.3375 6.90625Z" fill="white" stroke="white" stroke-width="0.2"/>
<path d="M7.75 17.3625C8.08827 17.3625 8.3625 17.0883 8.3625 16.75C8.3625 16.4117 8.08827 16.1375 7.75 16.1375C7.41173 16.1375 7.1375 16.4117 7.1375 16.75C7.1375 17.0883 7.41173 17.3625 7.75 17.3625Z" fill="white" stroke="white" stroke-width="0.1"/>
<path d="M15.0625 17.3625C15.4008 17.3625 15.675 17.0883 15.675 16.75C15.675 16.4117 15.4008 16.1375 15.0625 16.1375C14.7242 16.1375 14.45 16.4117 14.45 16.75C14.45 17.0883 14.7242 17.3625 15.0625 17.3625Z" fill="white" stroke="white" stroke-width="0.1"/>
</svg>
