<svg width="32" height="32" viewBox="0 0 32 32" fill="none" xmlns="http://www.w3.org/2000/svg">
<rect x="2" y="2" width="28" height="28" rx="14" fill="#b70000"/>
<g clip-path="url(#clip0_525_53)">
<path d="M16.2956 26.9047C14.8416 26.9047 13.4694 26.6243 12.1789 26.0636C10.9066 25.4847 9.77974 24.6978 8.79827 23.703C7.81679 22.69 7.04434 21.5323 6.4809 20.2299C5.91746 18.9094 5.63574 17.5075 5.63574 16.0242C5.63574 14.559 5.90837 13.1752 6.45364 11.8728C6.9989 10.5524 7.75317 9.39464 8.71648 8.39977C9.69795 7.38679 10.8339 6.59992 12.1244 6.03917C13.4148 5.46032 14.8053 5.1709 16.2956 5.1709C17.5497 5.1709 18.7402 5.36987 19.8671 5.76783C20.994 6.16579 22.0482 6.77177 23.0296 7.58577C23.1932 7.71239 23.275 7.89327 23.275 8.12843C23.275 8.3455 23.2023 8.54448 23.0569 8.72537C22.9115 8.88817 22.7116 8.96957 22.4571 8.96957C22.3844 8.96957 22.3117 8.96051 22.239 8.94243C22.1663 8.90624 22.0936 8.87009 22.0209 8.8339C21.9482 8.77963 21.8664 8.71631 21.7755 8.64397C21.0485 7.99277 20.2215 7.52245 19.2946 7.23303C18.3676 6.94361 17.368 6.7989 16.2956 6.7989C15.0779 6.7989 13.9237 7.05214 12.8332 7.55863C11.7427 8.04703 10.7794 8.72537 9.94332 9.59363C9.10726 10.4438 8.45295 11.4206 7.98037 12.524C7.50781 13.6274 7.27153 14.7942 7.27153 16.0242C7.27153 17.2904 7.50781 18.4843 7.98037 19.6058C8.45295 20.7274 9.09816 21.7132 9.91606 22.5634C10.7521 23.4136 11.7154 24.0828 12.806 24.5712C13.8965 25.0416 15.0597 25.2767 16.2956 25.2767C17.368 25.2767 18.3676 25.1139 19.2946 24.7883C20.2397 24.4627 21.1212 23.9652 21.9391 23.296C22.0845 23.1694 22.2572 23.1241 22.4571 23.1603C22.6571 23.1965 22.8297 23.2869 22.9751 23.4316C23.1205 23.5764 23.1932 23.7663 23.1932 24.0014C23.1932 24.11 23.1841 24.2094 23.166 24.2999C23.1478 24.3904 23.0933 24.4808 23.0024 24.5712C22.1118 25.4576 21.0758 26.0726 19.8944 26.4163C18.7312 26.7419 17.5316 26.9047 16.2956 26.9047Z" fill="white"/>
<path d="M13.9186 20.274C14.0836 19.9531 14.2218 19.6667 14.3331 19.4146C13.4235 17.7951 12.8095 15.7116 12.491 13.1641C12.3951 13.1717 12.2972 13.1755 12.1974 13.1755H11.6678C11.8942 15.1082 12.4008 16.9873 13.1875 18.813C13.4024 19.3057 13.6461 19.7927 13.9186 20.274ZM17.8216 20.4057C17.9981 20.0505 18.1305 19.7794 18.2188 19.5922C17.4014 17.9995 16.8008 16.4946 16.417 15.0776C16.3364 15.4672 16.2193 15.9313 16.0658 16.4698C16.2807 17.2681 16.6223 18.1466 17.0905 19.1052C17.3016 19.533 17.5453 19.9665 17.8216 20.4057ZM18.8347 12.4479C19.2185 12.5167 19.6292 12.5511 20.0667 12.5511C20.5042 12.5511 20.934 12.5014 21.3561 12.4021H21.4252C21.5096 12.4021 21.5826 12.4326 21.6439 12.4938C21.7054 12.5511 21.736 12.6179 21.736 12.6943C21.736 12.7669 21.7111 12.8318 21.6612 12.8891C21.6152 12.9426 21.5288 12.9826 21.4022 13.0094C21.0491 13.0858 20.7076 13.1297 20.3775 13.1412C20.0743 15.3717 19.7443 17.0618 19.3874 18.2115C19.1686 18.9181 18.9441 19.5044 18.7139 19.9703C18.4836 20.4363 18.3205 20.7591 18.2246 20.9386C18.1286 21.1181 18.0576 21.2212 18.0115 21.2479C17.9693 21.2785 17.9041 21.2938 17.8158 21.2938C17.7314 21.2938 17.6585 21.2517 17.5971 21.1677C16.8641 20.1059 16.2462 18.8741 15.7435 17.4724C15.2637 18.8589 14.7457 20.0467 14.1892 21.036C14.1354 21.1467 14.051 21.2021 13.9359 21.2021C13.8207 21.2021 13.7325 21.1505 13.6711 21.0474C12.5965 19.3095 11.8175 17.2642 11.3339 14.9115C11.2111 14.3042 11.1171 13.7179 11.0518 13.1526C10.86 13.1373 10.7007 13.124 10.5741 13.1125C10.3438 13.0858 10.2286 12.9807 10.2286 12.7974C10.2402 12.7057 10.2747 12.6351 10.3323 12.5854C10.3899 12.532 10.457 12.5052 10.5338 12.5052H10.5568C10.9943 12.5511 11.5162 12.574 12.1226 12.574C12.7328 12.574 13.3833 12.5167 14.0741 12.4021H14.1201C14.2084 12.4021 14.2813 12.4326 14.3389 12.4938C14.3964 12.5511 14.4252 12.6179 14.4252 12.6943C14.4252 12.7707 14.4003 12.8375 14.3504 12.8948C14.3043 12.9521 14.2199 12.9903 14.0971 13.0094C13.6865 13.0629 13.3564 13.103 13.107 13.1297C13.272 14.6613 13.625 16.149 14.1662 17.5927C14.3043 17.9708 14.4616 18.3413 14.6382 18.7042C15.4748 16.7372 15.9469 14.9764 16.0543 13.4219C16.062 13.3455 16.0908 13.2825 16.1407 13.2328C16.1944 13.1794 16.2596 13.1507 16.3364 13.1469C16.5014 13.1392 16.607 13.2195 16.653 13.3875C16.9677 15.1139 17.5932 16.9396 18.5296 18.8646C19.0055 17.65 19.4181 15.746 19.7673 13.1526C19.4066 13.1373 19.0592 13.1011 18.7254 13.0438C18.6563 13.0323 18.5968 12.9998 18.5469 12.9464C18.5009 12.8891 18.4778 12.8184 18.4778 12.7344C18.4778 12.6466 18.5104 12.5778 18.5757 12.5281C18.6448 12.4747 18.7119 12.4479 18.7772 12.4479H18.8347Z" fill="white"/>
</g>
<defs>
<clipPath id="clip0_525_53">
<rect width="19" height="22" fill="white" transform="translate(5 5)"/>
</clipPath>
</defs>
</svg>
