<svg width="15" height="18" viewBox="0 0 15 18" fill="none" xmlns="http://www.w3.org/2000/svg">
<path d="M2.57143 18H13.5C13.6705 18 13.834 17.9323 13.9546 17.8117C14.0751 17.6912 14.1429 17.5276 14.1429 17.3571C14.1429 17.1866 14.0751 17.0231 13.9546 16.9026C13.834 16.782 13.6705 16.7143 13.5 16.7143H2.57143C2.23044 16.7143 1.90341 16.5788 1.66229 16.3377C1.42117 16.0966 1.28571 15.7696 1.28571 15.4286H13.0179C13.3162 15.4286 13.6024 15.31 13.8134 15.0991C14.0243 14.8881 14.1429 14.6019 14.1429 14.3036V2.57143C14.1429 1.88944 13.8719 1.23539 13.3897 0.753154C12.9075 0.270918 12.2534 0 11.5714 0H2.57143C1.88944 0 1.23539 0.270918 0.753154 0.753154C0.270917 1.23539 0 1.88944 0 2.57143V15.4286C0 16.1106 0.270917 16.7646 0.753154 17.2468C1.23539 17.7291 1.88944 18 2.57143 18ZM9 5.46429C9 5.97577 8.79681 6.46631 8.43513 6.82799C8.07346 7.18967 7.58292 7.39286 7.07143 7.39286C6.55994 7.39286 6.0694 7.18967 5.70772 6.82799C5.34605 6.46631 5.14286 5.97577 5.14286 5.46429C5.14286 4.9528 5.34605 4.46226 5.70772 4.10058C6.0694 3.7389 6.55994 3.53571 7.07143 3.53571C7.58292 3.53571 8.07346 3.7389 8.43513 4.10058C8.79681 4.46226 9 4.9528 9 5.46429ZM10.6071 9.80357C10.6071 11.0044 9.59721 12.2143 7.07143 12.2143C4.54564 12.2143 3.53571 11.0089 3.53571 9.80357V9.67179C3.53571 8.94536 4.12457 8.35714 4.851 8.35714H9.2925C10.0189 8.35714 10.6071 8.94536 10.6071 9.67179V9.80357Z" fill="#d4d4d8"/>
</svg>
