<svg width="18" height="18" viewBox="0 0 18 18" fill="none" xmlns="http://www.w3.org/2000/svg">
<path d="M0 16.83V6.66064C0 6.36113 0.0737142 6.07761 0.221143 5.81008C0.368571 5.54254 0.571714 5.3222 0.830571 5.14904L7.75414 0.377901C8.11671 0.125967 8.53071 0 8.99614 0C9.46157 0 9.87814 0.125967 10.2459 0.377901L17.1694 5.14787C17.4291 5.32103 17.6323 5.54176 17.7789 5.81008C17.9263 6.07761 18 6.36113 18 6.66064V16.83C18 17.1436 17.8719 17.417 17.6156 17.6502C17.3593 17.8834 17.0589 18 16.7143 18H12.3634C12.0686 18 11.8217 17.9095 11.6229 17.7286C11.424 17.5468 11.3246 17.3222 11.3246 17.0547V11.4751C11.3246 11.2075 11.2251 10.9833 11.0263 10.8023C10.8266 10.6206 10.5797 10.5297 10.2857 10.5297H7.71429C7.42029 10.5297 7.17386 10.6206 6.975 10.8023C6.77529 10.9833 6.67543 11.2075 6.67543 11.4751V17.0558C6.67543 17.3234 6.576 17.5476 6.37714 17.7286C6.17829 17.9095 5.93186 18 5.63786 18H1.28571C0.941143 18 0.640714 17.8834 0.384428 17.6502C0.128143 17.417 0 17.1436 0 16.83Z" fill="#d4d4d8"/>
</svg>
