<svg width="20" height="18" viewBox="0 0 20 18" fill="none" xmlns="http://www.w3.org/2000/svg">
<path d="M12.341 2.76923H17.4391C17.795 2.76919 18.1469 2.84935 18.4725 3.0046C18.798 3.15985 19.0901 3.38678 19.3301 3.67092C19.57 3.95506 19.7526 4.29016 19.8662 4.65486C19.9797 5.01956 20.0217 5.40584 19.9895 5.78908L19.1739 15.4814C19.1161 16.1694 18.8226 16.8092 18.351 17.2752C17.8793 17.7412 17.2637 17.9997 16.6249 18H3.37499C2.73617 17.9997 2.12051 17.7412 1.64888 17.2752C1.17725 16.8092 0.883718 16.1694 0.825904 15.4814L0.0103509 5.78908C-0.0431184 5.1478 0.111713 4.50641 0.448215 3.97523L0.398283 2.76923C0.398283 2.03479 0.66806 1.33042 1.14827 0.811089C1.62847 0.291757 2.27978 0 2.95889 0H7.66017C8.33923 0.000156842 8.99042 0.292017 9.47052 0.811385L10.5306 1.95785C11.0107 2.47721 11.6619 2.76907 12.341 2.76923ZM1.68627 2.93538C1.96111 2.82554 2.25302 2.77015 2.562 2.76923H9.47052L8.56534 1.79031C8.32529 1.53062 7.9997 1.38469 7.66017 1.38462H2.95889C2.62351 1.38455 2.30149 1.52681 2.06207 1.78081C1.82266 2.03482 1.68496 2.38028 1.67859 2.74292L1.68627 2.93538Z" fill="#d4d4d8"/>
</svg>
